<svg width="491" height="430" viewBox="0 0 491 430" fill="none" xmlns="http://www.w3.org/2000/svg">
<rect width="491" height="430" fill="#71829F"/>
<path d="M55.5 328L136.8 118H169.8L250.5 328H216L168 201.4C167.4 200 166.2 196.6 164.4 191.2C162.8 185.8 160.9 179.8 158.7 173.2C156.5 166.6 154.5 160.6 152.7 155.2C150.9 149.6 149.7 146 149.1 144.4L156 144.1C154.8 147.5 153.3 151.8 151.5 157C149.9 162.2 148.1 167.7 146.1 173.5C144.3 179.3 142.5 184.8 140.7 190C138.9 195 137.4 199.2 136.2 202.6L88.5 328H55.5ZM91.5 275.8L103.5 244.6H198.9L212.7 275.8H91.5ZM334.399 331C321.399 331 309.499 327.4 298.699 320.2C288.099 313 279.599 303.2 273.199 290.8C266.799 278.4 263.599 264.4 263.599 248.8C263.599 233 266.799 219 273.199 206.8C279.799 194.4 288.599 184.7 299.599 177.7C310.799 170.7 323.299 167.2 337.099 167.2C345.299 167.2 352.799 168.4 359.599 170.8C366.399 173.2 372.299 176.6 377.299 181C382.499 185.2 386.699 190.1 389.899 195.7C393.299 201.3 395.399 207.3 396.199 213.7L389.299 211.3V170.5H420.499V328H389.299V290.5L396.499 288.4C395.299 293.8 392.799 299.1 388.999 304.3C385.399 309.3 380.699 313.8 374.899 317.8C369.299 321.8 362.999 325 355.999 327.4C349.199 329.8 341.999 331 334.399 331ZM342.499 302.5C351.899 302.5 360.199 300.2 367.399 295.6C374.599 291 380.199 284.7 384.199 276.7C388.399 268.5 390.499 259.2 390.499 248.8C390.499 238.6 388.399 229.5 384.199 221.5C380.199 213.5 374.599 207.2 367.399 202.6C360.199 198 351.899 195.7 342.499 195.7C333.299 195.7 325.099 198 317.899 202.6C310.899 207.2 305.299 213.5 301.099 221.5C297.099 229.5 295.099 238.6 295.099 248.8C295.099 259.2 297.099 268.5 301.099 276.7C305.299 284.7 310.899 291 317.899 295.6C325.099 300.2 333.299 302.5 342.499 302.5Z" fill="white"/>
</svg>
