<svg width="1235" height="600" viewBox="0 0 1235 600" fill="none" xmlns="http://www.w3.org/2000/svg">
<rect width="1235" height="600" fill="#556A8D"/>
<path d="M51.145 187.738V94.4955H53.615L53.862 116.355L52.7505 116.726C53.8208 112.28 55.7145 108.328 58.4315 104.87C61.1485 101.412 64.4007 98.7357 68.188 96.842C71.9753 94.866 76.092 93.878 80.538 93.878C86.5483 93.878 91.9 95.3188 96.593 98.2005C101.368 101 105.115 104.911 107.832 109.933C110.549 114.873 111.907 120.554 111.907 126.976C111.907 133.48 110.507 139.285 107.708 144.39C104.909 149.412 101.163 153.364 96.4695 156.246C91.8588 159.127 86.713 160.568 81.032 160.568C76.6683 160.568 72.4693 159.621 68.435 157.728C64.483 155.752 61.1073 153.076 58.308 149.7C55.591 146.324 53.862 142.537 53.121 138.338L53.862 138.709V187.738H51.145ZM80.9085 157.851C86.4248 157.851 91.3237 156.534 95.605 153.899C99.8863 151.264 103.221 147.642 105.609 143.031C107.996 138.338 109.19 132.986 109.19 126.976C109.19 121.13 107.996 115.943 105.609 111.415C103.221 106.804 99.8863 103.182 95.605 100.547C91.3237 97.9123 86.3425 96.595 80.6615 96.595C75.6392 96.595 71.0697 97.9123 66.953 100.547C62.9187 103.099 59.7077 106.681 57.32 111.292C55.0147 115.902 53.862 121.213 53.862 127.223C53.862 133.151 55.0147 138.42 57.32 143.031C59.7077 147.642 62.9187 151.264 66.953 153.899C71.0697 156.534 75.7215 157.851 80.9085 157.851ZM125.438 159.333V94.4955H127.908L128.031 110.18L127.29 110.427C127.867 107.71 129.019 105.117 130.748 102.647C132.56 100.094 134.947 97.9947 137.911 96.348C140.958 94.7013 144.539 93.878 148.656 93.878C150.056 93.878 151.332 93.9603 152.484 94.125C153.719 94.2897 154.831 94.5367 155.819 94.866L154.954 97.7065C153.637 97.2948 152.361 97.0067 151.126 96.842C149.973 96.6773 148.944 96.595 148.038 96.595C144.745 96.595 141.822 97.2537 139.27 98.571C136.8 99.8883 134.742 101.617 133.095 103.758C131.448 105.899 130.213 108.204 129.39 110.674C128.567 113.062 128.155 115.367 128.155 117.59V159.333H125.438ZM189.051 160.568C182.794 160.568 177.277 159.127 172.502 156.246C167.727 153.364 163.981 149.371 161.264 144.266C158.629 139.161 157.312 133.357 157.312 126.853C157.312 121.995 158.053 117.549 159.535 113.515C161.017 109.48 163.075 106.022 165.71 103.141C168.427 100.177 171.638 97.9123 175.343 96.348C179.048 94.7013 183.123 93.878 187.569 93.878C191.686 93.878 195.473 94.5778 198.931 95.9775C202.389 97.2948 205.353 99.2708 207.823 101.906C210.375 104.458 212.31 107.545 213.628 111.168C214.945 114.791 215.521 118.866 215.357 123.395L215.233 126.606H158.794V123.889H213.875L212.393 125.988L212.64 122.901C212.64 117.631 211.528 113.021 209.305 109.069C207.082 105.117 204.077 102.07 200.29 99.9295C196.585 97.7065 192.468 96.595 187.94 96.595C182.341 96.595 177.442 97.9123 173.243 100.547C169.126 103.099 165.915 106.681 163.61 111.292C161.305 115.82 160.111 121.007 160.029 126.853C160.111 132.863 161.387 138.215 163.857 142.908C166.327 147.601 169.703 151.264 173.984 153.899C178.348 156.534 183.37 157.851 189.051 157.851C193.332 157.851 197.284 157.069 200.907 155.505C204.53 153.94 207.782 151.8 210.664 149.083L212.146 151.306C210.087 153.199 207.864 154.846 205.477 156.246C203.171 157.563 200.619 158.592 197.82 159.333C195.103 160.156 192.18 160.568 189.051 160.568ZM227.697 159.333V94.4955H230.167L230.537 110.798L228.685 110.427C230.167 107.463 231.814 104.952 233.625 102.894C235.519 100.753 237.536 99.0238 239.676 97.7065C241.817 96.3892 244.04 95.4423 246.345 94.866C248.733 94.2073 251.203 93.878 253.755 93.878C257.296 93.878 260.466 94.4132 263.265 95.4835C266.147 96.5538 268.575 98.324 270.551 100.794C272.527 103.182 273.968 106.434 274.874 110.551L273.392 111.292L274.133 109.192C275.203 106.722 276.562 104.54 278.208 102.647C279.937 100.671 281.831 99.065 283.889 97.83C286.03 96.5127 288.294 95.5247 290.682 94.866C293.152 94.2073 295.663 93.878 298.215 93.878C302.908 93.878 306.86 94.7425 310.071 96.4715C313.365 98.2005 315.876 100.918 317.605 104.623C319.334 108.245 320.198 112.979 320.198 118.825V159.333H317.481V118.825C317.481 113.638 316.699 109.398 315.135 106.105C313.653 102.811 311.471 100.424 308.589 98.9415C305.708 97.3772 302.167 96.595 297.968 96.595C294.757 96.595 291.793 97.1302 289.076 98.2005C286.359 99.2708 284.013 100.712 282.037 102.523C280.061 104.252 278.497 106.187 277.344 108.328C276.274 110.386 275.738 112.403 275.738 114.379V159.333H273.021V118.825C273.021 113.638 272.239 109.398 270.675 106.105C269.193 102.811 267.011 100.424 264.129 98.9415C261.248 97.3772 257.707 96.595 253.508 96.595C250.133 96.595 247.045 97.2125 244.246 98.4475C241.447 99.6002 238.977 101.082 236.836 102.894C234.778 104.623 233.172 106.434 232.019 108.328C230.949 110.139 230.414 111.662 230.414 112.897V159.333H227.697ZM338.718 159.333V94.4955H341.435V159.333H338.718ZM340.076 77.4525C338.923 77.4525 338.059 77.1232 337.483 76.4645C336.906 75.8058 336.618 74.9413 336.618 73.871C336.618 72.883 336.906 72.0597 337.483 71.401C338.059 70.66 338.923 70.2895 340.076 70.2895C341.146 70.2895 341.97 70.6188 342.546 71.2775C343.205 71.9362 343.534 72.8007 343.534 73.871C343.534 74.9413 343.246 75.8058 342.67 76.4645C342.093 77.1232 341.229 77.4525 340.076 77.4525ZM388.894 160.568C382.637 160.568 377.121 159.127 372.345 156.246C367.57 153.364 363.824 149.371 361.107 144.266C358.472 139.161 357.155 133.357 357.155 126.853C357.155 121.995 357.896 117.549 359.378 113.515C360.86 109.48 362.918 106.022 365.553 103.141C368.27 100.177 371.481 97.9123 375.186 96.348C378.891 94.7013 382.966 93.878 387.412 93.878C391.529 93.878 395.316 94.5778 398.774 95.9775C402.232 97.2948 405.196 99.2708 407.666 101.906C410.219 104.458 412.154 107.545 413.471 111.168C414.788 114.791 415.365 118.866 415.2 123.395L415.076 126.606H358.637V123.889H413.718L412.236 125.988L412.483 122.901C412.483 117.631 411.371 113.021 409.148 109.069C406.925 105.117 403.92 102.07 400.133 99.9295C396.428 97.7065 392.311 96.595 387.783 96.595C382.184 96.595 377.285 97.9123 373.086 100.547C368.97 103.099 365.759 106.681 363.453 111.292C361.148 115.82 359.954 121.007 359.872 126.853C359.954 132.863 361.23 138.215 363.7 142.908C366.17 147.601 369.546 151.264 373.827 153.899C378.191 156.534 383.213 157.851 388.894 157.851C393.176 157.851 397.128 157.069 400.75 155.505C404.373 153.94 407.625 151.8 410.507 149.083L411.989 151.306C409.931 153.199 407.708 154.846 405.32 156.246C403.015 157.563 400.462 158.592 397.663 159.333C394.946 160.156 392.023 160.568 388.894 160.568ZM428.158 159.333V94.4955H430.628L430.751 110.18L430.01 110.427C430.587 107.71 431.739 105.117 433.468 102.647C435.28 100.094 437.667 97.9947 440.631 96.348C443.678 94.7013 447.259 93.878 451.376 93.878C452.775 93.878 454.052 93.9603 455.204 94.125C456.439 94.2897 457.551 94.5367 458.539 94.866L457.674 97.7065C456.357 97.2948 455.081 97.0067 453.846 96.842C452.693 96.6773 451.664 96.595 450.758 96.595C447.465 96.595 444.542 97.2537 441.99 98.571C439.52 99.8883 437.461 101.617 435.815 103.758C434.168 105.899 432.933 108.204 432.11 110.674C431.286 113.062 430.875 115.367 430.875 117.59V159.333H428.158ZM491.771 160.568C485.513 160.568 479.997 159.127 475.222 156.246C470.446 153.364 466.7 149.371 463.983 144.266C461.349 139.161 460.031 133.357 460.031 126.853C460.031 121.995 460.772 117.549 462.254 113.515C463.736 109.48 465.795 106.022 468.429 103.141C471.146 100.177 474.357 97.9123 478.062 96.348C481.767 94.7013 485.843 93.878 490.289 93.878C494.405 93.878 498.193 94.5778 501.651 95.9775C505.109 97.2948 508.073 99.2708 510.543 101.906C513.095 104.458 515.03 107.545 516.347 111.168C517.665 114.791 518.241 118.866 518.076 123.395L517.953 126.606H461.513V123.889H516.594L515.112 125.988L515.359 122.901C515.359 117.631 514.248 113.021 512.025 109.069C509.802 105.117 506.797 102.07 503.009 99.9295C499.304 97.7065 495.188 96.595 490.659 96.595C485.061 96.595 480.162 97.9123 475.963 100.547C471.846 103.099 468.635 106.681 466.33 111.292C464.024 115.82 462.831 121.007 462.748 126.853C462.831 132.863 464.107 138.215 466.577 142.908C469.047 147.601 472.422 151.264 476.704 153.899C481.067 156.534 486.09 157.851 491.771 157.851C496.052 157.851 500.004 157.069 503.627 155.505C507.249 153.94 510.502 151.8 513.383 149.083L514.865 151.306C512.807 153.199 510.584 154.846 508.196 156.246C505.891 157.563 503.339 158.592 500.539 159.333C497.822 160.156 494.899 160.568 491.771 160.568Z" fill="#EAECF1"/>
<path d="M51.5155 311.503V220.113H57.4435L58.061 236.786L56.4555 238.268C57.5258 234.563 59.3372 231.269 61.8895 228.388C64.5242 225.424 67.694 223.077 71.399 221.348C75.104 219.619 79.1383 218.755 83.502 218.755C89.183 218.755 94.3288 220.195 98.9395 223.077C103.633 225.959 107.338 229.911 110.055 234.933C112.854 239.955 114.254 245.719 114.254 252.223C114.254 258.645 112.895 264.367 110.178 269.39C107.543 274.412 103.88 278.364 99.1865 281.246C94.5758 284.127 89.3477 285.568 83.502 285.568C79.1383 285.568 75.104 284.704 71.399 282.975C67.694 281.246 64.5242 278.94 61.8895 276.059C59.3372 273.095 57.5258 269.76 56.4555 266.055L57.6905 267.661V311.503H51.5155ZM82.514 279.393C87.454 279.393 91.8177 278.24 95.605 275.935C99.3923 273.547 102.356 270.295 104.497 266.179C106.638 262.062 107.708 257.41 107.708 252.223C107.708 246.954 106.597 242.261 104.374 238.144C102.233 234.027 99.2688 230.816 95.4815 228.511C91.6942 226.123 87.3717 224.93 82.514 224.93C77.6563 224.93 73.2927 226.123 69.423 228.511C65.6357 230.816 62.6305 234.027 60.4075 238.144C58.2668 242.178 57.1965 246.83 57.1965 252.1C57.1965 257.451 58.308 262.185 60.531 266.302C62.754 270.336 65.7592 273.547 69.5465 275.935C73.3338 278.24 77.6563 279.393 82.514 279.393ZM127.256 284.333V220.113H133.184L133.801 234.439H132.937C133.842 231.722 135.242 229.17 137.136 226.782C139.029 224.394 141.335 222.46 144.052 220.978C146.851 219.496 150.062 218.755 153.685 218.755C155.084 218.755 156.361 218.878 157.513 219.125C158.748 219.29 159.86 219.496 160.848 219.743L158.995 226.906C157.843 226.412 156.731 226.082 155.661 225.918C154.59 225.753 153.644 225.671 152.82 225.671C149.527 225.671 146.645 226.247 144.175 227.4C141.788 228.552 139.77 230.158 138.124 232.216C136.559 234.192 135.366 236.456 134.542 239.009C133.801 241.561 133.431 244.237 133.431 247.036V284.333H127.256ZM193.855 285.568C187.68 285.568 182.164 284.168 177.306 281.369C172.531 278.57 168.785 274.659 166.068 269.637C163.351 264.614 161.992 258.769 161.992 252.1C161.992 247.242 162.733 242.796 164.215 238.762C165.779 234.727 167.92 231.228 170.637 228.264C173.354 225.218 176.606 222.871 180.394 221.225C184.263 219.578 188.462 218.755 192.991 218.755C197.437 218.755 201.43 219.496 204.97 220.978C208.593 222.46 211.639 224.6 214.109 227.4C216.579 230.117 218.432 233.369 219.667 237.156C220.902 240.861 221.437 244.978 221.272 249.506L221.149 252.841H166.562V247.16H217.814L215.097 249.383V246.419C215.097 243.125 214.274 239.832 212.627 236.539C211.063 233.245 208.634 230.487 205.341 228.264C202.047 226.041 197.889 224.93 192.867 224.93C188.174 224.93 183.975 225.959 180.27 228.017C176.647 230.075 173.766 233.081 171.625 237.033C169.567 240.985 168.538 245.883 168.538 251.729C168.538 257.328 169.567 262.227 171.625 266.426C173.683 270.542 176.647 273.753 180.517 276.059C184.469 278.282 189.286 279.393 194.967 279.393C198.013 279.393 201.142 278.899 204.353 277.911C207.564 276.923 211.186 274.782 215.221 271.489L218.432 276.059C216.62 277.788 214.48 279.393 212.01 280.875C209.54 282.275 206.781 283.427 203.735 284.333C200.689 285.156 197.395 285.568 193.855 285.568ZM233.75 284.333V220.113H239.678L240.296 235.674L238.814 235.427C239.555 232.792 240.708 230.446 242.272 228.388C243.919 226.329 245.812 224.6 247.953 223.201C250.176 221.719 252.605 220.607 255.239 219.866C257.874 219.125 260.673 218.755 263.637 218.755C266.766 218.755 269.607 219.29 272.159 220.36C274.794 221.43 277.058 223.365 278.951 226.165C280.845 228.964 282.327 232.916 283.397 238.021L280.927 236.292L281.792 234.192C282.615 232.216 283.809 230.322 285.373 228.511C286.938 226.617 288.79 224.971 290.931 223.571C293.072 222.089 295.459 220.936 298.094 220.113C300.811 219.207 303.693 218.755 306.739 218.755C311.02 218.755 314.684 219.701 317.73 221.595C320.777 223.489 323.082 226.412 324.646 230.364C326.293 234.316 327.116 239.338 327.116 245.431V284.333H320.941V245.678C320.941 240.902 320.324 236.991 319.089 233.945C317.936 230.816 316.166 228.511 313.778 227.029C311.473 225.465 308.591 224.683 305.133 224.683C301.922 224.683 299 225.259 296.365 226.412C293.73 227.482 291.466 228.964 289.572 230.858C287.679 232.751 286.197 234.933 285.126 237.403C284.056 239.791 283.521 242.343 283.521 245.06V284.333H277.346V245.678C277.346 240.902 276.728 236.991 275.493 233.945C274.341 230.816 272.571 228.511 270.183 227.029C267.795 225.465 264.872 224.683 261.414 224.683C258.286 224.683 255.404 225.259 252.769 226.412C250.135 227.482 247.871 228.964 245.977 230.858C244.083 232.751 242.601 234.933 241.531 237.403C240.461 239.791 239.925 242.343 239.925 245.06V284.333H233.75ZM347.91 284.333V220.113H354.085V284.333H347.91ZM350.997 206.652C349.186 206.652 347.786 206.158 346.798 205.17C345.81 204.182 345.316 202.823 345.316 201.094C345.316 199.447 345.81 198.13 346.798 197.142C347.786 196.072 349.186 195.537 350.997 195.537C352.809 195.537 354.208 196.031 355.196 197.019C356.184 198.007 356.678 199.365 356.678 201.094C356.678 202.741 356.184 204.099 355.196 205.17C354.208 206.158 352.809 206.652 350.997 206.652ZM401.779 285.568C395.604 285.568 390.088 284.168 385.23 281.369C380.455 278.57 376.708 274.659 373.991 269.637C371.274 264.614 369.916 258.769 369.916 252.1C369.916 247.242 370.657 242.796 372.139 238.762C373.703 234.727 375.844 231.228 378.561 228.264C381.278 225.218 384.53 222.871 388.317 221.225C392.187 219.578 396.386 218.755 400.914 218.755C405.36 218.755 409.354 219.496 412.894 220.978C416.517 222.46 419.563 224.6 422.033 227.4C424.503 230.117 426.355 233.369 427.59 237.156C428.825 240.861 429.361 244.978 429.196 249.506L429.072 252.841H374.485V247.16H425.738L423.021 249.383V246.419C423.021 243.125 422.198 239.832 420.551 236.539C418.987 233.245 416.558 230.487 413.264 228.264C409.971 226.041 405.813 224.93 400.791 224.93C396.098 224.93 391.899 225.959 388.194 228.017C384.571 230.075 381.69 233.081 379.549 237.033C377.491 240.985 376.461 245.883 376.461 251.729C376.461 257.328 377.491 262.227 379.549 266.426C381.607 270.542 384.571 273.753 388.441 276.059C392.393 278.282 397.209 279.393 402.89 279.393C405.937 279.393 409.065 278.899 412.276 277.911C415.487 276.923 419.11 274.782 423.144 271.489L426.355 276.059C424.544 277.788 422.403 279.393 419.933 280.875C417.463 282.275 414.705 283.427 411.659 284.333C408.613 285.156 405.319 285.568 401.779 285.568ZM441.674 284.333V220.113H447.602L448.22 234.439H447.355C448.261 231.722 449.661 229.17 451.554 226.782C453.448 224.394 455.753 222.46 458.47 220.978C461.27 219.496 464.481 218.755 468.103 218.755C469.503 218.755 470.779 218.878 471.932 219.125C473.167 219.29 474.278 219.496 475.266 219.743L473.414 226.906C472.261 226.412 471.15 226.082 470.079 225.918C469.009 225.753 468.062 225.671 467.239 225.671C463.945 225.671 461.064 226.247 458.594 227.4C456.206 228.552 454.189 230.158 452.542 232.216C450.978 234.192 449.784 236.456 448.961 239.009C448.22 241.561 447.849 244.237 447.849 247.036V284.333H441.674ZM508.273 285.568C502.098 285.568 496.582 284.168 491.724 281.369C486.949 278.57 483.203 274.659 480.486 269.637C477.769 264.614 476.41 258.769 476.41 252.1C476.41 247.242 477.151 242.796 478.633 238.762C480.198 234.727 482.338 231.228 485.055 228.264C487.772 225.218 491.025 222.871 494.812 221.225C498.682 219.578 502.881 218.755 507.409 218.755C511.855 218.755 515.848 219.496 519.388 220.978C523.011 222.46 526.057 224.6 528.527 227.4C530.997 230.117 532.85 233.369 534.085 237.156C535.32 240.861 535.855 244.978 535.69 249.506L535.567 252.841H480.98V247.16H532.232L529.515 249.383V246.419C529.515 243.125 528.692 239.832 527.045 236.539C525.481 233.245 523.052 230.487 519.759 228.264C516.466 226.041 512.308 224.93 507.285 224.93C502.592 224.93 498.393 225.959 494.688 228.017C491.066 230.075 488.184 233.081 486.043 237.033C483.985 240.985 482.956 245.883 482.956 251.729C482.956 257.328 483.985 262.227 486.043 266.426C488.102 270.542 491.066 273.753 494.935 276.059C498.887 278.282 503.704 279.393 509.385 279.393C512.431 279.393 515.56 278.899 518.771 277.911C521.982 276.923 525.605 274.782 529.639 271.489L532.85 276.059C531.039 277.788 528.898 279.393 526.428 280.875C523.958 282.275 521.2 283.427 518.153 284.333C515.107 285.156 511.814 285.568 508.273 285.568Z" fill="#EAECF1"/>
<path d="M51.5155 436.503V344.866H60.778L61.025 360.551L59.296 360.798C60.037 357.669 61.6425 354.828 64.1125 352.276C66.5825 349.641 69.5877 347.542 73.128 345.978C76.6683 344.413 80.4145 343.631 84.3665 343.631C90.1298 343.631 95.2757 345.072 99.804 347.954C104.415 350.835 108.079 354.787 110.796 359.81C113.513 364.832 114.871 370.595 114.871 377.1C114.871 383.522 113.554 389.244 110.919 394.266C108.284 399.288 104.662 403.282 100.051 406.246C95.4403 409.127 90.2533 410.568 84.49 410.568C80.4557 410.568 76.6272 409.745 73.0045 408.098C69.3818 406.451 66.2943 404.311 63.742 401.676C61.1897 398.959 59.5018 396.036 58.6785 392.908H60.9015V436.503H51.5155ZM83.008 401.676C87.3717 401.676 91.2413 400.606 94.617 398.465C97.9927 396.324 100.669 393.402 102.645 389.697C104.621 385.992 105.609 381.793 105.609 377.1C105.609 372.324 104.621 368.084 102.645 364.379C100.669 360.674 97.9927 357.751 94.617 355.611C91.2413 353.47 87.3717 352.4 83.008 352.4C78.6443 352.4 74.7335 353.47 71.2755 355.611C67.8998 357.669 65.224 360.551 63.248 364.256C61.272 367.961 60.284 372.201 60.284 376.976C60.284 381.751 61.272 385.992 63.248 389.697C65.224 393.402 67.8998 396.324 71.2755 398.465C74.7335 400.606 78.6443 401.676 83.008 401.676ZM128.341 409.333V344.866H137.604L137.851 362.033L136.863 359.686C137.768 356.804 139.209 354.129 141.185 351.659C143.244 349.189 145.672 347.213 148.472 345.731C151.271 344.249 154.359 343.508 157.734 343.508C159.134 343.508 160.451 343.631 161.686 343.878C162.921 344.043 163.95 344.29 164.774 344.619L162.18 354.993C161.11 354.499 159.998 354.17 158.846 354.005C157.775 353.758 156.746 353.635 155.758 353.635C152.959 353.635 150.448 354.129 148.225 355.117C146.002 356.105 144.108 357.504 142.544 359.316C140.979 361.045 139.786 363.062 138.962 365.367C138.139 367.672 137.727 370.142 137.727 372.777V409.333H128.341ZM200.044 410.568C193.622 410.568 187.899 409.168 182.877 406.369C177.937 403.57 174.067 399.659 171.268 394.637C168.469 389.614 167.069 383.851 167.069 377.347C167.069 372.324 167.851 367.796 169.416 363.762C170.98 359.645 173.162 356.063 175.961 353.017C178.843 349.971 182.26 347.624 186.212 345.978C190.164 344.249 194.445 343.384 199.056 343.384C203.419 343.384 207.371 344.166 210.912 345.731C214.534 347.295 217.622 349.477 220.174 352.276C222.809 354.993 224.785 358.245 226.102 362.033C227.419 365.82 227.996 369.978 227.831 374.506L227.708 378.829H173.985L172.627 371.048H220.668L218.445 373.148V370.184C218.28 367.22 217.416 364.379 215.852 361.662C214.287 358.863 212.064 356.599 209.183 354.87C206.383 353.141 203.008 352.276 199.056 352.276C194.445 352.276 190.452 353.223 187.076 355.117C183.7 356.928 181.107 359.645 179.296 363.268C177.484 366.89 176.579 371.377 176.579 376.729C176.579 381.834 177.567 386.28 179.543 390.067C181.519 393.772 184.318 396.654 187.941 398.712C191.646 400.77 196.092 401.8 201.279 401.8C204.325 401.8 207.33 401.306 210.294 400.318C213.34 399.247 216.675 397.189 220.298 394.143L225.114 400.812C223.22 402.705 220.956 404.393 218.322 405.875C215.687 407.275 212.805 408.427 209.677 409.333C206.548 410.156 203.337 410.568 200.044 410.568ZM240.863 409.333V344.866H250.126L250.373 359.563L248.52 360.18C249.179 357.71 250.249 355.487 251.731 353.511C253.296 351.453 255.148 349.683 257.289 348.201C259.429 346.719 261.776 345.607 264.328 344.866C266.881 344.043 269.556 343.631 272.356 343.631C275.731 343.631 278.737 344.207 281.371 345.36C284.088 346.43 286.352 348.324 288.164 351.041C290.057 353.676 291.498 357.175 292.486 361.539L290.263 360.427L291.128 358.328C291.951 356.434 293.145 354.623 294.709 352.894C296.356 351.082 298.208 349.477 300.267 348.077C302.407 346.677 304.713 345.607 307.183 344.866C309.735 344.043 312.329 343.631 314.963 343.631C319.492 343.631 323.32 344.619 326.449 346.595C329.577 348.489 331.924 351.412 333.488 355.364C335.135 359.316 335.958 364.338 335.958 370.431V409.333H326.449V370.925C326.449 366.643 325.914 363.144 324.843 360.427C323.773 357.71 322.167 355.693 320.027 354.376C317.968 352.976 315.334 352.276 312.123 352.276C309.323 352.276 306.73 352.77 304.342 353.758C302.037 354.664 300.02 355.981 298.291 357.71C296.644 359.357 295.327 361.25 294.339 363.391C293.433 365.532 292.98 367.837 292.98 370.307V409.333H283.594V370.801C283.594 366.684 283.018 363.268 281.865 360.551C280.795 357.834 279.189 355.775 277.049 354.376C274.908 352.976 272.273 352.276 269.145 352.276C266.428 352.276 263.917 352.77 261.611 353.758C259.306 354.664 257.289 355.94 255.56 357.587C253.913 359.233 252.596 361.127 251.608 363.268C250.702 365.408 250.249 367.714 250.249 370.184V409.333H240.863ZM355.982 409.333V344.866H365.244V409.333H355.982ZM360.551 330.911C358.246 330.911 356.476 330.334 355.241 329.182C354.088 327.947 353.512 326.3 353.512 324.242C353.512 322.183 354.129 320.537 355.364 319.302C356.599 318.067 358.328 317.449 360.551 317.449C362.774 317.449 364.503 318.067 365.738 319.302C366.973 320.454 367.591 322.101 367.591 324.242C367.591 326.218 366.973 327.823 365.738 329.058C364.503 330.293 362.774 330.911 360.551 330.911ZM413.877 410.568C407.455 410.568 401.733 409.168 396.711 406.369C391.771 403.57 387.901 399.659 385.102 394.637C382.302 389.614 380.903 383.851 380.903 377.347C380.903 372.324 381.685 367.796 383.249 363.762C384.813 359.645 386.995 356.063 389.795 353.017C392.676 349.971 396.093 347.624 400.045 345.978C403.997 344.249 408.278 343.384 412.889 343.384C417.253 343.384 421.205 344.166 424.745 345.731C428.368 347.295 431.455 349.477 434.008 352.276C436.642 354.993 438.618 358.245 439.936 362.033C441.253 365.82 441.829 369.978 441.665 374.506L441.541 378.829H387.819L386.46 371.048H434.502L432.279 373.148V370.184C432.114 367.22 431.249 364.379 429.685 361.662C428.121 358.863 425.898 356.599 423.016 354.87C420.217 353.141 416.841 352.276 412.889 352.276C408.278 352.276 404.285 353.223 400.91 355.117C397.534 356.928 394.94 359.645 393.129 363.268C391.318 366.89 390.412 371.377 390.412 376.729C390.412 381.834 391.4 386.28 393.376 390.067C395.352 393.772 398.151 396.654 401.774 398.712C405.479 400.77 409.925 401.8 415.112 401.8C418.158 401.8 421.164 401.306 424.128 400.318C427.174 399.247 430.508 397.189 434.131 394.143L438.948 400.812C437.054 402.705 434.79 404.393 432.155 405.875C429.52 407.275 426.639 408.427 423.51 409.333C420.381 410.156 417.17 410.568 413.877 410.568ZM454.82 409.333V344.866H464.083L464.33 362.033L463.342 359.686C464.247 356.804 465.688 354.129 467.664 351.659C469.723 349.189 472.151 347.213 474.951 345.731C477.75 344.249 480.838 343.508 484.213 343.508C485.613 343.508 486.93 343.631 488.165 343.878C489.4 344.043 490.429 344.29 491.253 344.619L488.659 354.993C487.589 354.499 486.477 354.17 485.325 354.005C484.254 353.758 483.225 353.635 482.237 353.635C479.438 353.635 476.927 354.129 474.704 355.117C472.481 356.105 470.587 357.504 469.023 359.316C467.458 361.045 466.265 363.062 465.441 365.367C464.618 367.672 464.206 370.142 464.206 372.777V409.333H454.82ZM526.523 410.568C520.101 410.568 514.378 409.168 509.356 406.369C504.416 403.57 500.546 399.659 497.747 394.637C494.948 389.614 493.548 383.851 493.548 377.347C493.548 372.324 494.33 367.796 495.895 363.762C497.459 359.645 499.641 356.063 502.44 353.017C505.322 349.971 508.739 347.624 512.691 345.978C516.643 344.249 520.924 343.384 525.535 343.384C529.898 343.384 533.85 344.166 537.391 345.731C541.013 347.295 544.101 349.477 546.653 352.276C549.288 354.993 551.264 358.245 552.581 362.033C553.898 365.82 554.475 369.978 554.31 374.506L554.187 378.829H500.464L499.106 371.048H547.147L544.924 373.148V370.184C544.759 367.22 543.895 364.379 542.331 361.662C540.766 358.863 538.543 356.599 535.662 354.87C532.862 353.141 529.487 352.276 525.535 352.276C520.924 352.276 516.931 353.223 513.555 355.117C510.179 356.928 507.586 359.645 505.775 363.268C503.963 366.89 503.058 371.377 503.058 376.729C503.058 381.834 504.046 386.28 506.022 390.067C507.998 393.772 510.797 396.654 514.42 398.712C518.125 400.77 522.571 401.8 527.758 401.8C530.804 401.8 533.809 401.306 536.773 400.318C539.819 399.247 543.154 397.189 546.777 394.143L551.593 400.812C549.699 402.705 547.435 404.393 544.801 405.875C542.166 407.275 539.284 408.427 536.156 409.333C533.027 410.156 529.816 410.568 526.523 410.568Z" fill="#EAECF1"/>
<path d="M51.392 561.503V469.496H64.236V484.316L62.26 483.204C62.754 480.734 64.1537 478.388 66.459 476.165C68.7643 473.859 71.5637 472.007 74.857 470.607C78.2327 469.125 81.6907 468.384 85.231 468.384C91.0767 468.384 96.2637 469.825 100.792 472.707C105.32 475.588 108.902 479.54 111.537 484.563C114.171 489.585 115.489 495.348 115.489 501.853C115.489 508.275 114.171 514.038 111.537 519.143C108.984 524.165 105.444 528.158 100.916 531.122C96.3872 534.004 91.2825 535.445 85.6015 535.445C81.8142 535.445 78.1503 534.704 74.61 533.222C71.0697 531.657 68.0645 529.681 65.5945 527.294C63.1245 524.906 61.6013 522.436 61.025 519.884L64.236 518.155V561.503H51.392ZM83.502 523.712C87.2893 523.712 90.665 522.765 93.629 520.872C96.593 518.978 98.9395 516.384 100.669 513.091C102.398 509.798 103.262 506.052 103.262 501.853C103.262 497.654 102.398 493.949 100.669 490.738C99.0218 487.444 96.7165 484.851 93.7525 482.957C90.7885 481.063 87.3717 480.117 83.502 480.117C79.6323 480.117 76.2155 481.063 73.2515 482.957C70.2875 484.768 67.941 487.321 66.212 490.614C64.483 493.907 63.6185 497.654 63.6185 501.853C63.6185 506.052 64.483 509.798 66.212 513.091C67.941 516.384 70.2875 518.978 73.2515 520.872C76.2155 522.765 79.6323 523.712 83.502 523.712ZM129.303 534.333V469.496H142.147V489.873L140.912 484.933C141.818 481.804 143.341 478.964 145.482 476.412C147.705 473.859 150.216 471.842 153.015 470.36C155.897 468.878 158.861 468.137 161.907 468.137C163.307 468.137 164.624 468.261 165.859 468.508C167.176 468.755 168.206 469.043 168.947 469.372L165.612 483.204C164.624 482.792 163.513 482.463 162.278 482.216C161.125 481.887 159.972 481.722 158.82 481.722C156.597 481.722 154.456 482.175 152.398 483.081C150.422 483.904 148.651 485.098 147.087 486.662C145.605 488.144 144.411 489.914 143.506 491.973C142.6 493.949 142.147 496.13 142.147 498.518V534.333H129.303ZM206.597 535.568C199.928 535.568 194 534.168 188.813 531.369C183.708 528.487 179.674 524.577 176.71 519.637C173.828 514.697 172.387 509.016 172.387 502.594C172.387 497.489 173.211 492.837 174.857 488.638C176.504 484.439 178.768 480.816 181.65 477.77C184.614 474.641 188.113 472.254 192.147 470.607C196.264 468.878 200.71 468.014 205.485 468.014C209.684 468.014 213.595 468.837 217.218 470.484C220.84 472.048 223.969 474.23 226.604 477.029C229.321 479.828 231.379 483.163 232.779 487.033C234.261 490.82 234.961 494.978 234.878 499.506L234.755 504.94H181.773L178.933 494.813H223.763L221.911 496.913V493.949C221.664 491.232 220.758 488.803 219.194 486.662C217.629 484.521 215.653 482.834 213.266 481.599C210.878 480.364 208.285 479.746 205.485 479.746C201.039 479.746 197.293 480.611 194.247 482.34C191.2 483.986 188.895 486.456 187.331 489.75C185.766 492.961 184.984 496.954 184.984 501.729C184.984 506.257 185.931 510.209 187.825 513.585C189.718 516.878 192.394 519.431 195.852 521.242C199.31 523.053 203.303 523.959 207.832 523.959C211.043 523.959 214.007 523.424 216.724 522.354C219.523 521.283 222.528 519.348 225.739 516.549L232.161 525.565C230.185 527.541 227.756 529.27 224.875 530.752C222.075 532.234 219.07 533.427 215.859 534.333C212.731 535.156 209.643 535.568 206.597 535.568ZM248.456 534.333V469.496H261.3V483.328L258.953 484.81C259.612 482.669 260.641 480.611 262.041 478.635C263.523 476.659 265.293 474.93 267.351 473.448C269.492 471.883 271.756 470.648 274.144 469.743C276.614 468.837 279.125 468.384 281.677 468.384C285.382 468.384 288.634 469.002 291.434 470.237C294.233 471.472 296.538 473.324 298.35 475.794C300.161 478.264 301.478 481.352 302.302 485.057L300.326 484.563L301.19 482.463C302.096 480.569 303.331 478.799 304.895 477.153C306.542 475.424 308.394 473.9 310.453 472.583C312.511 471.266 314.693 470.237 316.998 469.496C319.303 468.755 321.568 468.384 323.791 468.384C328.648 468.384 332.641 469.372 335.77 471.348C338.981 473.324 341.369 476.329 342.933 480.364C344.58 484.398 345.403 489.42 345.403 495.431V534.333H332.559V496.172C332.559 492.467 332.065 489.461 331.077 487.156C330.171 484.768 328.772 482.998 326.878 481.846C324.984 480.693 322.556 480.117 319.592 480.117C317.286 480.117 315.104 480.528 313.046 481.352C311.07 482.093 309.341 483.163 307.859 484.563C306.377 485.962 305.224 487.609 304.401 489.503C303.578 491.314 303.166 493.331 303.166 495.554V534.333H290.322V495.925C290.322 492.549 289.828 489.708 288.84 487.403C287.852 485.015 286.411 483.204 284.518 481.969C282.624 480.734 280.319 480.117 277.602 480.117C275.296 480.117 273.156 480.528 271.18 481.352C269.204 482.093 267.475 483.163 265.993 484.563C264.511 485.88 263.358 487.485 262.535 489.379C261.711 491.19 261.3 493.166 261.3 495.307V534.333H248.456ZM364.533 534.333V469.496H377.254V534.333H364.533ZM370.708 455.17C367.991 455.17 365.892 454.47 364.41 453.07C362.928 451.67 362.187 449.694 362.187 447.142C362.187 444.754 362.928 442.82 364.41 441.338C365.974 439.856 368.073 439.115 370.708 439.115C373.425 439.115 375.525 439.814 377.007 441.214C378.489 442.614 379.23 444.59 379.23 447.142C379.23 449.53 378.447 451.465 376.883 452.947C375.401 454.429 373.343 455.17 370.708 455.17ZM427.064 535.568C420.395 535.568 414.467 534.168 409.28 531.369C404.175 528.487 400.141 524.577 397.177 519.637C394.295 514.697 392.854 509.016 392.854 502.594C392.854 497.489 393.677 492.837 395.324 488.638C396.971 484.439 399.235 480.816 402.117 477.77C405.081 474.641 408.58 472.254 412.614 470.607C416.731 468.878 421.177 468.014 425.952 468.014C430.151 468.014 434.062 468.837 437.685 470.484C441.307 472.048 444.436 474.23 447.071 477.029C449.788 479.828 451.846 483.163 453.246 487.033C454.728 490.82 455.427 494.978 455.345 499.506L455.222 504.94H402.24L399.4 494.813H444.23L442.378 496.913V493.949C442.131 491.232 441.225 488.803 439.661 486.662C438.096 484.521 436.12 482.834 433.733 481.599C431.345 480.364 428.751 479.746 425.952 479.746C421.506 479.746 417.76 480.611 414.714 482.34C411.667 483.986 409.362 486.456 407.798 489.75C406.233 492.961 405.451 496.954 405.451 501.729C405.451 506.257 406.398 510.209 408.292 513.585C410.185 516.878 412.861 519.431 416.319 521.242C419.777 523.053 423.77 523.959 428.299 523.959C431.51 523.959 434.474 523.424 437.191 522.354C439.99 521.283 442.995 519.348 446.206 516.549L452.628 525.565C450.652 527.541 448.223 529.27 445.342 530.752C442.542 532.234 439.537 533.427 436.326 534.333C433.197 535.156 430.11 535.568 427.064 535.568ZM469.169 534.333V469.496H482.013V489.873L480.778 484.933C481.684 481.804 483.207 478.964 485.348 476.412C487.571 473.859 490.082 471.842 492.881 470.36C495.763 468.878 498.727 468.137 501.773 468.137C503.173 468.137 504.49 468.261 505.725 468.508C507.043 468.755 508.072 469.043 508.813 469.372L505.478 483.204C504.49 482.792 503.379 482.463 502.144 482.216C500.991 481.887 499.839 481.722 498.686 481.722C496.463 481.722 494.322 482.175 492.264 483.081C490.288 483.904 488.518 485.098 486.953 486.662C485.471 488.144 484.278 489.914 483.372 491.973C482.466 493.949 482.013 496.13 482.013 498.518V534.333H469.169ZM546.463 535.568C539.794 535.568 533.866 534.168 528.679 531.369C523.574 528.487 519.54 524.577 516.576 519.637C513.694 514.697 512.253 509.016 512.253 502.594C512.253 497.489 513.077 492.837 514.723 488.638C516.37 484.439 518.634 480.816 521.516 477.77C524.48 474.641 527.979 472.254 532.013 470.607C536.13 468.878 540.576 468.014 545.351 468.014C549.55 468.014 553.461 468.837 557.084 470.484C560.707 472.048 563.835 474.23 566.47 477.029C569.187 479.828 571.245 483.163 572.645 487.033C574.127 490.82 574.827 494.978 574.744 499.506L574.621 504.94H521.639L518.799 494.813H563.629L561.777 496.913V493.949C561.53 491.232 560.624 488.803 559.06 486.662C557.496 484.521 555.52 482.834 553.132 481.599C550.744 480.364 548.151 479.746 545.351 479.746C540.905 479.746 537.159 480.611 534.113 482.34C531.067 483.986 528.761 486.456 527.197 489.75C525.633 492.961 524.85 496.954 524.85 501.729C524.85 506.257 525.797 510.209 527.691 513.585C529.585 516.878 532.26 519.431 535.718 521.242C539.176 523.053 543.17 523.959 547.698 523.959C550.909 523.959 553.873 523.424 556.59 522.354C559.389 521.283 562.394 519.348 565.605 516.549L572.027 525.565C570.051 527.541 567.623 529.27 564.741 530.752C561.942 532.234 558.936 533.427 555.725 534.333C552.597 535.156 549.509 535.568 546.463 535.568Z" fill="#EAECF1"/>
<path d="M628.392 183.503V91.2485H643.336L643.583 106.069L640.989 104.957C641.483 102.405 642.883 100.017 645.188 97.794C647.493 95.4887 650.293 93.6362 653.586 92.2365C656.962 90.8368 660.461 90.137 664.084 90.137C669.847 90.137 674.952 91.5778 679.398 94.4595C683.926 97.3412 687.466 101.293 690.019 106.316C692.653 111.338 693.971 117.142 693.971 123.729C693.971 130.233 692.653 136.038 690.019 141.143C687.466 146.165 683.926 150.158 679.398 153.122C674.952 156.004 669.929 157.445 664.331 157.445C660.543 157.445 656.879 156.704 653.339 155.222C649.881 153.74 646.917 151.805 644.447 149.417C642.059 147.029 640.577 144.518 640.001 141.884L643.706 140.155V183.503H628.392ZM661.243 143.983C664.701 143.983 667.789 143.119 670.506 141.39C673.223 139.661 675.322 137.273 676.804 134.227C678.368 131.18 679.151 127.681 679.151 123.729C679.151 119.777 678.41 116.319 676.928 113.355C675.446 110.309 673.346 107.921 670.629 106.192C667.912 104.463 664.783 103.599 661.243 103.599C657.62 103.599 654.451 104.463 651.734 106.192C649.099 107.839 646.999 110.185 645.435 113.232C643.871 116.278 643.089 119.777 643.089 123.729C643.089 127.681 643.871 131.18 645.435 134.227C646.999 137.273 649.099 139.661 651.734 141.39C654.451 143.119 657.62 143.983 661.243 143.983ZM707.509 156.333V91.2485H722.453L722.7 111.997L720.6 107.304C721.506 104.01 723.07 101.046 725.293 98.4115C727.516 95.7768 730.069 93.7185 732.95 92.2365C735.914 90.6722 739.002 89.89 742.213 89.89C743.612 89.89 744.93 90.0135 746.165 90.2605C747.482 90.5075 748.552 90.7957 749.376 91.125L745.3 107.798C744.395 107.304 743.283 106.892 741.966 106.563C740.648 106.233 739.331 106.069 738.014 106.069C735.955 106.069 733.979 106.48 732.086 107.304C730.274 108.045 728.669 109.115 727.269 110.515C725.87 111.914 724.758 113.561 723.935 115.455C723.194 117.266 722.823 119.324 722.823 121.63V156.333H707.509ZM787.221 157.568C780.387 157.568 774.336 156.127 769.066 153.246C763.879 150.364 759.804 146.453 756.84 141.513C753.958 136.491 752.517 130.769 752.517 124.347C752.517 119.242 753.341 114.59 754.987 110.391C756.634 106.192 758.898 102.569 761.78 99.523C764.744 96.3943 768.243 94.0067 772.277 92.36C776.394 90.631 780.881 89.7665 785.739 89.7665C790.02 89.7665 794.013 90.5898 797.718 92.2365C801.423 93.8832 804.634 96.1473 807.351 99.029C810.068 101.828 812.127 105.204 813.526 109.156C815.008 113.026 815.708 117.266 815.626 121.877L815.502 127.187H762.768L759.927 116.813H802.782L800.806 118.913V116.196C800.559 113.643 799.735 111.42 798.336 109.527C796.936 107.551 795.125 106.027 792.902 104.957C790.761 103.804 788.373 103.228 785.739 103.228C781.704 103.228 778.288 104.01 775.488 105.575C772.771 107.139 770.713 109.403 769.313 112.367C767.914 115.249 767.214 118.871 767.214 123.235C767.214 127.434 768.078 131.098 769.807 134.227C771.619 137.355 774.13 139.784 777.341 141.513C780.634 143.16 784.463 143.983 788.826 143.983C791.873 143.983 794.672 143.489 797.224 142.501C799.777 141.513 802.535 139.743 805.499 137.191L813.032 147.688C810.809 149.746 808.257 151.517 805.375 152.999C802.576 154.398 799.612 155.51 796.483 156.333C793.355 157.156 790.267 157.568 787.221 157.568ZM828.833 156.333V91.2485H843.776L844.023 104.34L841.553 105.328C842.294 103.187 843.406 101.211 844.888 99.3995C846.37 97.5058 848.14 95.9003 850.198 94.583C852.256 93.1833 854.438 92.113 856.744 91.372C859.049 90.5487 861.395 90.137 863.783 90.137C867.323 90.137 870.452 90.7133 873.169 91.866C875.968 92.9363 878.274 94.6653 880.085 97.053C881.979 99.4407 883.378 102.487 884.284 106.192L881.938 105.698L882.926 103.722C883.831 101.746 885.107 99.9758 886.754 98.4115C888.401 96.7648 890.253 95.324 892.312 94.089C894.37 92.7717 896.511 91.7837 898.734 91.125C901.039 90.4663 903.303 90.137 905.526 90.137C910.466 90.137 914.583 91.125 917.876 93.101C921.169 95.077 923.639 98.0822 925.286 102.117C926.933 106.151 927.756 111.132 927.756 117.06V156.333H912.442V118.048C912.442 114.755 911.989 112.038 911.084 109.897C910.26 107.756 908.943 106.192 907.132 105.204C905.403 104.134 903.221 103.599 900.586 103.599C898.528 103.599 896.552 103.969 894.658 104.71C892.847 105.369 891.282 106.357 889.965 107.674C888.648 108.909 887.619 110.35 886.878 111.997C886.137 113.643 885.766 115.455 885.766 117.431V156.333H870.452V117.925C870.452 114.796 869.999 112.202 869.094 110.144C868.188 108.003 866.871 106.398 865.142 105.328C863.413 104.175 861.313 103.599 858.843 103.599C856.785 103.599 854.85 103.969 853.039 104.71C851.227 105.369 849.663 106.316 848.346 107.551C847.028 108.786 845.999 110.226 845.258 111.873C844.517 113.52 844.147 115.331 844.147 117.307V156.333H828.833ZM946.349 156.333V91.2485H961.539V156.333H946.349ZM953.759 77.4165C950.712 77.4165 948.325 76.6755 946.596 75.1935C944.949 73.6292 944.126 71.4473 944.126 68.648C944.126 66.0133 944.99 63.8727 946.719 62.226C948.448 60.5793 950.795 59.756 953.759 59.756C956.887 59.756 959.275 60.5382 960.922 62.1025C962.651 63.5845 963.515 65.7663 963.515 68.648C963.515 71.2003 962.651 73.2998 960.922 74.9465C959.193 76.5932 956.805 77.4165 953.759 77.4165ZM1011.31 157.568C1004.47 157.568 998.421 156.127 993.151 153.246C987.964 150.364 983.889 146.453 980.925 141.513C978.043 136.491 976.602 130.769 976.602 124.347C976.602 119.242 977.426 114.59 979.072 110.391C980.719 106.192 982.983 102.569 985.865 99.523C988.829 96.3943 992.328 94.0067 996.362 92.36C1000.48 90.631 1004.97 89.7665 1009.82 89.7665C1014.11 89.7665 1018.1 90.5898 1021.8 92.2365C1025.51 93.8832 1028.72 96.1473 1031.44 99.029C1034.15 101.828 1036.21 105.204 1037.61 109.156C1039.09 113.026 1039.79 117.266 1039.71 121.877L1039.59 127.187H986.853L984.012 116.813H1026.87L1024.89 118.913V116.196C1024.64 113.643 1023.82 111.42 1022.42 109.527C1021.02 107.551 1019.21 106.027 1016.99 104.957C1014.85 103.804 1012.46 103.228 1009.82 103.228C1005.79 103.228 1002.37 104.01 999.573 105.575C996.856 107.139 994.798 109.403 993.398 112.367C991.999 115.249 991.299 118.871 991.299 123.235C991.299 127.434 992.163 131.098 993.892 134.227C995.704 137.355 998.215 139.784 1001.43 141.513C1004.72 143.16 1008.55 143.983 1012.91 143.983C1015.96 143.983 1018.76 143.489 1021.31 142.501C1023.86 141.513 1026.62 139.743 1029.58 137.191L1037.12 147.688C1034.89 149.746 1032.34 151.517 1029.46 152.999C1026.66 154.398 1023.7 155.51 1020.57 156.333C1017.44 157.156 1014.35 157.568 1011.31 157.568ZM1053.16 156.333V91.2485H1068.11L1068.35 111.997L1066.26 107.304C1067.16 104.01 1068.73 101.046 1070.95 98.4115C1073.17 95.7768 1075.72 93.7185 1078.61 92.2365C1081.57 90.6722 1084.66 89.89 1087.87 89.89C1089.27 89.89 1090.58 90.0135 1091.82 90.2605C1093.14 90.5075 1094.21 90.7957 1095.03 91.125L1090.96 107.798C1090.05 107.304 1088.94 106.892 1087.62 106.563C1086.3 106.233 1084.99 106.069 1083.67 106.069C1081.61 106.069 1079.63 106.48 1077.74 107.304C1075.93 108.045 1074.32 109.115 1072.92 110.515C1071.52 111.914 1070.41 113.561 1069.59 115.455C1068.85 117.266 1068.48 119.324 1068.48 121.63V156.333H1053.16ZM1132.88 157.568C1126.04 157.568 1119.99 156.127 1114.72 153.246C1109.53 150.364 1105.46 146.453 1102.49 141.513C1099.61 136.491 1098.17 130.769 1098.17 124.347C1098.17 119.242 1099 114.59 1100.64 110.391C1102.29 106.192 1104.55 102.569 1107.43 99.523C1110.4 96.3943 1113.9 94.0067 1117.93 92.36C1122.05 90.631 1126.54 89.7665 1131.39 89.7665C1135.68 89.7665 1139.67 90.5898 1143.37 92.2365C1147.08 93.8832 1150.29 96.1473 1153.01 99.029C1155.72 101.828 1157.78 105.204 1159.18 109.156C1160.66 113.026 1161.36 117.266 1161.28 121.877L1161.16 127.187H1108.42L1105.58 116.813H1148.44L1146.46 118.913V116.196C1146.21 113.643 1145.39 111.42 1143.99 109.527C1142.59 107.551 1140.78 106.027 1138.56 104.957C1136.42 103.804 1134.03 103.228 1131.39 103.228C1127.36 103.228 1123.94 104.01 1121.14 105.575C1118.43 107.139 1116.37 109.403 1114.97 112.367C1113.57 115.249 1112.87 118.871 1112.87 123.235C1112.87 127.434 1113.73 131.098 1115.46 134.227C1117.27 137.355 1119.78 139.784 1123 141.513C1126.29 143.16 1130.12 143.983 1134.48 143.983C1137.53 143.983 1140.33 143.489 1142.88 142.501C1145.43 141.513 1148.19 139.743 1151.15 137.191L1158.69 147.688C1156.46 149.746 1153.91 151.517 1151.03 152.999C1148.23 154.398 1145.27 155.51 1142.14 156.333C1139.01 157.156 1135.92 157.568 1132.88 157.568Z" fill="#EAECF1"/>
<path d="M631.269 306.503V214.002H648.188L648.682 228.698L645.471 227.587C646.047 224.952 647.447 222.523 649.67 220.3C651.975 218.077 654.816 216.266 658.192 214.866C661.567 213.466 665.108 212.767 668.813 212.767C674.494 212.767 679.516 214.249 683.88 217.213C688.326 220.094 691.825 224.087 694.377 229.192C697.012 234.214 698.329 240.019 698.329 246.606C698.329 253.11 697.053 258.914 694.501 264.019C691.948 269.124 688.449 273.158 684.003 276.122C679.557 279.004 674.494 280.445 668.813 280.445C665.025 280.445 661.403 279.745 657.945 278.345C654.569 276.863 651.687 274.928 649.3 272.541C646.912 270.153 645.43 267.601 644.854 264.884L648.929 263.155V306.503H631.269ZM664.861 265.378C668.072 265.378 670.912 264.595 673.382 263.031C675.852 261.467 677.787 259.285 679.187 256.486C680.586 253.604 681.286 250.311 681.286 246.606C681.286 242.901 680.586 239.648 679.187 236.849C677.787 234.05 675.852 231.868 673.382 230.304C670.994 228.739 668.154 227.957 664.861 227.957C661.567 227.957 658.686 228.739 656.216 230.304C653.746 231.786 651.811 233.967 650.411 236.849C649.011 239.648 648.312 242.901 648.312 246.606C648.312 250.311 649.011 253.604 650.411 256.486C651.811 259.285 653.746 261.467 656.216 263.031C658.686 264.595 661.567 265.378 664.861 265.378ZM711.592 279.333V214.002H728.511L729.129 234.997L726.165 230.674C727.153 227.298 728.758 224.252 730.981 221.535C733.204 218.736 735.798 216.554 738.762 214.99C741.808 213.425 744.978 212.643 748.271 212.643C749.671 212.643 751.029 212.767 752.347 213.014C753.664 213.261 754.776 213.549 755.681 213.878L750.988 233.144C750 232.65 748.806 232.238 747.407 231.909C746.007 231.497 744.566 231.292 743.084 231.292C741.108 231.292 739.256 231.662 737.527 232.403C735.88 233.062 734.439 234.05 733.204 235.367C731.969 236.602 730.981 238.084 730.24 239.813C729.582 241.542 729.252 243.436 729.252 245.494V279.333H711.592ZM793.968 280.568C786.888 280.568 780.713 279.127 775.443 276.246C770.174 273.364 766.057 269.412 763.093 264.39C760.129 259.367 758.647 253.604 758.647 247.1C758.647 242.077 759.471 237.467 761.117 233.268C762.764 229.069 765.069 225.446 768.033 222.4C770.997 219.271 774.496 216.883 778.531 215.237C782.647 213.508 787.093 212.643 791.869 212.643C796.315 212.643 800.431 213.466 804.219 215.113C808.006 216.677 811.258 218.942 813.975 221.906C816.775 224.787 818.915 228.204 820.397 232.156C821.879 236.108 822.538 240.431 822.373 245.124L822.25 250.558H769.762L766.922 239.813H807.8L805.824 242.036V239.319C805.66 237.096 804.919 235.079 803.601 233.268C802.366 231.456 800.761 230.057 798.785 229.069C796.809 228.081 794.586 227.587 792.116 227.587C788.493 227.587 785.406 228.286 782.853 229.686C780.383 231.086 778.49 233.144 777.172 235.861C775.855 238.578 775.196 241.871 775.196 245.741C775.196 249.693 776.02 253.11 777.666 255.992C779.395 258.873 781.783 261.137 784.829 262.784C787.958 264.348 791.622 265.131 795.821 265.131C798.702 265.131 801.337 264.678 803.725 263.772C806.112 262.866 808.665 261.302 811.382 259.079L819.78 270.812C817.392 272.952 814.757 274.764 811.876 276.246C808.994 277.645 806.03 278.716 802.984 279.457C799.937 280.198 796.932 280.568 793.968 280.568ZM835.209 279.333V214.002H852.129L852.499 226.475L849.906 226.969C850.812 224.828 852.005 222.894 853.487 221.165C854.969 219.436 856.698 217.954 858.674 216.719C860.733 215.484 862.873 214.537 865.096 213.878C867.319 213.137 869.542 212.767 871.765 212.767C875.141 212.767 878.187 213.302 880.904 214.372C883.621 215.442 885.927 217.13 887.82 219.436C889.714 221.659 891.196 224.623 892.266 228.328L889.549 228.081L890.414 226.105C891.484 224.129 892.843 222.358 894.489 220.794C896.136 219.147 897.989 217.748 900.047 216.595C902.105 215.36 904.246 214.413 906.469 213.755C908.692 213.096 910.874 212.767 913.014 212.767C918.119 212.767 922.359 213.796 925.735 215.854C929.111 217.83 931.622 220.835 933.268 224.87C934.997 228.904 935.862 233.844 935.862 239.69V279.333H918.325V240.925C918.325 237.961 917.913 235.532 917.09 233.638C916.267 231.744 915.073 230.345 913.508 229.439C911.944 228.451 909.927 227.957 907.457 227.957C905.563 227.957 903.793 228.286 902.146 228.945C900.582 229.521 899.182 230.386 897.947 231.539C896.795 232.609 895.889 233.885 895.23 235.367C894.572 236.849 894.242 238.496 894.242 240.307V279.333H876.705V240.801C876.705 238.084 876.253 235.779 875.347 233.885C874.524 231.909 873.33 230.427 871.765 229.439C870.201 228.451 868.266 227.957 865.961 227.957C864.067 227.957 862.297 228.286 860.65 228.945C859.086 229.521 857.728 230.386 856.575 231.539C855.422 232.609 854.475 233.885 853.734 235.367C853.076 236.849 852.746 238.455 852.746 240.184V279.333H835.209ZM954.043 279.333V214.002H971.58V279.333H954.043ZM962.688 200.54C959.313 200.54 956.678 199.717 954.784 198.07C952.891 196.423 951.944 194.077 951.944 191.031C951.944 188.231 952.891 185.967 954.784 184.238C956.76 182.427 959.395 181.521 962.688 181.521C966.064 181.521 968.699 182.386 970.592 184.115C972.486 185.761 973.433 188.067 973.433 191.031C973.433 193.912 972.445 196.218 970.469 197.947C968.575 199.676 965.982 200.54 962.688 200.54ZM1021.31 280.568C1014.23 280.568 1008.05 279.127 1002.78 276.246C997.515 273.364 993.398 269.412 990.434 264.39C987.47 259.367 985.988 253.604 985.988 247.1C985.988 242.077 986.812 237.467 988.458 233.268C990.105 229.069 992.41 225.446 995.374 222.4C998.338 219.271 1001.84 216.883 1005.87 215.237C1009.99 213.508 1014.43 212.643 1019.21 212.643C1023.66 212.643 1027.77 213.466 1031.56 215.113C1035.35 216.677 1038.6 218.942 1041.32 221.906C1044.12 224.787 1046.26 228.204 1047.74 232.156C1049.22 236.108 1049.88 240.431 1049.71 245.124L1049.59 250.558H997.103L994.263 239.813H1035.14L1033.17 242.036V239.319C1033 237.096 1032.26 235.079 1030.94 233.268C1029.71 231.456 1028.1 230.057 1026.13 229.069C1024.15 228.081 1021.93 227.587 1019.46 227.587C1015.83 227.587 1012.75 228.286 1010.19 229.686C1007.72 231.086 1005.83 233.144 1004.51 235.861C1003.2 238.578 1002.54 241.871 1002.54 245.741C1002.54 249.693 1003.36 253.11 1005.01 255.992C1006.74 258.873 1009.12 261.137 1012.17 262.784C1015.3 264.348 1018.96 265.131 1023.16 265.131C1026.04 265.131 1028.68 264.678 1031.07 263.772C1033.45 262.866 1036.01 261.302 1038.72 259.079L1047.12 270.812C1044.73 272.952 1042.1 274.764 1039.22 276.246C1036.34 277.645 1033.37 278.716 1030.32 279.457C1027.28 280.198 1024.27 280.568 1021.31 280.568ZM1062.67 279.333V214.002H1079.59L1080.21 234.997L1077.25 230.674C1078.24 227.298 1079.84 224.252 1082.06 221.535C1084.29 218.736 1086.88 216.554 1089.84 214.99C1092.89 213.425 1096.06 212.643 1099.35 212.643C1100.75 212.643 1102.11 212.767 1103.43 213.014C1104.75 213.261 1105.86 213.549 1106.76 213.878L1102.07 233.144C1101.08 232.65 1099.89 232.238 1098.49 231.909C1097.09 231.497 1095.65 231.292 1094.17 231.292C1092.19 231.292 1090.34 231.662 1088.61 232.403C1086.96 233.062 1085.52 234.05 1084.29 235.367C1083.05 236.602 1082.06 238.084 1081.32 239.813C1080.66 241.542 1080.33 243.436 1080.33 245.494V279.333H1062.67ZM1145.05 280.568C1137.97 280.568 1131.8 279.127 1126.53 276.246C1121.26 273.364 1117.14 269.412 1114.18 264.39C1111.21 259.367 1109.73 253.604 1109.73 247.1C1109.73 242.077 1110.55 237.467 1112.2 233.268C1113.85 229.069 1116.15 225.446 1119.12 222.4C1122.08 219.271 1125.58 216.883 1129.61 215.237C1133.73 213.508 1138.18 212.643 1142.95 212.643C1147.4 212.643 1151.51 213.466 1155.3 215.113C1159.09 216.677 1162.34 218.942 1165.06 221.906C1167.86 224.787 1170 228.204 1171.48 232.156C1172.96 236.108 1173.62 240.431 1173.46 245.124L1173.33 250.558H1120.84L1118 239.813H1158.88L1156.91 242.036V239.319C1156.74 237.096 1156 235.079 1154.68 233.268C1153.45 231.456 1151.84 230.057 1149.87 229.069C1147.89 228.081 1145.67 227.587 1143.2 227.587C1139.58 227.587 1136.49 228.286 1133.94 229.686C1131.47 231.086 1129.57 233.144 1128.25 235.861C1126.94 238.578 1126.28 241.871 1126.28 245.741C1126.28 249.693 1127.1 253.11 1128.75 255.992C1130.48 258.873 1132.87 261.137 1135.91 262.784C1139.04 264.348 1142.7 265.131 1146.9 265.131C1149.78 265.131 1152.42 264.678 1154.81 263.772C1157.19 262.866 1159.75 261.302 1162.46 259.079L1170.86 270.812C1168.47 272.952 1165.84 274.764 1162.96 276.246C1160.08 277.645 1157.11 278.716 1154.07 279.457C1151.02 280.198 1148.01 280.568 1145.05 280.568Z" fill="#EAECF1"/>
<path d="M625.269 432.503V339.755H644.041L644.782 354.451L641.077 353.34C641.653 350.623 643.053 348.153 645.276 345.93C647.499 343.707 650.298 341.936 653.674 340.619C657.132 339.219 660.754 338.52 664.542 338.52C670.14 338.52 675.121 340.002 679.485 342.966C683.849 345.847 687.266 349.84 689.736 354.945C692.288 359.967 693.564 365.813 693.564 372.482C693.564 379.069 692.288 384.914 689.736 390.019C687.266 395.124 683.808 399.158 679.362 402.122C674.998 405.004 669.976 406.445 664.295 406.445C660.59 406.445 657.049 405.745 653.674 404.345C650.298 402.945 647.457 401.052 645.152 398.664C642.847 396.276 641.324 393.683 640.583 390.884L645.152 389.155V432.503H625.269ZM659.478 389.772C662.442 389.772 665.036 389.072 667.259 387.673C669.482 386.191 671.211 384.173 672.446 381.621C673.681 379.069 674.298 376.022 674.298 372.482C674.298 369.024 673.681 366.019 672.446 363.467C671.211 360.832 669.482 358.815 667.259 357.415C665.118 355.933 662.524 355.192 659.478 355.192C656.432 355.192 653.797 355.892 651.574 357.292C649.351 358.691 647.622 360.708 646.387 363.343C645.152 365.978 644.535 369.024 644.535 372.482C644.535 376.022 645.152 379.069 646.387 381.621C647.622 384.173 649.351 386.191 651.574 387.673C653.797 389.072 656.432 389.772 659.478 389.772ZM706.677 405.333V339.755H725.449L726.314 361.12L722.609 357.045C723.597 353.504 725.202 350.334 727.425 347.535C729.731 344.736 732.406 342.513 735.453 340.866C738.499 339.219 741.751 338.396 745.209 338.396C746.691 338.396 748.05 338.52 749.285 338.767C750.602 339.014 751.796 339.302 752.866 339.631L747.432 361.491C746.527 360.914 745.292 360.461 743.727 360.132C742.245 359.72 740.681 359.515 739.034 359.515C737.223 359.515 735.535 359.844 733.971 360.503C732.406 361.079 731.089 361.943 730.019 363.096C728.948 364.249 728.084 365.607 727.425 367.172C726.849 368.736 726.561 370.506 726.561 372.482V405.333H706.677ZM791.351 406.568C784.106 406.568 777.807 405.127 772.455 402.246C767.104 399.282 762.946 395.288 759.982 390.266C757.018 385.161 755.536 379.357 755.536 372.853C755.536 367.83 756.359 363.22 758.006 359.021C759.653 354.822 761.958 351.199 764.922 348.153C767.886 345.024 771.385 342.636 775.419 340.99C779.536 339.261 784.023 338.396 788.881 338.396C793.492 338.396 797.691 339.219 801.478 340.866C805.348 342.513 808.682 344.818 811.481 347.782C814.281 350.746 816.421 354.245 817.903 358.28C819.385 362.314 820.044 366.719 819.879 371.494L819.756 376.805H767.515L764.675 365.69H803.701L801.601 368.036V365.566C801.437 363.508 800.778 361.696 799.625 360.132C798.555 358.485 797.114 357.209 795.303 356.304C793.492 355.398 791.433 354.945 789.128 354.945C785.917 354.945 783.159 355.604 780.853 356.921C778.63 358.156 776.943 360.009 775.79 362.479C774.637 364.866 774.061 367.83 774.061 371.371C774.061 374.993 774.802 378.163 776.284 380.88C777.848 383.515 780.071 385.573 782.953 387.055C785.917 388.537 789.416 389.278 793.45 389.278C796.25 389.278 798.72 388.866 800.86 388.043C803.083 387.22 805.471 385.82 808.023 383.844L817.286 396.935C814.734 399.158 812.017 400.969 809.135 402.369C806.253 403.769 803.289 404.798 800.243 405.457C797.279 406.198 794.315 406.568 791.351 406.568ZM832.345 405.333V339.755H851.117L851.735 351.611L849.141 351.734C850.129 349.593 851.364 347.7 852.846 346.053C854.411 344.406 856.14 343.048 858.033 341.978C860.009 340.825 862.026 339.96 864.085 339.384C866.225 338.808 868.366 338.52 870.507 338.52C873.718 338.52 876.641 339.014 879.275 340.002C881.91 340.99 884.215 342.595 886.191 344.818C888.167 346.959 889.732 349.882 890.884 353.587L887.797 353.34L888.785 351.364C889.855 349.388 891.214 347.617 892.86 346.053C894.589 344.406 896.483 343.048 898.541 341.978C900.6 340.825 902.74 339.96 904.963 339.384C907.186 338.808 909.327 338.52 911.385 338.52C916.572 338.52 920.895 339.549 924.353 341.607C927.811 343.583 930.404 346.588 932.133 350.623C933.945 354.657 934.85 359.556 934.85 365.319V405.333H914.967V366.925C914.967 364.29 914.596 362.108 913.855 360.379C913.114 358.65 912.003 357.374 910.521 356.551C909.121 355.645 907.351 355.192 905.21 355.192C903.481 355.192 901.876 355.48 900.394 356.057C898.994 356.633 897.759 357.415 896.689 358.403C895.701 359.391 894.919 360.544 894.342 361.861C893.766 363.178 893.478 364.66 893.478 366.307V405.333H873.594V366.801C873.594 364.331 873.224 362.232 872.483 360.503C871.742 358.774 870.63 357.456 869.148 356.551C867.666 355.645 865.937 355.192 863.961 355.192C862.232 355.192 860.627 355.48 859.145 356.057C857.745 356.633 856.51 357.415 855.44 358.403C854.452 359.391 853.67 360.544 853.093 361.861C852.517 363.178 852.229 364.619 852.229 366.184V405.333H832.345ZM952.377 405.333V339.755H972.137V405.333H952.377ZM962.257 326.787C958.552 326.787 955.629 325.923 953.488 324.194C951.43 322.382 950.401 319.83 950.401 316.537C950.401 313.573 951.471 311.144 953.612 309.25C955.752 307.356 958.634 306.41 962.257 306.41C965.962 306.41 968.843 307.315 970.902 309.127C972.96 310.856 973.989 313.326 973.989 316.537C973.989 319.583 972.919 322.053 970.778 323.947C968.72 325.84 965.879 326.787 962.257 326.787ZM1021.95 406.568C1014.7 406.568 1008.4 405.127 1003.05 402.246C997.701 399.282 993.544 395.288 990.58 390.266C987.616 385.161 986.134 379.357 986.134 372.853C986.134 367.83 986.957 363.22 988.604 359.021C990.25 354.822 992.556 351.199 995.52 348.153C998.484 345.024 1001.98 342.636 1006.02 340.99C1010.13 339.261 1014.62 338.396 1019.48 338.396C1024.09 338.396 1028.29 339.219 1032.08 340.866C1035.95 342.513 1039.28 344.818 1042.08 347.782C1044.88 350.746 1047.02 354.245 1048.5 358.28C1049.98 362.314 1050.64 366.719 1050.48 371.494L1050.35 376.805H998.113L995.273 365.69H1034.3L1032.2 368.036V365.566C1032.03 363.508 1031.38 361.696 1030.22 360.132C1029.15 358.485 1027.71 357.209 1025.9 356.304C1024.09 355.398 1022.03 354.945 1019.73 354.945C1016.51 354.945 1013.76 355.604 1011.45 356.921C1009.23 358.156 1007.54 360.009 1006.39 362.479C1005.23 364.866 1004.66 367.83 1004.66 371.371C1004.66 374.993 1005.4 378.163 1006.88 380.88C1008.45 383.515 1010.67 385.573 1013.55 387.055C1016.51 388.537 1020.01 389.278 1024.05 389.278C1026.85 389.278 1029.32 388.866 1031.46 388.043C1033.68 387.22 1036.07 385.82 1038.62 383.844L1047.88 396.935C1045.33 399.158 1042.61 400.969 1039.73 402.369C1036.85 403.769 1033.89 404.798 1030.84 405.457C1027.88 406.198 1024.91 406.568 1021.95 406.568ZM1063.07 405.333V339.755H1081.84L1082.7 361.12L1079 357.045C1079.99 353.504 1081.59 350.334 1083.81 347.535C1086.12 344.736 1088.8 342.513 1091.84 340.866C1094.89 339.219 1098.14 338.396 1101.6 338.396C1103.08 338.396 1104.44 338.52 1105.67 338.767C1106.99 339.014 1108.19 339.302 1109.26 339.631L1103.82 361.491C1102.92 360.914 1101.68 360.461 1100.12 360.132C1098.63 359.72 1097.07 359.515 1095.42 359.515C1093.61 359.515 1091.92 359.844 1090.36 360.503C1088.8 361.079 1087.48 361.943 1086.41 363.096C1085.34 364.249 1084.47 365.607 1083.81 367.172C1083.24 368.736 1082.95 370.506 1082.95 372.482V405.333H1063.07ZM1147.74 406.568C1140.49 406.568 1134.2 405.127 1128.84 402.246C1123.49 399.282 1119.34 395.288 1116.37 390.266C1113.41 385.161 1111.93 379.357 1111.93 372.853C1111.93 367.83 1112.75 363.22 1114.4 359.021C1116.04 354.822 1118.35 351.199 1121.31 348.153C1124.28 345.024 1127.77 342.636 1131.81 340.99C1135.93 339.261 1140.41 338.396 1145.27 338.396C1149.88 338.396 1154.08 339.219 1157.87 340.866C1161.74 342.513 1165.07 344.818 1167.87 347.782C1170.67 350.746 1172.81 354.245 1174.29 358.28C1175.77 362.314 1176.43 366.719 1176.27 371.494L1176.15 376.805H1123.9L1121.06 365.69H1160.09L1157.99 368.036V365.566C1157.83 363.508 1157.17 361.696 1156.01 360.132C1154.94 358.485 1153.5 357.209 1151.69 356.304C1149.88 355.398 1147.82 354.945 1145.52 354.945C1142.31 354.945 1139.55 355.604 1137.24 356.921C1135.02 358.156 1133.33 360.009 1132.18 362.479C1131.03 364.866 1130.45 367.83 1130.45 371.371C1130.45 374.993 1131.19 378.163 1132.67 380.88C1134.24 383.515 1136.46 385.573 1139.34 387.055C1142.31 388.537 1145.81 389.278 1149.84 389.278C1152.64 389.278 1155.11 388.866 1157.25 388.043C1159.47 387.22 1161.86 385.82 1164.41 383.844L1173.68 396.935C1171.12 399.158 1168.41 400.969 1165.52 402.369C1162.64 403.769 1159.68 404.798 1156.63 405.457C1153.67 406.198 1150.7 406.568 1147.74 406.568Z" fill="#EAECF1"/>
<path d="M625.145 562.503V469.508H646.634L647.746 484.081L643.3 482.969C643.794 480.17 645.152 477.659 647.375 475.436C649.68 473.213 652.521 471.442 655.897 470.125C659.272 468.808 662.936 468.149 666.888 468.149C672.404 468.149 677.303 469.631 681.585 472.595C685.866 475.477 689.242 479.47 691.712 484.575C694.182 489.679 695.417 495.607 695.417 502.359C695.417 508.945 694.182 514.832 691.712 520.019C689.242 525.124 685.825 529.158 681.461 532.122C677.097 535.004 672.116 536.445 666.518 536.445C662.813 536.445 659.272 535.786 655.897 534.469C652.603 533.069 649.804 531.216 647.499 528.911C645.276 526.523 643.835 523.848 643.176 520.884L648.363 519.155V562.503H625.145ZM660.343 517.549C662.977 517.549 665.241 516.932 667.135 515.697C669.029 514.462 670.47 512.733 671.458 510.51C672.446 508.204 672.94 505.487 672.94 502.359C672.94 499.148 672.446 496.431 671.458 494.208C670.47 491.902 669.029 490.132 667.135 488.897C665.241 487.662 662.977 487.045 660.343 487.045C657.708 487.045 655.444 487.662 653.55 488.897C651.656 490.05 650.216 491.779 649.228 494.084C648.24 496.389 647.746 499.148 647.746 502.359C647.746 505.487 648.24 508.204 649.228 510.51C650.216 512.733 651.656 514.462 653.55 515.697C655.444 516.932 657.708 517.549 660.343 517.549ZM708.001 535.333V469.508H729.49L730.725 491.12L725.908 487.415C726.979 483.792 728.625 480.54 730.848 477.659C733.154 474.695 735.912 472.389 739.123 470.743C742.334 469.014 745.71 468.149 749.25 468.149C750.732 468.149 752.132 468.273 753.449 468.52C754.766 468.684 756.001 468.931 757.154 469.261L750.855 494.702C749.95 494.125 748.674 493.631 747.027 493.22C745.38 492.726 743.61 492.479 741.716 492.479C740.07 492.479 738.588 492.767 737.27 493.343C735.953 493.837 734.842 494.578 733.936 495.566C733.03 496.554 732.33 497.748 731.836 499.148C731.342 500.465 731.095 502.029 731.095 503.841V535.333H708.001ZM795.943 536.568C788.45 536.568 781.987 535.127 776.553 532.246C771.119 529.282 766.92 525.247 763.956 520.143C760.992 514.956 759.51 509.069 759.51 502.482C759.51 497.542 760.333 492.973 761.98 488.774C763.627 484.575 765.932 480.952 768.896 477.906C771.86 474.777 775.359 472.389 779.394 470.743C783.51 469.014 787.997 468.149 792.855 468.149C797.63 468.149 801.953 468.972 805.823 470.619C809.775 472.266 813.15 474.612 815.95 477.659C818.831 480.705 821.013 484.286 822.495 488.403C824.059 492.52 824.759 497.048 824.595 501.988L824.471 507.175H772.601L769.761 495.69H806.07L803.847 498.16V495.813C803.847 494.002 803.353 492.437 802.365 491.12C801.459 489.72 800.224 488.65 798.66 487.909C797.095 487.168 795.325 486.798 793.349 486.798C790.55 486.798 788.203 487.374 786.31 488.527C784.498 489.597 783.099 491.161 782.111 493.22C781.123 495.278 780.629 497.748 780.629 500.63C780.629 503.923 781.287 506.763 782.605 509.151C784.004 511.539 786.021 513.391 788.656 514.709C791.373 516.026 794.666 516.685 798.536 516.685C801.088 516.685 803.311 516.355 805.205 515.697C807.181 515.038 809.281 513.885 811.504 512.239L822.125 527.182C819.243 529.487 816.32 531.34 813.356 532.74C810.474 534.057 807.593 535.004 804.711 535.58C801.829 536.239 798.907 536.568 795.943 536.568ZM836.566 535.333V469.508H858.055L858.92 480.376L856.079 479.882C857.232 477.741 858.591 475.93 860.155 474.448C861.719 472.966 863.448 471.772 865.342 470.866C867.236 469.878 869.17 469.178 871.146 468.767C873.122 468.355 875.016 468.149 876.827 468.149C879.874 468.149 882.673 468.602 885.225 469.508C887.86 470.331 890.165 471.772 892.141 473.83C894.2 475.888 895.888 478.77 897.205 482.475L893.623 482.228L894.611 480.499C895.846 478.358 897.287 476.547 898.934 475.065C900.663 473.583 902.557 472.307 904.615 471.237C906.673 470.166 908.773 469.384 910.913 468.89C913.136 468.396 915.236 468.149 917.212 468.149C922.564 468.149 927.051 469.178 930.673 471.237C934.296 473.295 937.013 476.341 938.824 480.376C940.636 484.328 941.541 489.185 941.541 494.949V535.333H918.57V496.801C918.57 494.66 918.241 492.89 917.582 491.491C916.924 490.009 915.977 488.897 914.742 488.156C913.507 487.415 911.984 487.045 910.172 487.045C908.773 487.045 907.455 487.292 906.22 487.786C905.068 488.197 904.08 488.856 903.256 489.762C902.433 490.585 901.774 491.532 901.28 492.602C900.786 493.59 900.539 494.784 900.539 496.184V535.333H877.568V496.678C877.568 494.619 877.239 492.89 876.58 491.491C875.922 490.091 874.975 489.021 873.74 488.28C872.505 487.456 870.982 487.045 869.17 487.045C867.771 487.045 866.453 487.292 865.218 487.786C864.066 488.197 863.078 488.815 862.254 489.638C861.431 490.461 860.772 491.408 860.278 492.479C859.784 493.549 859.537 494.743 859.537 496.06V535.333H836.566ZM958.516 535.333V469.508H981.487V535.333H958.516ZM970.001 457.034C965.802 457.034 962.55 456.087 960.245 454.194C957.94 452.218 956.787 449.459 956.787 445.919C956.787 442.626 957.94 439.95 960.245 437.892C962.633 435.751 965.885 434.681 970.001 434.681C974.118 434.681 977.329 435.669 979.634 437.645C982.022 439.538 983.216 442.296 983.216 445.919C983.216 449.212 982.022 451.888 979.634 453.947C977.247 456.005 974.036 457.034 970.001 457.034ZM1031.24 536.568C1023.75 536.568 1017.29 535.127 1011.85 532.246C1006.42 529.282 1002.22 525.247 999.257 520.143C996.293 514.956 994.811 509.069 994.811 502.482C994.811 497.542 995.635 492.973 997.281 488.774C998.928 484.575 1001.23 480.952 1004.2 477.906C1007.16 474.777 1010.66 472.389 1014.69 470.743C1018.81 469.014 1023.3 468.149 1028.16 468.149C1032.93 468.149 1037.25 468.972 1041.12 470.619C1045.08 472.266 1048.45 474.612 1051.25 477.659C1054.13 480.705 1056.31 484.286 1057.8 488.403C1059.36 492.52 1060.06 497.048 1059.9 501.988L1059.77 507.175H1007.9L1005.06 495.69H1041.37L1039.15 498.16V495.813C1039.15 494.002 1038.65 492.437 1037.67 491.12C1036.76 489.72 1035.53 488.65 1033.96 487.909C1032.4 487.168 1030.63 486.798 1028.65 486.798C1025.85 486.798 1023.5 487.374 1021.61 488.527C1019.8 489.597 1018.4 491.161 1017.41 493.22C1016.42 495.278 1015.93 497.748 1015.93 500.63C1015.93 503.923 1016.59 506.763 1017.91 509.151C1019.31 511.539 1021.32 513.391 1023.96 514.709C1026.67 516.026 1029.97 516.685 1033.84 516.685C1036.39 516.685 1038.61 516.355 1040.51 515.697C1042.48 515.038 1044.58 513.885 1046.8 512.239L1057.43 527.182C1054.54 529.487 1051.62 531.34 1048.66 532.74C1045.78 534.057 1042.89 535.004 1040.01 535.58C1037.13 536.239 1034.21 536.568 1031.24 536.568ZM1071.87 535.333V469.508H1093.36L1094.59 491.12L1089.78 487.415C1090.85 483.792 1092.49 480.54 1094.72 477.659C1097.02 474.695 1099.78 472.389 1102.99 470.743C1106.2 469.014 1109.58 468.149 1113.12 468.149C1114.6 468.149 1116 468.273 1117.32 468.52C1118.63 468.684 1119.87 468.931 1121.02 469.261L1114.72 494.702C1113.82 494.125 1112.54 493.631 1110.89 493.22C1109.25 492.726 1107.48 492.479 1105.58 492.479C1103.94 492.479 1102.45 492.767 1101.14 493.343C1099.82 493.837 1098.71 494.578 1097.8 495.566C1096.9 496.554 1096.2 497.748 1095.7 499.148C1095.21 500.465 1094.96 502.029 1094.96 503.841V535.333H1071.87ZM1159.81 536.568C1152.32 536.568 1145.85 535.127 1140.42 532.246C1134.99 529.282 1130.79 525.247 1127.82 520.143C1124.86 514.956 1123.38 509.069 1123.38 502.482C1123.38 497.542 1124.2 492.973 1125.85 488.774C1127.49 484.575 1129.8 480.952 1132.76 477.906C1135.73 474.777 1139.23 472.389 1143.26 470.743C1147.38 469.014 1151.86 468.149 1156.72 468.149C1161.5 468.149 1165.82 468.972 1169.69 470.619C1173.64 472.266 1177.02 474.612 1179.82 477.659C1182.7 480.705 1184.88 484.286 1186.36 488.403C1187.93 492.52 1188.63 497.048 1188.46 501.988L1188.34 507.175H1136.47L1133.63 495.69H1169.94L1167.71 498.16V495.813C1167.71 494.002 1167.22 492.437 1166.23 491.12C1165.33 489.72 1164.09 488.65 1162.53 487.909C1160.96 487.168 1159.19 486.798 1157.22 486.798C1154.42 486.798 1152.07 487.374 1150.18 488.527C1148.36 489.597 1146.97 491.161 1145.98 493.22C1144.99 495.278 1144.5 497.748 1144.5 500.63C1144.5 503.923 1145.15 506.763 1146.47 509.151C1147.87 511.539 1149.89 513.391 1152.52 514.709C1155.24 516.026 1158.53 516.685 1162.4 516.685C1164.96 516.685 1167.18 516.355 1169.07 515.697C1171.05 515.038 1173.15 513.885 1175.37 512.239L1185.99 527.182C1183.11 529.487 1180.19 531.34 1177.22 532.74C1174.34 534.057 1171.46 535.004 1168.58 535.58C1165.7 536.239 1162.77 536.568 1159.81 536.568Z" fill="#EAECF1"/>
</svg>
