<svg width="596" height="274" viewBox="0 0 596 274" fill="none" xmlns="http://www.w3.org/2000/svg">
<path d="M49.7 193V88H65.9V177.4H115.1V193H49.7ZM169.415 194.5C161.315 194.5 154.115 192.8 147.815 189.4C141.615 185.9 136.715 181.15 133.115 175.15C129.615 169.15 127.865 162.25 127.865 154.45C127.865 148.25 128.865 142.6 130.865 137.5C132.865 132.4 135.615 128 139.115 124.3C142.715 120.5 146.965 117.6 151.865 115.6C156.865 113.5 162.265 112.45 168.065 112.45C173.165 112.45 177.915 113.45 182.315 115.45C186.715 117.35 190.515 120 193.715 123.4C197.015 126.8 199.515 130.85 201.215 135.55C203.015 140.15 203.865 145.2 203.765 150.7L203.615 157.3H139.265L135.815 145H190.265L188.015 147.55V143.95C187.715 140.65 186.615 137.7 184.715 135.1C182.815 132.5 180.415 130.45 177.515 128.95C174.615 127.45 171.465 126.7 168.065 126.7C162.665 126.7 158.115 127.75 154.415 129.85C150.715 131.85 147.915 134.85 146.015 138.85C144.115 142.75 143.165 147.6 143.165 153.4C143.165 158.9 144.315 163.7 146.615 167.8C148.915 171.8 152.165 174.9 156.365 177.1C160.565 179.3 165.415 180.4 170.915 180.4C174.815 180.4 178.415 179.75 181.715 178.45C185.115 177.15 188.765 174.8 192.665 171.4L200.465 182.35C198.065 184.75 195.115 186.85 191.615 188.65C188.215 190.45 184.565 191.9 180.665 193C176.865 194 173.115 194.5 169.415 194.5ZM272.466 193L246.966 159.85L244.716 157L211.566 114.25H231.066L256.116 146.95L258.666 150.25L291.366 193H272.466ZM211.716 193L242.766 152.5L251.916 163.45L230.016 193H211.716ZM259.566 154.9L251.016 144.1L270.366 114.25H288.666L259.566 154.9ZM336.554 194.5C328.454 194.5 321.254 192.8 314.954 189.4C308.754 185.9 303.854 181.15 300.254 175.15C296.754 169.15 295.004 162.25 295.004 154.45C295.004 148.25 296.004 142.6 298.004 137.5C300.004 132.4 302.754 128 306.254 124.3C309.854 120.5 314.104 117.6 319.004 115.6C324.004 113.5 329.404 112.45 335.204 112.45C340.304 112.45 345.054 113.45 349.454 115.45C353.854 117.35 357.654 120 360.854 123.4C364.154 126.8 366.654 130.85 368.354 135.55C370.154 140.15 371.004 145.2 370.904 150.7L370.754 157.3H306.404L302.954 145H357.404L355.154 147.55V143.95C354.854 140.65 353.754 137.7 351.854 135.1C349.954 132.5 347.554 130.45 344.654 128.95C341.754 127.45 338.604 126.7 335.204 126.7C329.804 126.7 325.254 127.75 321.554 129.85C317.854 131.85 315.054 134.85 313.154 138.85C311.254 142.75 310.304 147.6 310.304 153.4C310.304 158.9 311.454 163.7 313.754 167.8C316.054 171.8 319.304 174.9 323.504 177.1C327.704 179.3 332.554 180.4 338.054 180.4C341.954 180.4 345.554 179.75 348.854 178.45C352.254 177.15 355.904 174.8 359.804 171.4L367.604 182.35C365.204 184.75 362.254 186.85 358.754 188.65C355.354 190.45 351.704 191.9 347.804 193C344.004 194 340.254 194.5 336.554 194.5ZM387.695 193V114.25H403.145V130.45L400.445 132.25C401.445 128.75 403.395 125.55 406.295 122.65C409.195 119.65 412.645 117.25 416.645 115.45C420.645 113.55 424.745 112.6 428.945 112.6C434.945 112.6 439.945 113.8 443.945 116.2C447.945 118.5 450.945 122.05 452.945 126.85C454.945 131.65 455.945 137.7 455.945 145V193H440.495V146.05C440.495 141.55 439.895 137.85 438.695 134.95C437.495 131.95 435.645 129.8 433.145 128.5C430.645 127.1 427.545 126.5 423.845 126.7C420.845 126.7 418.095 127.2 415.595 128.2C413.095 129.1 410.895 130.4 408.995 132.1C407.195 133.8 405.745 135.8 404.645 138.1C403.645 140.3 403.145 142.7 403.145 145.3V193H395.495C394.195 193 392.895 193 391.595 193C390.295 193 388.995 193 387.695 193ZM509.754 194.5C502.554 194.5 496.104 192.75 490.404 189.25C484.804 185.65 480.354 180.8 477.054 174.7C473.754 168.5 472.104 161.45 472.104 153.55C472.104 145.65 473.704 138.65 476.904 132.55C480.204 126.35 484.654 121.5 490.254 118C495.854 114.4 502.204 112.6 509.304 112.6C513.204 112.6 516.954 113.25 520.554 114.55C524.254 115.75 527.554 117.45 530.454 119.65C533.354 121.75 535.604 124.1 537.204 126.7C538.904 129.2 539.754 131.75 539.754 134.35L535.254 134.65V82H550.704V193H535.254V174.25H538.254C538.254 176.65 537.454 179.05 535.854 181.45C534.254 183.75 532.104 185.9 529.404 187.9C526.804 189.9 523.754 191.5 520.254 192.7C516.854 193.9 513.354 194.5 509.754 194.5ZM511.854 181.15C516.554 181.15 520.704 179.95 524.304 177.55C527.904 175.15 530.704 171.9 532.704 167.8C534.804 163.6 535.854 158.85 535.854 153.55C535.854 148.25 534.804 143.55 532.704 139.45C530.704 135.25 527.904 131.95 524.304 129.55C520.704 127.15 516.554 125.95 511.854 125.95C507.154 125.95 503.004 127.15 499.404 129.55C495.804 131.95 492.954 135.25 490.854 139.45C488.854 143.55 487.854 148.25 487.854 153.55C487.854 158.85 488.854 163.6 490.854 167.8C492.954 171.9 495.804 175.15 499.404 177.55C503.004 179.95 507.154 181.15 511.854 181.15Z" fill="#0C5674"/>
</svg>
