<svg width="1241" height="686" viewBox="0 0 1241 686" fill="none" xmlns="http://www.w3.org/2000/svg">
<g clip-path="url(#clip0_1695_3895)">
<path d="M76.03 228V150.52H50.55V137H116.33V150.52H90.07V228H76.03ZM130.262 228V131.8H143.652V173.79L141.312 175.35C142.179 172.317 143.869 169.543 146.382 167.03C148.896 164.43 151.886 162.35 155.352 160.79C158.819 159.143 162.372 158.32 166.012 158.32C171.212 158.32 175.546 159.36 179.012 161.44C182.479 163.433 185.079 166.51 186.812 170.67C188.546 174.83 189.412 180.073 189.412 186.4V228H176.022V187.31C176.022 183.41 175.502 180.203 174.462 177.69C173.422 175.09 171.819 173.227 169.652 172.1C167.486 170.887 164.799 170.367 161.592 170.54C158.992 170.54 156.609 170.973 154.442 171.84C152.276 172.62 150.369 173.747 148.722 175.22C147.162 176.693 145.906 178.427 144.952 180.42C144.086 182.327 143.652 184.407 143.652 186.66V228H137.022C135.896 228 134.769 228 133.642 228C132.516 228 131.389 228 130.262 228ZM239.427 229.3C232.407 229.3 226.167 227.827 220.707 224.88C215.333 221.847 211.087 217.73 207.967 212.53C204.933 207.33 203.417 201.35 203.417 194.59C203.417 189.217 204.283 184.32 206.017 179.9C207.75 175.48 210.133 171.667 213.167 168.46C216.287 165.167 219.97 162.653 224.217 160.92C228.55 159.1 233.23 158.19 238.257 158.19C242.677 158.19 246.793 159.057 250.607 160.79C254.42 162.437 257.713 164.733 260.487 167.68C263.347 170.627 265.513 174.137 266.987 178.21C268.547 182.197 269.283 186.573 269.197 191.34L269.067 197.06H213.297L210.307 186.4H257.497L255.547 188.61V185.49C255.287 182.63 254.333 180.073 252.687 177.82C251.04 175.567 248.96 173.79 246.447 172.49C243.933 171.19 241.203 170.54 238.257 170.54C233.577 170.54 229.633 171.45 226.427 173.27C223.22 175.003 220.793 177.603 219.147 181.07C217.5 184.45 216.677 188.653 216.677 193.68C216.677 198.447 217.673 202.607 219.667 206.16C221.66 209.627 224.477 212.313 228.117 214.22C231.757 216.127 235.96 217.08 240.727 217.08C244.107 217.08 247.227 216.517 250.087 215.39C253.033 214.263 256.197 212.227 259.577 209.28L266.337 218.77C264.257 220.85 261.7 222.67 258.667 224.23C255.72 225.79 252.557 227.047 249.177 228C245.883 228.867 242.633 229.3 239.427 229.3ZM369.974 256.6V211.75H372.574C372.574 213.83 371.881 215.91 370.494 217.99C369.108 219.983 367.244 221.847 364.904 223.58C362.564 225.313 359.964 226.7 357.104 227.74C354.244 228.78 351.298 229.3 348.264 229.3C342.111 229.3 336.608 227.783 331.754 224.75C326.901 221.63 323.044 217.427 320.184 212.14C317.411 206.767 316.024 200.657 316.024 193.81C316.024 186.963 317.411 180.897 320.184 175.61C322.958 170.237 326.728 166.033 331.494 163C336.348 159.88 341.808 158.32 347.874 158.32C351.254 158.32 354.461 158.883 357.494 160.01C360.614 161.137 363.388 162.61 365.814 164.43C368.328 166.25 370.278 168.287 371.664 170.54C373.138 172.707 373.874 174.917 373.874 177.17L369.974 177.43V159.62H383.364V256.6H369.974ZM349.694 216.95C353.768 216.95 357.364 215.953 360.484 213.96C363.604 211.967 366.031 209.237 367.764 205.77C369.584 202.303 370.494 198.317 370.494 193.81C370.494 189.303 369.584 185.317 367.764 181.85C366.031 178.297 363.604 175.523 360.484 173.53C357.364 171.537 353.768 170.54 349.694 170.54C345.621 170.54 342.024 171.58 338.904 173.66C335.784 175.653 333.314 178.427 331.494 181.98C329.761 185.447 328.894 189.39 328.894 193.81C328.894 198.23 329.761 202.217 331.494 205.77C333.314 209.237 335.784 211.967 338.904 213.96C342.024 215.953 345.621 216.95 349.694 216.95ZM425.989 229.3C421.136 229.3 416.889 228.173 413.249 225.92C409.696 223.667 406.922 220.503 404.929 216.43C403.022 212.357 402.069 207.503 402.069 201.87V159.75H415.459V198.23C415.459 202.217 416.066 205.683 417.279 208.63C418.579 211.49 420.399 213.7 422.739 215.26C425.166 216.82 428.069 217.6 431.449 217.6C433.962 217.6 436.259 217.21 438.339 216.43C440.419 215.563 442.196 214.393 443.669 212.92C445.229 211.447 446.442 209.67 447.309 207.59C448.176 205.51 448.609 203.257 448.609 200.83V159.75H461.999V228H448.609V213.7L450.949 212.14C449.909 215.347 448.132 218.25 445.619 220.85C443.192 223.45 440.289 225.53 436.909 227.09C433.529 228.563 429.889 229.3 425.989 229.3ZM482.99 228V159.75H496.38V228H482.99ZM489.49 144.67C486.63 144.67 484.42 143.933 482.86 142.46C481.3 140.987 480.52 138.907 480.52 136.22C480.52 133.707 481.3 131.67 482.86 130.11C484.507 128.55 486.717 127.77 489.49 127.77C492.35 127.77 494.56 128.507 496.12 129.98C497.68 131.453 498.46 133.533 498.46 136.22C498.46 138.733 497.637 140.77 495.99 142.33C494.43 143.89 492.263 144.67 489.49 144.67ZM545.952 229.3C539.625 229.3 533.948 227.74 528.922 224.62C523.982 221.5 520.038 217.253 517.092 211.88C514.232 206.507 512.802 200.483 512.802 193.81C512.802 187.137 514.232 181.113 517.092 175.74C520.038 170.367 523.982 166.12 528.922 163C533.948 159.88 539.625 158.32 545.952 158.32C552.018 158.32 557.522 159.577 562.462 162.09C567.488 164.517 571.302 167.853 573.902 172.1L566.492 181.2C565.105 179.207 563.328 177.387 561.162 175.74C558.995 174.093 556.698 172.793 554.272 171.84C551.845 170.887 549.505 170.41 547.252 170.41C543.092 170.41 539.365 171.45 536.072 173.53C532.865 175.523 530.308 178.297 528.402 181.85C526.495 185.403 525.542 189.39 525.542 193.81C525.542 198.23 526.538 202.217 528.532 205.77C530.525 209.237 533.168 212.01 536.462 214.09C539.755 216.17 543.395 217.21 547.382 217.21C549.722 217.21 551.975 216.82 554.142 216.04C556.395 215.26 558.562 214.09 560.642 212.53C562.722 210.97 564.672 209.063 566.492 206.81L573.902 215.91C571.128 219.81 567.142 223.017 561.942 225.53C556.828 228.043 551.498 229.3 545.952 229.3ZM598.752 206.68L598.102 192.12L630.732 159.75H648.802L598.752 206.68ZM586.532 228V131.8H599.922V228H586.532ZM632.552 228L606.812 197.97L616.302 189.26L649.712 228H632.552ZM732.734 229.3C729.787 229.3 726.841 228.823 723.894 227.87C721.034 226.917 718.391 225.66 715.964 224.1C713.624 222.453 711.631 220.677 709.984 218.77C708.424 216.777 707.384 214.783 706.864 212.79L710.244 210.97V227.61H696.854V131.8H710.244V175.35L708.164 174.18C708.597 172.187 709.551 170.28 711.024 168.46C712.497 166.553 714.361 164.863 716.614 163.39C718.954 161.83 721.467 160.617 724.154 159.75C726.841 158.797 729.571 158.32 732.344 158.32C738.497 158.32 743.957 159.837 748.724 162.87C753.491 165.903 757.261 170.107 760.034 175.48C762.807 180.767 764.194 186.833 764.194 193.68C764.194 200.527 762.807 206.637 760.034 212.01C757.347 217.383 753.621 221.63 748.854 224.75C744.087 227.783 738.714 229.3 732.734 229.3ZM730.524 217.08C734.511 217.08 738.064 216.083 741.184 214.09C744.304 212.01 746.774 209.237 748.594 205.77C750.414 202.217 751.324 198.187 751.324 193.68C751.324 189.26 750.414 185.317 748.594 181.85C746.861 178.297 744.434 175.523 741.314 173.53C738.194 171.537 734.597 170.54 730.524 170.54C726.451 170.54 722.854 171.537 719.734 173.53C716.614 175.523 714.144 178.297 712.324 181.85C710.504 185.317 709.594 189.26 709.594 193.68C709.594 198.187 710.504 202.217 712.324 205.77C714.144 209.237 716.614 212.01 719.734 214.09C722.854 216.083 726.451 217.08 730.524 217.08ZM778.739 228V159.75H792.259V181.2L790.959 176C791.912 172.707 793.516 169.717 795.769 167.03C798.109 164.343 800.752 162.22 803.699 160.66C806.732 159.1 809.852 158.32 813.059 158.32C814.532 158.32 815.919 158.45 817.219 158.71C818.606 158.97 819.689 159.273 820.469 159.62L816.959 174.18C815.919 173.747 814.749 173.4 813.449 173.14C812.236 172.793 811.022 172.62 809.809 172.62C807.469 172.62 805.216 173.097 803.049 174.05C800.969 174.917 799.106 176.173 797.459 177.82C795.899 179.38 794.642 181.243 793.689 183.41C792.736 185.49 792.259 187.787 792.259 190.3V228H778.739ZM858.931 229.3C852.257 229.3 846.277 227.783 840.991 224.75C835.791 221.63 831.674 217.427 828.641 212.14C825.607 206.767 824.091 200.657 824.091 193.81C824.091 186.963 825.607 180.897 828.641 175.61C831.674 170.237 835.791 166.033 840.991 163C846.277 159.88 852.257 158.32 858.931 158.32C865.517 158.32 871.411 159.88 876.611 163C881.897 166.033 886.057 170.237 889.091 175.61C892.124 180.897 893.641 186.963 893.641 193.81C893.641 200.657 892.124 206.767 889.091 212.14C886.057 217.427 881.897 221.63 876.611 224.75C871.411 227.783 865.517 229.3 858.931 229.3ZM858.931 217.08C863.004 217.08 866.644 216.083 869.851 214.09C873.057 212.01 875.571 209.237 877.391 205.77C879.211 202.217 880.077 198.23 879.991 193.81C880.077 189.303 879.211 185.317 877.391 181.85C875.571 178.297 873.057 175.523 869.851 173.53C866.644 171.537 863.004 170.54 858.931 170.54C854.857 170.54 851.174 171.58 847.881 173.66C844.674 175.653 842.161 178.427 840.341 181.98C838.521 185.447 837.654 189.39 837.741 193.81C837.654 198.23 838.521 202.217 840.341 205.77C842.161 209.237 844.674 212.01 847.881 214.09C851.174 216.083 854.857 217.08 858.931 217.08ZM922.462 228L899.192 159.75L912.712 159.62L929.352 210.71L926.362 210.45L944.432 170.54H952.492L970.692 210.58L967.182 210.84L983.952 159.75H997.472L974.462 228H965.232L946.252 184.58L949.242 184.97L931.562 228H922.462ZM1009.67 228V159.75H1023.06V173.79L1020.72 175.35C1021.58 172.317 1023.27 169.543 1025.79 167.03C1028.3 164.43 1031.29 162.35 1034.76 160.79C1038.22 159.143 1041.78 158.32 1045.42 158.32C1050.62 158.32 1054.95 159.36 1058.42 161.44C1061.88 163.433 1064.48 166.51 1066.22 170.67C1067.95 174.83 1068.82 180.073 1068.82 186.4V228H1055.43V187.31C1055.43 183.41 1054.91 180.203 1053.87 177.69C1052.83 175.09 1051.22 173.227 1049.06 172.1C1046.89 170.887 1044.2 170.367 1041 170.54C1038.4 170.54 1036.01 170.973 1033.85 171.84C1031.68 172.62 1029.77 173.747 1028.13 175.22C1026.57 176.693 1025.31 178.427 1024.36 180.42C1023.49 182.327 1023.06 184.407 1023.06 186.66V228H1016.43C1015.3 228 1014.17 228 1013.05 228C1011.92 228 1010.79 228 1009.67 228ZM62.77 391V315.08C62.77 311.18 63.6367 307.713 65.37 304.68C67.1033 301.647 69.4867 299.263 72.52 297.53C75.5533 295.797 79.0633 294.93 83.05 294.93C85.8233 294.93 88.4233 295.45 90.85 296.49C93.2767 297.53 95.2267 298.917 96.7 300.65L92.15 310.92C91.0233 309.88 89.7667 309.057 88.38 308.45C87.08 307.757 85.8233 307.41 84.61 307.41C82.79 307.41 81.23 307.713 79.93 308.32C78.7167 308.84 77.8067 309.707 77.2 310.92C76.5933 312.047 76.29 313.433 76.29 315.08V391H69.53C68.4033 391 67.2767 391 66.15 391C65.0233 391 63.8967 391 62.77 391ZM51.85 336.27V323.92H92.41V336.27H51.85ZM134.536 392.3C127.863 392.3 121.883 390.783 116.596 387.75C111.396 384.63 107.279 380.427 104.246 375.14C101.213 369.767 99.6961 363.657 99.6961 356.81C99.6961 349.963 101.213 343.897 104.246 338.61C107.279 333.237 111.396 329.033 116.596 326C121.883 322.88 127.863 321.32 134.536 321.32C141.123 321.32 147.016 322.88 152.216 326C157.503 329.033 161.663 333.237 164.696 338.61C167.729 343.897 169.246 349.963 169.246 356.81C169.246 363.657 167.729 369.767 164.696 375.14C161.663 380.427 157.503 384.63 152.216 387.75C147.016 390.783 141.123 392.3 134.536 392.3ZM134.536 380.08C138.609 380.08 142.249 379.083 145.456 377.09C148.663 375.01 151.176 372.237 152.996 368.77C154.816 365.217 155.683 361.23 155.596 356.81C155.683 352.303 154.816 348.317 152.996 344.85C151.176 341.297 148.663 338.523 145.456 336.53C142.249 334.537 138.609 333.54 134.536 333.54C130.463 333.54 126.779 334.58 123.486 336.66C120.279 338.653 117.766 341.427 115.946 344.98C114.126 348.447 113.259 352.39 113.346 356.81C113.259 361.23 114.126 365.217 115.946 368.77C117.766 372.237 120.279 375.01 123.486 377.09C126.779 379.083 130.463 380.08 134.536 380.08ZM226.668 391L204.568 362.27L202.618 359.8L173.888 322.75H190.788L212.498 351.09L214.708 353.95L243.048 391H226.668ZM174.018 391L200.928 355.9L208.858 365.39L189.878 391H174.018ZM215.488 357.98L208.078 348.62L224.848 322.75H240.708L215.488 357.98ZM282.541 416.61L277.471 406.34C280.851 406.34 283.624 405.733 285.791 404.52C288.044 403.393 289.734 401.66 290.861 399.32C291.988 397.067 292.551 394.25 292.551 390.87V322.75H305.941V394.12C305.941 398.54 304.944 402.44 302.951 405.82C301.044 409.2 298.314 411.843 294.761 413.75C291.294 415.657 287.221 416.61 282.541 416.61ZM299.571 307.67C296.711 307.67 294.501 306.933 292.941 305.46C291.381 303.987 290.601 301.907 290.601 299.22C290.601 296.707 291.381 294.67 292.941 293.11C294.588 291.55 296.798 290.77 299.571 290.77C302.431 290.77 304.641 291.507 306.201 292.98C307.761 294.453 308.541 296.533 308.541 299.22C308.541 301.733 307.718 303.77 306.071 305.33C304.511 306.89 302.344 307.67 299.571 307.67ZM349.055 392.3C344.202 392.3 339.955 391.173 336.315 388.92C332.762 386.667 329.989 383.503 327.995 379.43C326.089 375.357 325.135 370.503 325.135 364.87V322.75H338.525V361.23C338.525 365.217 339.132 368.683 340.345 371.63C341.645 374.49 343.465 376.7 345.805 378.26C348.232 379.82 351.135 380.6 354.515 380.6C357.029 380.6 359.325 380.21 361.405 379.43C363.485 378.563 365.262 377.393 366.735 375.92C368.295 374.447 369.509 372.67 370.375 370.59C371.242 368.51 371.675 366.257 371.675 363.83V322.75H385.065V391H371.675V376.7L374.015 375.14C372.975 378.347 371.199 381.25 368.685 383.85C366.259 386.45 363.355 388.53 359.975 390.09C356.595 391.563 352.955 392.3 349.055 392.3ZM403.586 391V322.75H417.106V337.31L414.636 338.87C415.33 336.617 416.413 334.45 417.886 332.37C419.446 330.29 421.31 328.47 423.476 326.91C425.73 325.263 428.113 323.963 430.626 323.01C433.226 322.057 435.87 321.58 438.556 321.58C442.456 321.58 445.88 322.23 448.826 323.53C451.773 324.83 454.2 326.78 456.106 329.38C458.013 331.98 459.4 335.23 460.266 339.13L458.186 338.61L459.096 336.4C460.05 334.407 461.35 332.543 462.996 330.81C464.73 328.99 466.68 327.387 468.846 326C471.013 324.613 473.31 323.53 475.736 322.75C478.163 321.97 480.546 321.58 482.886 321.58C488 321.58 492.203 322.62 495.496 324.7C498.876 326.78 501.39 329.943 503.036 334.19C504.77 338.437 505.636 343.723 505.636 350.05V391H492.116V350.83C492.116 346.93 491.596 343.767 490.556 341.34C489.603 338.827 488.13 336.963 486.136 335.75C484.143 334.537 481.586 333.93 478.466 333.93C476.04 333.93 473.743 334.363 471.576 335.23C469.496 336.01 467.676 337.137 466.116 338.61C464.556 340.083 463.343 341.817 462.476 343.81C461.61 345.717 461.176 347.84 461.176 350.18V391H447.656V350.57C447.656 347.017 447.136 344.027 446.096 341.6C445.056 339.087 443.54 337.18 441.546 335.88C439.553 334.58 437.126 333.93 434.266 333.93C431.84 333.93 429.586 334.363 427.506 335.23C425.426 336.01 423.606 337.137 422.046 338.61C420.486 339.997 419.273 341.687 418.406 343.68C417.54 345.587 417.106 347.667 417.106 349.92V391H403.586ZM523.563 419.6V322.75H537.083V338.35L535.003 337.18C535.523 334.58 536.996 332.11 539.423 329.77C541.85 327.343 544.796 325.393 548.263 323.92C551.816 322.36 555.456 321.58 559.183 321.58C565.336 321.58 570.796 323.097 575.563 326.13C580.33 329.163 584.1 333.323 586.873 338.61C589.646 343.897 591.033 349.963 591.033 356.81C591.033 363.57 589.646 369.637 586.873 375.01C584.186 380.297 580.46 384.5 575.693 387.62C570.926 390.653 565.553 392.17 559.573 392.17C555.586 392.17 551.73 391.39 548.003 389.83C544.276 388.183 541.113 386.103 538.513 383.59C535.913 381.077 534.31 378.477 533.703 375.79L537.083 373.97V419.6H523.563ZM557.363 379.82C561.35 379.82 564.903 378.823 568.023 376.83C571.143 374.837 573.613 372.107 575.433 368.64C577.253 365.173 578.163 361.23 578.163 356.81C578.163 352.39 577.253 348.49 575.433 345.11C573.7 341.643 571.273 338.913 568.153 336.92C565.033 334.927 561.436 333.93 557.363 333.93C553.29 333.93 549.693 334.927 546.573 336.92C543.453 338.827 540.983 341.513 539.163 344.98C537.343 348.447 536.433 352.39 536.433 356.81C536.433 361.23 537.343 365.173 539.163 368.64C540.983 372.107 543.453 374.837 546.573 376.83C549.693 378.823 553.29 379.82 557.363 379.82ZM628.325 392.3C622.605 392.3 617.448 391.303 612.855 389.31C608.262 387.317 604.448 384.37 601.415 380.47L610.515 372.67C613.115 375.703 615.932 377.913 618.965 379.3C622.085 380.6 625.595 381.25 629.495 381.25C631.055 381.25 632.485 381.077 633.785 380.73C635.172 380.297 636.342 379.69 637.295 378.91C638.335 378.13 639.115 377.22 639.635 376.18C640.155 375.053 640.415 373.84 640.415 372.54C640.415 370.287 639.592 368.467 637.945 367.08C637.078 366.473 635.692 365.823 633.785 365.13C631.965 364.35 629.582 363.57 626.635 362.79C621.608 361.49 617.492 360.017 614.285 358.37C611.078 356.723 608.608 354.86 606.875 352.78C605.575 351.133 604.622 349.357 604.015 347.45C603.408 345.457 603.105 343.29 603.105 340.95C603.105 338.09 603.712 335.49 604.925 333.15C606.225 330.723 607.958 328.643 610.125 326.91C612.378 325.09 614.978 323.703 617.925 322.75C620.958 321.797 624.165 321.32 627.545 321.32C630.752 321.32 633.915 321.753 637.035 322.62C640.242 323.487 643.188 324.743 645.875 326.39C648.562 328.037 650.815 329.987 652.635 332.24L644.965 340.69C643.318 339.043 641.498 337.613 639.505 336.4C637.598 335.1 635.648 334.103 633.655 333.41C631.662 332.717 629.842 332.37 628.195 332.37C626.375 332.37 624.728 332.543 623.255 332.89C621.782 333.237 620.525 333.757 619.485 334.45C618.532 335.143 617.795 336.01 617.275 337.05C616.755 338.09 616.495 339.26 616.495 340.56C616.582 341.687 616.842 342.77 617.275 343.81C617.795 344.763 618.488 345.587 619.355 346.28C620.308 346.973 621.738 347.71 623.645 348.49C625.552 349.27 627.978 350.007 630.925 350.7C635.258 351.827 638.812 353.083 641.585 354.47C644.445 355.77 646.698 357.287 648.345 359.02C650.078 360.667 651.292 362.573 651.985 364.74C652.678 366.907 653.025 369.333 653.025 372.02C653.025 375.92 651.898 379.43 649.645 382.55C647.478 385.583 644.532 387.967 640.805 389.7C637.078 391.433 632.918 392.3 628.325 392.3ZM734.897 392.3C728.224 392.3 722.244 390.783 716.957 387.75C711.757 384.63 707.641 380.427 704.607 375.14C701.574 369.767 700.057 363.657 700.057 356.81C700.057 349.963 701.574 343.897 704.607 338.61C707.641 333.237 711.757 329.033 716.957 326C722.244 322.88 728.224 321.32 734.897 321.32C741.484 321.32 747.377 322.88 752.577 326C757.864 329.033 762.024 333.237 765.057 338.61C768.091 343.897 769.607 349.963 769.607 356.81C769.607 363.657 768.091 369.767 765.057 375.14C762.024 380.427 757.864 384.63 752.577 387.75C747.377 390.783 741.484 392.3 734.897 392.3ZM734.897 380.08C738.971 380.08 742.611 379.083 745.817 377.09C749.024 375.01 751.537 372.237 753.357 368.77C755.177 365.217 756.044 361.23 755.957 356.81C756.044 352.303 755.177 348.317 753.357 344.85C751.537 341.297 749.024 338.523 745.817 336.53C742.611 334.537 738.971 333.54 734.897 333.54C730.824 333.54 727.141 334.58 723.847 336.66C720.641 338.653 718.127 341.427 716.307 344.98C714.487 348.447 713.621 352.39 713.707 356.81C713.621 361.23 714.487 365.217 716.307 368.77C718.127 372.237 720.641 375.01 723.847 377.09C727.141 379.083 730.824 380.08 734.897 380.08ZM804.654 391L775.794 322.75H790.224L811.024 373.84L808.554 375.01L830.784 322.75H844.564L814.274 391H804.654ZM886.761 392.3C879.741 392.3 873.501 390.827 868.041 387.88C862.667 384.847 858.421 380.73 855.301 375.53C852.267 370.33 850.751 364.35 850.751 357.59C850.751 352.217 851.617 347.32 853.351 342.9C855.084 338.48 857.467 334.667 860.501 331.46C863.621 328.167 867.304 325.653 871.551 323.92C875.884 322.1 880.564 321.19 885.591 321.19C890.011 321.19 894.127 322.057 897.941 323.79C901.754 325.437 905.047 327.733 907.821 330.68C910.681 333.627 912.847 337.137 914.321 341.21C915.881 345.197 916.617 349.573 916.531 354.34L916.401 360.06H860.631L857.641 349.4H904.831L902.881 351.61V348.49C902.621 345.63 901.667 343.073 900.021 340.82C898.374 338.567 896.294 336.79 893.781 335.49C891.267 334.19 888.537 333.54 885.591 333.54C880.911 333.54 876.967 334.45 873.761 336.27C870.554 338.003 868.127 340.603 866.481 344.07C864.834 347.45 864.011 351.653 864.011 356.68C864.011 361.447 865.007 365.607 867.001 369.16C868.994 372.627 871.811 375.313 875.451 377.22C879.091 379.127 883.294 380.08 888.061 380.08C891.441 380.08 894.561 379.517 897.421 378.39C900.367 377.263 903.531 375.227 906.911 372.28L913.671 381.77C911.591 383.85 909.034 385.67 906.001 387.23C903.054 388.79 899.891 390.047 896.511 391C893.217 391.867 889.967 392.3 886.761 392.3ZM931.083 391V322.75H944.603V344.2L943.303 339C944.256 335.707 945.859 332.717 948.113 330.03C950.453 327.343 953.096 325.22 956.043 323.66C959.076 322.1 962.196 321.32 965.403 321.32C966.876 321.32 968.263 321.45 969.563 321.71C970.949 321.97 972.033 322.273 972.813 322.62L969.303 337.18C968.263 336.747 967.093 336.4 965.793 336.14C964.579 335.793 963.366 335.62 962.153 335.62C959.813 335.62 957.559 336.097 955.393 337.05C953.313 337.917 951.449 339.173 949.803 340.82C948.243 342.38 946.986 344.243 946.033 346.41C945.079 348.49 944.603 350.787 944.603 353.3V391H931.083ZM1028.4 391V305.33H1041.79V391H1028.4ZM1014.23 335.75V322.75H1057.65V335.75H1014.23ZM1069.84 391V294.8H1083.23V336.79L1080.89 338.35C1081.76 335.317 1083.45 332.543 1085.96 330.03C1088.48 327.43 1091.47 325.35 1094.93 323.79C1098.4 322.143 1101.95 321.32 1105.59 321.32C1110.79 321.32 1115.13 322.36 1118.59 324.44C1122.06 326.433 1124.66 329.51 1126.39 333.67C1128.13 337.83 1128.99 343.073 1128.99 349.4V391H1115.6V350.31C1115.6 346.41 1115.08 343.203 1114.04 340.69C1113 338.09 1111.4 336.227 1109.23 335.1C1107.07 333.887 1104.38 333.367 1101.17 333.54C1098.57 333.54 1096.19 333.973 1094.02 334.84C1091.86 335.62 1089.95 336.747 1088.3 338.22C1086.74 339.693 1085.49 341.427 1084.53 343.42C1083.67 345.327 1083.23 347.407 1083.23 349.66V391H1076.6C1075.48 391 1074.35 391 1073.22 391C1072.1 391 1070.97 391 1069.84 391ZM1179.01 392.3C1171.99 392.3 1165.75 390.827 1160.29 387.88C1154.91 384.847 1150.67 380.73 1147.55 375.53C1144.51 370.33 1143 364.35 1143 357.59C1143 352.217 1143.86 347.32 1145.6 342.9C1147.33 338.48 1149.71 334.667 1152.75 331.46C1155.87 328.167 1159.55 325.653 1163.8 323.92C1168.13 322.1 1172.81 321.19 1177.84 321.19C1182.26 321.19 1186.37 322.057 1190.19 323.79C1194 325.437 1197.29 327.733 1200.07 330.68C1202.93 333.627 1205.09 337.137 1206.57 341.21C1208.13 345.197 1208.86 349.573 1208.78 354.34L1208.65 360.06H1152.88L1149.89 349.4H1197.08L1195.13 351.61V348.49C1194.87 345.63 1193.91 343.073 1192.27 340.82C1190.62 338.567 1188.54 336.79 1186.03 335.49C1183.51 334.19 1180.78 333.54 1177.84 333.54C1173.16 333.54 1169.21 334.45 1166.01 336.27C1162.8 338.003 1160.37 340.603 1158.73 344.07C1157.08 347.45 1156.26 351.653 1156.26 356.68C1156.26 361.447 1157.25 365.607 1159.25 369.16C1161.24 372.627 1164.06 375.313 1167.7 377.22C1171.34 379.127 1175.54 380.08 1180.31 380.08C1183.69 380.08 1186.81 379.517 1189.67 378.39C1192.61 377.263 1195.78 375.227 1199.16 372.28L1205.92 381.77C1203.84 383.85 1201.28 385.67 1198.25 387.23C1195.3 388.79 1192.14 390.047 1188.76 391C1185.46 391.867 1182.21 392.3 1179.01 392.3ZM55.62 554V457.8H69.01V554H55.62ZM112.977 555.3C107.344 555.3 102.187 553.74 97.5074 550.62C92.9141 547.5 89.2308 543.253 86.4574 537.88C83.6841 532.507 82.2974 526.44 82.2974 519.68C82.2974 512.833 83.6841 506.767 86.4574 501.48C89.3174 496.107 93.1308 491.903 97.8974 488.87C102.751 485.837 108.167 484.32 114.147 484.32C117.701 484.32 120.951 484.84 123.897 485.88C126.844 486.92 129.401 488.393 131.567 490.3C133.821 492.12 135.641 494.243 137.027 496.67C138.501 499.097 139.411 501.697 139.757 504.47L136.767 503.43V485.75H150.287V554H136.767V537.75L139.887 536.84C139.367 539.18 138.284 541.477 136.637 543.73C135.077 545.897 133.041 547.847 130.527 549.58C128.101 551.313 125.371 552.7 122.337 553.74C119.391 554.78 116.271 555.3 112.977 555.3ZM116.487 542.95C120.561 542.95 124.157 541.953 127.277 539.96C130.397 537.967 132.824 535.237 134.557 531.77C136.377 528.217 137.287 524.187 137.287 519.68C137.287 515.26 136.377 511.317 134.557 507.85C132.824 504.383 130.397 501.653 127.277 499.66C124.157 497.667 120.561 496.67 116.487 496.67C112.501 496.67 108.947 497.667 105.827 499.66C102.794 501.653 100.367 504.383 98.5474 507.85C96.8141 511.317 95.9474 515.26 95.9474 519.68C95.9474 524.187 96.8141 528.217 98.5474 531.77C100.367 535.237 102.794 537.967 105.827 539.96C108.947 541.953 112.501 542.95 116.487 542.95ZM166.123 554V542.82L201.353 495.76V497.32H166.123V485.75H215.913V496.67L181.203 543.08L180.683 542.43H216.693V554H166.123ZM243.392 583.9L257.172 552.05L257.302 562.71L223.242 485.75H238.842L260.162 535.93C260.595 536.797 261.115 538.14 261.722 539.96C262.328 541.693 262.848 543.427 263.282 545.16L259.902 545.94C260.595 544.12 261.245 542.3 261.852 540.48C262.545 538.66 263.195 536.84 263.802 535.02L281.612 485.75H297.472L269.392 554L257.822 583.9H243.392ZM372.394 555.3C366.154 555.3 360.564 553.783 355.624 550.75C350.771 547.63 346.914 543.427 344.054 538.14C341.194 532.767 339.764 526.657 339.764 519.81C339.764 512.963 341.151 506.897 343.924 501.61C346.784 496.237 350.641 492.033 355.494 489C360.348 485.88 365.851 484.32 372.004 484.32C375.384 484.32 378.634 484.883 381.754 486.01C384.961 487.05 387.821 488.523 390.334 490.43C392.848 492.25 394.798 494.287 396.184 496.54C397.658 498.707 398.394 500.917 398.394 503.17L394.494 503.43V457.8H407.884V554H394.494V537.75H397.094C397.094 539.83 396.401 541.91 395.014 543.99C393.628 545.983 391.764 547.847 389.424 549.58C387.171 551.313 384.528 552.7 381.494 553.74C378.548 554.78 375.514 555.3 372.394 555.3ZM374.214 543.73C378.288 543.73 381.884 542.69 385.004 540.61C388.124 538.53 390.551 535.713 392.284 532.16C394.104 528.52 395.014 524.403 395.014 519.81C395.014 515.217 394.104 511.143 392.284 507.59C390.551 503.95 388.124 501.09 385.004 499.01C381.884 496.93 378.288 495.89 374.214 495.89C370.141 495.89 366.544 496.93 363.424 499.01C360.304 501.09 357.834 503.95 356.014 507.59C354.281 511.143 353.414 515.217 353.414 519.81C353.414 524.403 354.281 528.52 356.014 532.16C357.834 535.713 360.304 538.53 363.424 540.61C366.544 542.69 370.141 543.73 374.214 543.73ZM456.997 555.3C450.324 555.3 444.344 553.783 439.057 550.75C433.857 547.63 429.74 543.427 426.707 538.14C423.674 532.767 422.157 526.657 422.157 519.81C422.157 512.963 423.674 506.897 426.707 501.61C429.74 496.237 433.857 492.033 439.057 489C444.344 485.88 450.324 484.32 456.997 484.32C463.584 484.32 469.477 485.88 474.677 489C479.964 492.033 484.124 496.237 487.157 501.61C490.19 506.897 491.707 512.963 491.707 519.81C491.707 526.657 490.19 532.767 487.157 538.14C484.124 543.427 479.964 547.63 474.677 550.75C469.477 553.783 463.584 555.3 456.997 555.3ZM456.997 543.08C461.07 543.08 464.71 542.083 467.917 540.09C471.124 538.01 473.637 535.237 475.457 531.77C477.277 528.217 478.144 524.23 478.057 519.81C478.144 515.303 477.277 511.317 475.457 507.85C473.637 504.297 471.124 501.523 467.917 499.53C464.71 497.537 461.07 496.54 456.997 496.54C452.924 496.54 449.24 497.58 445.947 499.66C442.74 501.653 440.227 504.427 438.407 507.98C436.587 511.447 435.72 515.39 435.807 519.81C435.72 524.23 436.587 528.217 438.407 531.77C440.227 535.237 442.74 538.01 445.947 540.09C449.24 542.083 452.924 543.08 456.997 543.08ZM536.848 583.9C531.994 583.9 527.141 583.12 522.288 581.56C517.521 580.087 513.664 578.137 510.718 575.71L515.658 565.31C517.391 566.61 519.428 567.737 521.768 568.69C524.108 569.73 526.578 570.51 529.178 571.03C531.778 571.637 534.334 571.94 536.848 571.94C541.614 571.94 545.601 571.16 548.808 569.6C552.014 568.04 554.441 565.743 556.088 562.71C557.734 559.677 558.558 555.907 558.558 551.4V538.27L559.988 539.18C559.554 541.867 558.124 544.467 555.698 546.98C553.358 549.407 550.411 551.4 546.858 552.96C543.304 554.52 539.664 555.3 535.938 555.3C529.438 555.3 523.631 553.783 518.518 550.75C513.491 547.63 509.504 543.427 506.558 538.14C503.611 532.767 502.138 526.657 502.138 519.81C502.138 512.963 503.568 506.897 506.428 501.61C509.374 496.237 513.361 492.033 518.388 489C523.501 485.88 529.221 484.32 535.548 484.32C538.148 484.32 540.661 484.667 543.088 485.36C545.514 485.967 547.768 486.877 549.848 488.09C551.928 489.217 553.791 490.473 555.438 491.86C557.084 493.247 558.428 494.72 559.468 496.28C560.508 497.84 561.158 499.313 561.418 500.7L558.558 501.74V485.75H571.948V549.84C571.948 555.3 571.124 560.11 569.478 564.27C567.918 568.517 565.621 572.07 562.587 574.93C559.554 577.877 555.871 580.087 551.538 581.56C547.204 583.12 542.308 583.9 536.848 583.9ZM537.368 542.95C541.614 542.95 545.384 541.953 548.678 539.96C551.971 537.967 554.528 535.237 556.348 531.77C558.168 528.303 559.078 524.317 559.078 519.81C559.078 515.303 558.124 511.317 556.218 507.85C554.398 504.297 551.841 501.523 548.548 499.53C545.341 497.537 541.614 496.54 537.368 496.54C533.208 496.54 529.481 497.58 526.188 499.66C522.981 501.653 520.424 504.427 518.518 507.98C516.698 511.447 515.788 515.39 515.788 519.81C515.788 524.23 516.698 528.217 518.518 531.77C520.424 535.237 522.981 537.967 526.188 539.96C529.481 541.953 533.208 542.95 537.368 542.95ZM596.181 555.43C593.321 555.43 591.111 554.607 589.551 552.96C587.991 551.227 587.211 548.8 587.211 545.68C587.211 542.82 588.035 540.48 589.681 538.66C591.328 536.84 593.495 535.93 596.181 535.93C599.041 535.93 601.251 536.797 602.811 538.53C604.371 540.177 605.151 542.56 605.151 545.68C605.151 548.54 604.328 550.88 602.681 552.7C601.035 554.52 598.868 555.43 596.181 555.43Z" fill="#2B4570"/>
</g>
<defs>
<clipPath id="clip0_1695_3895">
<rect width="1241" height="686" fill="white"/>
</clipPath>
</defs>
</svg>
