<svg width="1241" height="270" viewBox="0 0 1241 270" fill="none" xmlns="http://www.w3.org/2000/svg">
<rect width="1241" height="270" fill="#71829F"/>
<path d="M117.754 182.352V92.7516H134.394V182.352H117.754ZM60.282 182.352V92.7516H76.922V182.352H60.282ZM67.194 145.488V129.872H125.818V145.488H67.194ZM181.188 183.632C175.641 183.632 170.607 182.096 166.084 179.024C161.561 175.952 157.935 171.77 155.204 166.48C152.473 161.189 151.108 155.173 151.108 148.432C151.108 141.69 152.473 135.674 155.204 130.384C157.935 125.093 161.647 120.954 166.34 117.968C171.033 114.981 176.324 113.488 182.212 113.488C185.625 113.488 188.74 114 191.556 115.024C194.372 115.962 196.847 117.328 198.98 119.12C201.113 120.912 202.863 122.96 204.228 125.264C205.679 127.568 206.66 130.042 207.172 132.688L203.716 131.792V114.896H219.588V182.352H203.588V166.224L207.3 165.584C206.703 167.888 205.593 170.149 203.972 172.368C202.436 174.501 200.473 176.421 198.084 178.128C195.78 179.749 193.177 181.072 190.276 182.096C187.46 183.12 184.431 183.632 181.188 183.632ZM185.54 169.68C189.209 169.68 192.452 168.784 195.268 166.992C198.084 165.2 200.26 162.725 201.796 159.568C203.417 156.325 204.228 152.613 204.228 148.432C204.228 144.336 203.417 140.709 201.796 137.552C200.26 134.394 198.084 131.92 195.268 130.128C192.452 128.336 189.209 127.44 185.54 127.44C181.871 127.44 178.628 128.336 175.812 130.128C173.081 131.92 170.948 134.394 169.412 137.552C167.876 140.709 167.108 144.336 167.108 148.432C167.108 152.613 167.876 156.325 169.412 159.568C170.948 162.725 173.081 165.2 175.812 166.992C178.628 168.784 181.871 169.68 185.54 169.68ZM237.585 182.352V114.896H253.073L253.329 128.464L250.769 129.488C251.537 127.269 252.689 125.221 254.225 123.344C255.761 121.381 257.596 119.717 259.729 118.352C261.862 116.901 264.124 115.792 266.513 115.024C268.902 114.17 271.334 113.744 273.809 113.744C277.478 113.744 280.721 114.341 283.537 115.536C286.438 116.645 288.828 118.437 290.705 120.912C292.668 123.386 294.118 126.544 295.057 130.384L292.625 129.872L293.649 127.824C294.588 125.776 295.91 123.941 297.617 122.32C299.324 120.613 301.244 119.12 303.377 117.84C305.51 116.474 307.729 115.45 310.033 114.768C312.422 114.085 314.769 113.744 317.073 113.744C322.193 113.744 326.46 114.768 329.873 116.816C333.286 118.864 335.846 121.978 337.553 126.16C339.26 130.341 340.113 135.504 340.113 141.648V182.352H324.241V142.672C324.241 139.258 323.772 136.442 322.833 134.224C321.98 132.005 320.614 130.384 318.737 129.36C316.945 128.25 314.684 127.696 311.953 127.696C309.82 127.696 307.772 128.08 305.809 128.848C303.932 129.53 302.31 130.554 300.945 131.92C299.58 133.2 298.513 134.693 297.745 136.4C296.977 138.106 296.593 139.984 296.593 142.032V182.352H280.721V142.544C280.721 139.301 280.252 136.613 279.313 134.48C278.374 132.261 277.009 130.597 275.217 129.488C273.425 128.293 271.249 127.696 268.689 127.696C266.556 127.696 264.55 128.08 262.673 128.848C260.796 129.53 259.174 130.512 257.809 131.792C256.444 133.072 255.377 134.565 254.609 136.272C253.841 137.978 253.457 139.856 253.457 141.904V182.352H237.585ZM394.839 183.632C391.852 183.632 388.908 183.205 386.007 182.352C383.191 181.413 380.631 180.176 378.327 178.64C376.023 177.104 374.103 175.397 372.567 173.52C371.031 171.557 370.007 169.594 369.495 167.632L373.207 165.968L372.823 182.096H357.591V87.6316H373.335V130.512L370.519 129.232C370.946 127.184 371.884 125.264 373.335 123.472C374.871 121.594 376.748 119.93 378.967 118.48C381.186 116.944 383.618 115.749 386.263 114.896C388.908 113.957 391.596 113.488 394.327 113.488C400.386 113.488 405.719 114.981 410.327 117.968C415.02 120.954 418.69 125.093 421.335 130.384C424.066 135.674 425.431 141.69 425.431 148.432C425.431 155.258 424.108 161.317 421.463 166.608C418.818 171.898 415.148 176.08 410.455 179.152C405.847 182.138 400.642 183.632 394.839 183.632ZM391.511 169.808C395.095 169.808 398.295 168.912 401.111 167.12C403.927 165.242 406.146 162.725 407.767 159.568C409.388 156.325 410.199 152.613 410.199 148.432C410.199 144.336 409.388 140.709 407.767 137.552C406.231 134.394 404.055 131.92 401.239 130.128C398.423 128.336 395.18 127.44 391.511 127.44C387.842 127.44 384.599 128.336 381.783 130.128C378.967 131.92 376.748 134.394 375.127 137.552C373.506 140.709 372.695 144.336 372.695 148.432C372.695 152.613 373.506 156.325 375.127 159.568C376.748 162.725 378.967 165.242 381.783 167.12C384.599 168.912 387.842 169.808 391.511 169.808ZM462.89 183.632C458.026 183.632 453.802 182.565 450.218 180.432C446.634 178.213 443.903 175.098 442.026 171.088C440.149 166.992 439.21 162.128 439.21 156.496V114.896H454.954V153.168C454.954 156.752 455.509 159.824 456.618 162.384C457.727 164.858 459.349 166.778 461.482 168.144C463.615 169.509 466.175 170.192 469.162 170.192C471.381 170.192 473.386 169.85 475.178 169.168C477.055 168.4 478.677 167.376 480.042 166.096C481.407 164.73 482.474 163.152 483.242 161.36C484.01 159.482 484.394 157.477 484.394 155.344V114.896H500.138V182.352H484.778L484.522 168.272L487.338 166.736C486.314 169.978 484.565 172.88 482.09 175.44C479.701 177.914 476.842 179.92 473.514 181.456C470.186 182.906 466.645 183.632 462.89 183.632ZM518.591 182.352V114.896H534.079L534.335 136.4L532.159 131.536C533.098 128.122 534.719 125.05 537.023 122.32C539.327 119.589 541.972 117.456 544.959 115.92C548.031 114.298 551.231 113.488 554.559 113.488C556.01 113.488 557.375 113.616 558.655 113.872C560.02 114.128 561.13 114.426 561.983 114.768L557.759 132.048C556.82 131.536 555.668 131.109 554.303 130.768C552.938 130.426 551.572 130.256 550.207 130.256C548.074 130.256 546.026 130.682 544.063 131.536C542.186 132.304 540.522 133.413 539.071 134.864C537.62 136.314 536.468 138.021 535.615 139.984C534.847 141.861 534.463 143.994 534.463 146.384V182.352H518.591ZM600.927 211.792C595.892 211.792 590.858 211.024 585.823 209.488C580.874 207.952 576.863 205.946 573.791 203.472L579.423 191.824C581.215 193.104 583.22 194.213 585.439 195.152C587.658 196.09 590.004 196.816 592.479 197.328C595.039 197.84 597.556 198.096 600.031 198.096C604.554 198.096 608.308 197.37 611.295 195.92C614.367 194.554 616.671 192.421 618.207 189.52C619.743 186.704 620.511 183.162 620.511 178.896V166.48L622.815 167.376C622.303 170.021 620.895 172.538 618.591 174.928C616.287 177.317 613.386 179.28 609.887 180.816C606.388 182.266 602.804 182.992 599.135 182.992C592.735 182.992 587.06 181.498 582.111 178.512C577.247 175.525 573.364 171.472 570.463 166.352C567.647 161.146 566.239 155.173 566.239 148.432C566.239 141.69 567.647 135.717 570.463 130.512C573.279 125.221 577.119 121.082 581.983 118.096C586.932 115.024 592.479 113.488 598.623 113.488C601.183 113.488 603.658 113.786 606.047 114.384C608.436 114.981 610.612 115.834 612.575 116.944C614.623 118.053 616.458 119.29 618.079 120.656C619.7 122.021 621.023 123.472 622.047 125.008C623.071 126.544 623.711 128.037 623.967 129.488L620.639 130.512L620.895 114.896H636.383V177.744C636.383 183.205 635.572 188.026 633.951 192.208C632.33 196.389 629.983 199.93 626.911 202.832C623.839 205.818 620.127 208.037 615.775 209.488C611.423 211.024 606.474 211.792 600.927 211.792ZM601.567 169.552C605.407 169.552 608.778 168.656 611.679 166.864C614.666 165.072 616.97 162.597 618.591 159.44C620.212 156.282 621.023 152.656 621.023 148.56C621.023 144.378 620.17 140.709 618.463 137.552C616.842 134.309 614.58 131.792 611.679 130C608.778 128.208 605.407 127.312 601.567 127.312C597.727 127.312 594.356 128.25 591.455 130.128C588.554 131.92 586.25 134.437 584.543 137.68C582.922 140.837 582.111 144.464 582.111 148.56C582.111 152.57 582.922 156.197 584.543 159.44C586.25 162.597 588.554 165.072 591.455 166.864C594.356 168.656 597.727 169.552 601.567 169.552ZM686.207 183.632C679.124 183.632 672.852 182.138 667.391 179.152C662.015 176.165 657.791 172.112 654.719 166.992C651.732 161.786 650.239 155.856 650.239 149.2C650.239 143.909 651.092 139.088 652.799 134.736C654.506 130.384 656.852 126.629 659.839 123.472C662.911 120.229 666.538 117.754 670.719 116.048C674.986 114.256 679.636 113.36 684.671 113.36C689.108 113.36 693.247 114.213 697.087 115.92C700.927 117.626 704.255 119.973 707.071 122.96C709.887 125.861 712.02 129.36 713.471 133.456C715.007 137.466 715.732 141.861 715.647 146.64L715.519 152.144H660.863L657.919 141.392H702.335L700.287 143.568V140.752C700.031 138.106 699.178 135.802 697.727 133.84C696.276 131.792 694.399 130.213 692.095 129.104C689.876 127.909 687.402 127.312 684.671 127.312C680.49 127.312 676.948 128.122 674.047 129.744C671.231 131.365 669.098 133.712 667.647 136.784C666.196 139.77 665.471 143.525 665.471 148.048C665.471 152.4 666.367 156.197 668.159 159.44C670.036 162.682 672.639 165.2 675.967 166.992C679.38 168.698 683.348 169.552 687.871 169.552C691.028 169.552 693.93 169.04 696.575 168.016C699.22 166.992 702.079 165.157 705.151 162.512L712.959 173.392C710.655 175.525 708.01 177.36 705.023 178.896C702.122 180.346 699.05 181.498 695.807 182.352C692.564 183.205 689.364 183.632 686.207 183.632ZM729.591 182.352V114.896H745.079L745.335 136.4L743.159 131.536C744.098 128.122 745.719 125.05 748.023 122.32C750.327 119.589 752.972 117.456 755.959 115.92C759.031 114.298 762.231 113.488 765.559 113.488C767.01 113.488 768.375 113.616 769.655 113.872C771.02 114.128 772.13 114.426 772.983 114.768L768.759 132.048C767.82 131.536 766.668 131.109 765.303 130.768C763.938 130.426 762.572 130.256 761.207 130.256C759.074 130.256 757.026 130.682 755.063 131.536C753.186 132.304 751.522 133.413 750.071 134.864C748.62 136.314 747.468 138.021 746.615 139.984C745.847 141.861 745.463 143.994 745.463 146.384V182.352H729.591ZM789.61 182.352V108.88C789.61 104.784 790.506 101.157 792.298 97.9996C794.09 94.7569 796.565 92.2396 799.722 90.4476C802.879 88.5702 806.549 87.6316 810.73 87.6316C813.631 87.6316 816.319 88.1436 818.794 89.1676C821.269 90.1062 823.359 91.4289 825.066 93.1356L820.202 105.04C819.093 104.101 817.898 103.376 816.618 102.864C815.423 102.352 814.271 102.096 813.162 102.096C811.455 102.096 810.005 102.394 808.81 102.992C807.701 103.504 806.847 104.314 806.25 105.424C805.738 106.533 805.482 107.856 805.482 109.392V182.352H797.546C796.01 182.352 794.559 182.352 793.194 182.352C791.914 182.352 790.719 182.352 789.61 182.352ZM779.114 130.128V116.304H820.714V130.128H779.114ZM862.064 183.632C855.323 183.632 849.307 182.138 844.016 179.152C838.725 176.08 834.544 171.898 831.472 166.608C828.4 161.317 826.864 155.301 826.864 148.56C826.864 141.818 828.4 135.802 831.472 130.512C834.544 125.221 838.725 121.082 844.016 118.096C849.307 115.024 855.323 113.488 862.064 113.488C868.72 113.488 874.693 115.024 879.984 118.096C885.275 121.082 889.413 125.221 892.4 130.512C895.472 135.802 897.008 141.818 897.008 148.56C897.008 155.301 895.472 161.317 892.4 166.608C889.413 171.898 885.275 176.08 879.984 179.152C874.693 182.138 868.72 183.632 862.064 183.632ZM862.064 169.68C865.733 169.68 868.976 168.741 871.792 166.864C874.693 164.986 876.955 162.469 878.576 159.312C880.283 156.154 881.093 152.57 881.008 148.56C881.093 144.464 880.283 140.837 878.576 137.68C876.955 134.522 874.693 132.048 871.792 130.256C868.976 128.378 865.733 127.44 862.064 127.44C858.395 127.44 855.067 128.378 852.08 130.256C849.179 132.048 846.917 134.565 845.296 137.808C843.675 140.965 842.864 144.549 842.864 148.56C842.864 152.57 843.675 156.154 845.296 159.312C846.917 162.469 849.179 164.986 852.08 166.864C855.067 168.741 858.395 169.68 862.064 169.68ZM911.091 182.352V114.896H926.451L926.707 128.72L923.763 130.256C924.616 127.184 926.28 124.41 928.755 121.936C931.23 119.376 934.174 117.328 937.587 115.792C941 114.256 944.499 113.488 948.083 113.488C953.203 113.488 957.47 114.512 960.883 116.56C964.382 118.608 966.984 121.68 968.691 125.776C970.483 129.872 971.379 134.992 971.379 141.136V182.352H955.635V142.288C955.635 138.874 955.166 136.058 954.227 133.84C953.288 131.536 951.838 129.872 949.875 128.848C947.912 127.738 945.523 127.226 942.707 127.312C940.403 127.312 938.27 127.696 936.307 128.464C934.43 129.146 932.766 130.17 931.315 131.536C929.95 132.816 928.84 134.309 927.987 136.016C927.219 137.722 926.835 139.6 926.835 141.648V182.352H919.027C917.491 182.352 916.04 182.352 914.675 182.352C913.395 182.352 912.2 182.352 911.091 182.352ZM996.387 182.352V97.7436H1012.13V182.352H996.387ZM983.075 129.488V114.896H1026.85V129.488H983.075ZM1063.87 183.632C1057.9 183.632 1052.52 182.65 1047.74 180.688C1043.05 178.64 1039.21 175.738 1036.22 171.984L1046.46 163.152C1049.02 166.053 1051.88 168.144 1055.04 169.424C1058.19 170.704 1061.52 171.344 1065.02 171.344C1066.47 171.344 1067.75 171.173 1068.86 170.832C1070.06 170.49 1071.08 169.978 1071.93 169.296C1072.79 168.613 1073.43 167.845 1073.85 166.992C1074.37 166.053 1074.62 165.029 1074.62 163.92C1074.62 161.872 1073.85 160.25 1072.32 159.056C1071.46 158.458 1070.1 157.818 1068.22 157.136C1066.43 156.453 1064.08 155.77 1061.18 155.088C1056.57 153.893 1052.73 152.528 1049.66 150.992C1046.59 149.37 1044.2 147.578 1042.49 145.616C1041.04 143.994 1039.93 142.16 1039.17 140.112C1038.48 138.064 1038.14 135.845 1038.14 133.456C1038.14 130.469 1038.78 127.781 1040.06 125.392C1041.43 122.917 1043.26 120.784 1045.57 118.992C1047.87 117.2 1050.56 115.834 1053.63 114.896C1056.7 113.957 1059.9 113.488 1063.23 113.488C1066.64 113.488 1069.93 113.914 1073.09 114.768C1076.33 115.621 1079.31 116.858 1082.05 118.48C1084.86 120.016 1087.25 121.893 1089.21 124.112L1080.51 133.712C1078.89 132.176 1077.1 130.81 1075.13 129.616C1073.26 128.421 1071.34 127.482 1069.37 126.8C1067.41 126.032 1065.58 125.648 1063.87 125.648C1062.25 125.648 1060.8 125.818 1059.52 126.16C1058.24 126.416 1057.17 126.842 1056.32 127.44C1055.46 128.037 1054.78 128.805 1054.27 129.744C1053.84 130.597 1053.63 131.621 1053.63 132.816C1053.71 133.84 1053.97 134.821 1054.4 135.76C1054.91 136.613 1055.59 137.338 1056.45 137.936C1057.38 138.533 1058.79 139.216 1060.67 139.984C1062.55 140.752 1064.98 141.477 1067.97 142.16C1072.15 143.269 1075.65 144.506 1078.46 145.872C1081.28 147.237 1083.5 148.816 1085.12 150.608C1086.74 152.144 1087.89 153.936 1088.57 155.984C1089.26 158.032 1089.6 160.293 1089.6 162.768C1089.6 166.778 1088.45 170.362 1086.14 173.52C1083.92 176.677 1080.85 179.152 1076.93 180.944C1073.09 182.736 1068.73 183.632 1063.87 183.632ZM1105.26 182.352V114.896H1121V182.352H1105.26ZM1112.94 100.56C1109.78 100.56 1107.31 99.7916 1105.51 98.2556C1103.81 96.6342 1102.95 94.3729 1102.95 91.4716C1102.95 88.7409 1103.85 86.5222 1105.64 84.8156C1107.43 83.1089 1109.87 82.2556 1112.94 82.2556C1116.18 82.2556 1118.66 83.0662 1120.36 84.6876C1122.15 86.2236 1123.05 88.4849 1123.05 91.4716C1123.05 94.1169 1122.15 96.2929 1120.36 97.9996C1118.57 99.7062 1116.1 100.56 1112.94 100.56ZM1162.6 182.352L1134.18 114.896H1151.33L1170.53 165.328L1167.21 166.224L1187.43 114.896H1204.2L1174.37 182.352H1162.6Z" fill="#EAECF1"/>
<path d="M37.5429 183.059C37.9334 183.449 38.5666 183.449 38.9571 183.059L45.3211 176.695C45.7116 176.304 45.7116 175.671 45.3211 175.28C44.9305 174.89 44.2974 174.89 43.9069 175.28L38.25 180.937L32.5931 175.28C32.2026 174.89 31.5695 174.89 31.1789 175.28C30.7884 175.671 30.7884 176.304 31.1789 176.695L37.5429 183.059ZM38.9571 92.6445C38.5666 92.2539 37.9334 92.2539 37.5429 92.6445L31.1789 99.0084C30.7884 99.3989 30.7884 100.032 31.1789 100.423C31.5695 100.813 32.2026 100.813 32.5931 100.423L38.25 94.7658L43.9069 100.423C44.2974 100.813 44.9305 100.813 45.3211 100.423C45.7116 100.032 45.7116 99.3989 45.3211 99.0084L38.9571 92.6445ZM39.25 182.352L39.25 93.3516L37.25 93.3516L37.25 182.352L39.25 182.352Z" fill="#E7EFF2"/>
<path d="M37.215 83V74.06H34.275V72.5H41.865V74.06H38.835V83H37.215ZM45.0084 83.15C44.3584 83.15 43.7634 82.97 43.2234 82.61C42.6934 82.25 42.2684 81.76 41.9484 81.14C41.6284 80.52 41.4684 79.82 41.4684 79.04C41.4684 78.25 41.6284 77.55 41.9484 76.94C42.2784 76.32 42.7184 75.835 43.2684 75.485C43.8284 75.135 44.4534 74.96 45.1434 74.96C45.5534 74.96 45.9284 75.02 46.2684 75.14C46.6084 75.26 46.9034 75.43 47.1534 75.65C47.4134 75.86 47.6234 76.105 47.7834 76.385C47.9534 76.665 48.0584 76.965 48.0984 77.285L47.7534 77.165V75.125H49.3134V83H47.7534V81.125L48.1134 81.02C48.0534 81.29 47.9284 81.555 47.7384 81.815C47.5584 82.065 47.3234 82.29 47.0334 82.49C46.7534 82.69 46.4384 82.85 46.0884 82.97C45.7484 83.09 45.3884 83.15 45.0084 83.15ZM45.4134 81.725C45.8834 81.725 46.2984 81.61 46.6584 81.38C47.0184 81.15 47.2984 80.835 47.4984 80.435C47.7084 80.025 47.8134 79.56 47.8134 79.04C47.8134 78.53 47.7084 78.075 47.4984 77.675C47.2984 77.275 47.0184 76.96 46.6584 76.73C46.2984 76.5 45.8834 76.385 45.4134 76.385C44.9534 76.385 44.5434 76.5 44.1834 76.73C43.8334 76.96 43.5534 77.275 43.3434 77.675C43.1434 78.075 43.0434 78.53 43.0434 79.04C43.0434 79.56 43.1434 80.025 43.3434 80.435C43.5534 80.835 43.8334 81.15 44.1834 81.38C44.5434 81.61 44.9534 81.725 45.4134 81.725ZM51.5006 83V71.9H53.0456V83H51.5006ZM55.2653 83V71.9H56.8103V83H55.2653ZM69.984 83L66.729 78.29L62.559 72.5H64.614L67.794 77.15L72.039 83H69.984ZM62.484 83L66.489 77.285L67.494 78.47L64.389 83H62.484ZM68.034 78.125L67.044 76.985L69.984 72.5H71.889L68.034 78.125ZM73.1876 79.475V77.945H77.5076V79.475H73.1876ZM86.6209 83V72.5H88.2409V83H86.6209ZM79.7659 83V72.5H81.3859V83H79.7659ZM80.4709 78.545V76.985H87.3409V78.545H80.4709ZM94.462 83.15C93.652 83.15 92.932 82.98 92.302 82.64C91.682 82.29 91.192 81.815 90.832 81.215C90.482 80.615 90.307 79.925 90.307 79.145C90.307 78.525 90.407 77.96 90.607 77.45C90.807 76.94 91.082 76.5 91.432 76.13C91.792 75.75 92.217 75.46 92.707 75.26C93.207 75.05 93.747 74.945 94.327 74.945C94.837 74.945 95.312 75.045 95.752 75.245C96.192 75.435 96.572 75.7 96.892 76.04C97.222 76.38 97.472 76.785 97.642 77.255C97.822 77.715 97.907 78.22 97.897 78.77L97.882 79.43H91.447L91.102 78.2H96.547L96.322 78.455V78.095C96.292 77.765 96.182 77.47 95.992 77.21C95.802 76.95 95.562 76.745 95.272 76.595C94.982 76.445 94.667 76.37 94.327 76.37C93.787 76.37 93.332 76.475 92.962 76.685C92.592 76.885 92.312 77.185 92.122 77.585C91.932 77.975 91.837 78.46 91.837 79.04C91.837 79.59 91.952 80.07 92.182 80.48C92.412 80.88 92.737 81.19 93.157 81.41C93.577 81.63 94.062 81.74 94.612 81.74C95.002 81.74 95.362 81.675 95.692 81.545C96.032 81.415 96.397 81.18 96.787 80.84L97.567 81.935C97.327 82.175 97.032 82.385 96.682 82.565C96.342 82.745 95.977 82.89 95.587 83C95.207 83.1 94.832 83.15 94.462 83.15ZM99.8311 83V75.125H101.376V83H99.8311ZM100.581 73.385C100.251 73.385 99.9961 73.3 99.8161 73.13C99.6361 72.96 99.5461 72.72 99.5461 72.41C99.5461 72.12 99.6361 71.885 99.8161 71.705C100.006 71.525 100.261 71.435 100.581 71.435C100.911 71.435 101.166 71.52 101.346 71.69C101.526 71.86 101.616 72.1 101.616 72.41C101.616 72.7 101.521 72.935 101.331 73.115C101.151 73.295 100.901 73.385 100.581 73.385ZM107.276 86.45C106.716 86.45 106.156 86.36 105.596 86.18C105.046 86.01 104.601 85.785 104.261 85.505L104.831 84.305C105.031 84.455 105.266 84.585 105.536 84.695C105.806 84.815 106.091 84.905 106.391 84.965C106.691 85.035 106.986 85.07 107.276 85.07C107.826 85.07 108.286 84.98 108.656 84.8C109.026 84.62 109.306 84.355 109.496 84.005C109.686 83.655 109.781 83.22 109.781 82.7V81.185L109.946 81.29C109.896 81.6 109.731 81.9 109.451 82.19C109.181 82.47 108.841 82.7 108.431 82.88C108.021 83.06 107.601 83.15 107.171 83.15C106.421 83.15 105.751 82.975 105.161 82.625C104.581 82.265 104.121 81.78 103.781 81.17C103.441 80.55 103.271 79.845 103.271 79.055C103.271 78.265 103.436 77.565 103.766 76.955C104.106 76.335 104.566 75.85 105.146 75.5C105.736 75.14 106.396 74.96 107.126 74.96C107.426 74.96 107.716 75 107.996 75.08C108.276 75.15 108.536 75.255 108.776 75.395C109.016 75.525 109.231 75.67 109.421 75.83C109.611 75.99 109.766 76.16 109.886 76.34C110.006 76.52 110.081 76.69 110.111 76.85L109.781 76.97V75.125H111.326V82.52C111.326 83.15 111.231 83.705 111.041 84.185C110.861 84.675 110.596 85.085 110.246 85.415C109.896 85.755 109.471 86.01 108.971 86.18C108.471 86.36 107.906 86.45 107.276 86.45ZM107.336 81.725C107.826 81.725 108.261 81.61 108.641 81.38C109.021 81.15 109.316 80.835 109.526 80.435C109.736 80.035 109.841 79.575 109.841 79.055C109.841 78.535 109.731 78.075 109.511 77.675C109.301 77.265 109.006 76.945 108.626 76.715C108.256 76.485 107.826 76.37 107.336 76.37C106.856 76.37 106.426 76.49 106.046 76.73C105.676 76.96 105.381 77.28 105.161 77.69C104.951 78.09 104.846 78.545 104.846 79.055C104.846 79.565 104.951 80.025 105.161 80.435C105.381 80.835 105.676 81.15 106.046 81.38C106.426 81.61 106.856 81.725 107.336 81.725ZM113.492 83V71.9H115.037V76.745L114.767 76.925C114.867 76.575 115.062 76.255 115.352 75.965C115.642 75.665 115.987 75.425 116.387 75.245C116.787 75.055 117.197 74.96 117.617 74.96C118.217 74.96 118.717 75.08 119.117 75.32C119.517 75.55 119.817 75.905 120.017 76.385C120.217 76.865 120.317 77.47 120.317 78.2V83H118.772V78.305C118.772 77.855 118.712 77.485 118.592 77.195C118.472 76.895 118.287 76.68 118.037 76.55C117.787 76.41 117.477 76.35 117.107 76.37C116.807 76.37 116.532 76.42 116.282 76.52C116.032 76.61 115.812 76.74 115.622 76.91C115.442 77.08 115.297 77.28 115.187 77.51C115.087 77.73 115.037 77.97 115.037 78.23V83H114.272C114.142 83 114.012 83 113.882 83C113.752 83 113.622 83 113.492 83ZM123.388 83V73.115H124.933V83H123.388ZM121.753 76.625V75.125H126.763V76.625H121.753Z" fill="#E7EFF2"/>
<path d="M230.7 216.222L230.726 205.722L237.341 205.739L237.337 207.299L232.342 207.286L232.324 214.666L237.319 214.679L237.315 216.239L230.7 216.222ZM231.447 211.619L231.451 210.059L236.505 210.072L236.502 211.632L231.447 211.619ZM241.884 216.25L238.574 208.367L240.239 208.371L242.624 214.272L242.339 214.406L244.919 208.383L246.509 208.387L242.994 216.253L241.884 216.25ZM251.358 216.424C250.548 216.422 249.828 216.25 249.199 215.909C248.58 215.557 248.091 215.081 247.733 214.48C247.384 213.879 247.211 213.189 247.213 212.409C247.214 211.789 247.316 211.224 247.517 210.714C247.718 210.205 247.994 209.766 248.345 209.396C248.706 209.017 249.132 208.728 249.622 208.53C250.123 208.321 250.663 208.217 251.243 208.219C251.753 208.22 252.228 208.321 252.667 208.522C253.107 208.713 253.486 208.979 253.805 209.32C254.135 209.661 254.384 210.067 254.552 210.537C254.731 210.997 254.815 211.503 254.804 212.053L254.787 212.713L248.352 212.696L248.01 211.466L253.455 211.479L253.229 211.734L253.23 211.374C253.201 211.044 253.092 210.748 252.903 210.488C252.713 210.227 252.474 210.022 252.184 209.871C251.894 209.72 251.58 209.645 251.24 209.644C250.7 209.642 250.244 209.746 249.874 209.955C249.503 210.154 249.223 210.454 249.032 210.853C248.841 211.243 248.744 211.727 248.743 212.307C248.742 212.857 248.855 213.338 249.084 213.748C249.313 214.149 249.638 214.46 250.057 214.681C250.477 214.902 250.961 215.013 251.511 215.014C251.901 215.015 252.261 214.951 252.592 214.822C252.932 214.693 253.298 214.459 253.688 214.12L254.466 215.217C254.225 215.456 253.93 215.665 253.579 215.845C253.239 216.024 252.873 216.168 252.483 216.277C252.103 216.376 251.728 216.425 251.358 216.424ZM256.472 216.287L256.492 208.412L258.037 208.416L258.033 210.036L257.762 210.215C257.863 209.865 258.059 209.546 258.35 209.256C258.64 208.957 258.986 208.718 259.386 208.539C259.787 208.35 260.197 208.256 260.617 208.257C261.217 208.259 261.717 208.38 262.116 208.621C262.516 208.852 262.815 209.208 263.014 209.688C263.212 210.169 263.311 210.774 263.309 211.504L263.297 216.304L261.752 216.3L261.764 211.605C261.765 211.155 261.706 210.785 261.587 210.495C261.467 210.194 261.283 209.979 261.033 209.848C260.784 209.707 260.474 209.647 260.104 209.666C259.804 209.665 259.529 209.714 259.278 209.814C259.028 209.903 258.808 210.033 258.617 210.202C258.437 210.372 258.291 210.571 258.181 210.801C258.08 211.021 258.03 211.261 258.029 211.521L258.017 216.291L257.252 216.289C257.122 216.288 256.992 216.288 256.862 216.288C256.732 216.287 256.602 216.287 256.472 216.287ZM272.222 216.476C271.562 216.474 270.967 216.358 270.438 216.127C269.908 215.895 269.469 215.554 269.12 215.103L270.172 214.206C270.472 214.557 270.796 214.813 271.145 214.973C271.505 215.124 271.91 215.2 272.36 215.201C272.54 215.202 272.705 215.182 272.855 215.143C273.015 215.093 273.15 215.023 273.261 214.934C273.381 214.844 273.471 214.739 273.531 214.619C273.592 214.49 273.622 214.35 273.622 214.2C273.623 213.94 273.529 213.729 273.339 213.569C273.239 213.499 273.079 213.423 272.86 213.343C272.65 213.252 272.375 213.161 272.035 213.071C271.456 212.919 270.981 212.748 270.611 212.557C270.242 212.366 269.958 212.15 269.758 211.91C269.609 211.72 269.499 211.514 269.43 211.294C269.36 211.064 269.326 210.814 269.327 210.544C269.327 210.214 269.398 209.914 269.539 209.644C269.689 209.365 269.89 209.125 270.141 208.926C270.401 208.717 270.701 208.557 271.042 208.448C271.392 208.339 271.762 208.285 272.152 208.286C272.522 208.287 272.887 208.338 273.247 208.439C273.617 208.54 273.956 208.685 274.266 208.876C274.575 209.067 274.835 209.293 275.044 209.553L274.157 210.526C273.967 210.335 273.757 210.17 273.528 210.029C273.308 209.879 273.083 209.763 272.854 209.683C272.624 209.602 272.414 209.562 272.224 209.561C272.014 209.561 271.824 209.58 271.654 209.62C271.484 209.659 271.339 209.719 271.218 209.799C271.108 209.878 271.023 209.978 270.963 210.098C270.902 210.218 270.872 210.353 270.872 210.503C270.881 210.633 270.911 210.758 270.961 210.878C271.02 210.988 271.1 211.083 271.2 211.164C271.31 211.244 271.475 211.329 271.694 211.42C271.914 211.51 272.194 211.596 272.534 211.677C273.033 211.808 273.443 211.954 273.763 212.115C274.092 212.266 274.352 212.441 274.541 212.642C274.741 212.832 274.88 213.053 274.96 213.303C275.039 213.553 275.078 213.833 275.078 214.143C275.076 214.593 274.945 214.998 274.685 215.357C274.434 215.707 274.093 215.981 273.662 216.18C273.232 216.379 272.752 216.477 272.222 216.476ZM277.75 216.34L277.774 206.455L279.319 206.459L279.295 216.344L277.75 216.34ZM276.131 209.961L276.134 208.461L281.144 208.473L281.141 209.973L276.131 209.961ZM282.532 216.352L282.551 208.477L284.111 208.481L284.105 210.956L283.957 210.355C284.068 209.976 284.253 209.631 284.514 209.322C284.785 209.012 285.091 208.768 285.431 208.589C285.781 208.41 286.142 208.321 286.512 208.322C286.682 208.322 286.842 208.338 286.992 208.368C287.152 208.398 287.276 208.434 287.366 208.474L286.957 210.153C286.837 210.103 286.702 210.062 286.552 210.032C286.413 209.992 286.273 209.971 286.133 209.971C285.863 209.97 285.602 210.024 285.352 210.134C285.112 210.233 284.897 210.378 284.706 210.567C284.526 210.747 284.38 210.961 284.269 211.211C284.159 211.451 284.103 211.716 284.102 212.006L284.092 216.356L282.532 216.352ZM291.784 216.525C291.014 216.523 290.325 216.346 289.715 215.995C289.116 215.633 288.643 215.147 288.294 214.536C287.946 213.915 287.772 213.21 287.774 212.42C287.776 211.63 287.953 210.93 288.305 210.321C288.656 209.702 289.132 209.218 289.733 208.87C290.344 208.511 291.035 208.333 291.805 208.335C292.565 208.337 293.244 208.519 293.843 208.88C294.452 209.232 294.931 209.718 295.28 210.339C295.628 210.95 295.801 211.65 295.799 212.44C295.797 213.23 295.621 213.935 295.269 214.554C294.918 215.163 294.436 215.647 293.825 216.005C293.225 216.354 292.544 216.527 291.784 216.525ZM291.788 215.115C292.258 215.116 292.678 215.002 293.048 214.773C293.419 214.534 293.71 214.215 293.921 213.815C294.132 213.406 294.233 212.946 294.224 212.436C294.236 211.916 294.137 211.456 293.928 211.055C293.719 210.645 293.43 210.324 293.06 210.093C292.691 209.862 292.271 209.746 291.801 209.745C291.331 209.744 290.906 209.863 290.525 210.102C290.155 210.331 289.864 210.65 289.653 211.06C289.442 211.459 289.341 211.914 289.349 212.424C289.338 212.934 289.437 213.394 289.646 213.805C289.855 214.205 290.144 214.526 290.513 214.767C290.893 214.998 291.318 215.114 291.788 215.115ZM298.889 213.933L298.818 212.253L302.593 208.527L304.678 208.532L298.889 213.933ZM297.473 216.389L297.501 205.289L299.046 205.293L299.018 216.393L297.473 216.389ZM302.783 216.402L299.822 212.93L300.919 211.928L304.763 216.407L302.783 216.402ZM309.336 216.569C308.526 216.567 307.806 216.395 307.177 216.053C306.558 215.702 306.069 215.226 305.711 214.625C305.362 214.024 305.189 213.333 305.191 212.553C305.193 211.933 305.294 211.369 305.495 210.859C305.697 210.35 305.973 209.91 306.324 209.541C306.685 209.162 307.11 208.873 307.601 208.674C308.101 208.466 308.642 208.362 309.222 208.363C309.732 208.365 310.206 208.466 310.646 208.667C311.085 208.858 311.465 209.124 311.784 209.465C312.113 209.806 312.362 210.211 312.531 210.682C312.71 211.142 312.793 211.647 312.782 212.197L312.765 212.857L306.33 212.841L305.988 211.61L311.433 211.624L311.208 211.878L311.209 211.518C311.179 211.188 311.07 210.893 310.881 210.633C310.692 210.372 310.452 210.167 310.162 210.016C309.873 209.865 309.558 209.789 309.218 209.788C308.678 209.787 308.223 209.891 307.852 210.1C307.482 210.299 307.201 210.598 307.01 210.998C306.819 211.387 306.723 211.872 306.721 212.452C306.72 213.002 306.834 213.483 307.063 213.893C307.292 214.294 307.616 214.604 308.035 214.826C308.455 215.047 308.94 215.158 309.49 215.159C309.88 215.16 310.24 215.096 310.57 214.967C310.91 214.838 311.276 214.604 311.667 214.265L312.444 215.362C312.203 215.601 311.908 215.81 311.558 215.989C311.217 216.168 310.852 216.313 310.461 216.422C310.081 216.521 309.706 216.57 309.336 216.569ZM321.999 216.6C321.269 216.599 320.615 216.417 320.036 216.056C319.466 215.694 319.013 215.203 318.674 214.582C318.346 213.961 318.182 213.266 318.184 212.496C318.186 211.726 318.353 211.031 318.685 210.412C319.026 209.793 319.482 209.304 320.053 208.946C320.634 208.587 321.29 208.409 322.02 208.41C322.72 208.412 323.354 208.559 323.924 208.85C324.503 209.132 324.942 209.518 325.241 210.009L324.383 211.056C324.224 210.826 324.019 210.615 323.77 210.425C323.52 210.234 323.255 210.084 322.976 209.973C322.696 209.862 322.426 209.806 322.166 209.806C321.686 209.805 321.256 209.924 320.875 210.163C320.505 210.392 320.209 210.711 319.988 211.12C319.767 211.53 319.656 211.99 319.654 212.5C319.653 213.01 319.767 213.47 319.996 213.88C320.225 214.281 320.529 214.602 320.909 214.843C321.288 215.084 321.708 215.205 322.168 215.206C322.438 215.207 322.698 215.162 322.948 215.073C323.208 214.983 323.459 214.849 323.699 214.67C323.939 214.49 324.165 214.271 324.376 214.011L325.228 215.063C324.907 215.513 324.446 215.882 323.845 216.17C323.255 216.459 322.639 216.602 321.999 216.6ZM330.221 216.621C329.451 216.619 328.762 216.442 328.153 216.091C327.554 215.729 327.08 215.243 326.731 214.632C326.383 214.011 326.21 213.306 326.212 212.516C326.214 211.726 326.39 211.026 326.742 210.417C327.094 209.798 327.57 209.314 328.171 208.966C328.782 208.607 329.472 208.429 330.242 208.431C331.002 208.433 331.681 208.615 332.281 208.976C332.89 209.328 333.369 209.814 333.717 210.435C334.065 211.046 334.239 211.746 334.237 212.536C334.235 213.326 334.058 214.031 333.706 214.65C333.355 215.259 332.874 215.743 332.263 216.101C331.662 216.45 330.981 216.623 330.221 216.621ZM330.225 215.211C330.695 215.212 331.115 215.098 331.486 214.869C331.856 214.63 332.147 214.311 332.358 213.911C332.569 213.502 332.67 213.042 332.662 212.532C332.673 212.012 332.574 211.552 332.365 211.151C332.156 210.741 331.867 210.42 331.498 210.189C331.128 209.958 330.708 209.842 330.238 209.841C329.768 209.84 329.343 209.959 328.963 210.198C328.592 210.427 328.301 210.746 328.09 211.156C327.879 211.555 327.778 212.01 327.787 212.52C327.775 213.03 327.874 213.49 328.083 213.901C328.292 214.301 328.581 214.622 328.951 214.863C329.33 215.094 329.755 215.21 330.225 215.211ZM335.91 216.485L335.93 208.61L337.475 208.614L337.471 210.234L337.201 210.413C337.301 210.064 337.497 209.744 337.788 209.455C338.079 209.156 338.424 208.916 338.825 208.737C339.225 208.548 339.635 208.454 340.055 208.456C340.655 208.457 341.155 208.578 341.555 208.819C341.954 209.05 342.253 209.406 342.452 209.886C342.651 210.367 342.749 210.972 342.747 211.702L342.735 216.502L341.19 216.498L341.202 211.803C341.203 211.353 341.144 210.983 341.025 210.693C340.906 210.393 340.721 210.177 340.471 210.047C340.222 209.906 339.912 209.845 339.542 209.864C339.242 209.863 338.967 209.913 338.717 210.012C338.466 210.102 338.246 210.231 338.056 210.401C337.875 210.57 337.73 210.77 337.619 210.999C337.519 211.219 337.468 211.459 337.467 211.719L337.455 216.489L336.69 216.487C336.56 216.487 336.43 216.486 336.3 216.486C336.17 216.486 336.04 216.486 335.91 216.485ZM345.806 216.51L345.831 206.625L347.376 206.629L347.351 216.514L345.806 216.51ZM344.187 210.131L344.191 208.631L349.201 208.643L349.197 210.143L344.187 210.131ZM350.588 216.522L350.608 208.647L352.168 208.651L352.162 211.126L352.013 210.525C352.124 210.146 352.31 209.801 352.571 209.492C352.841 209.182 353.147 208.938 353.487 208.759C353.838 208.58 354.198 208.491 354.568 208.492C354.738 208.492 354.898 208.508 355.048 208.538C355.208 208.568 355.333 208.604 355.423 208.644L355.014 210.323C354.894 210.273 354.759 210.232 354.609 210.202C354.469 210.162 354.329 210.141 354.189 210.141C353.919 210.14 353.659 210.194 353.409 210.304C353.168 210.403 352.953 210.548 352.763 210.737C352.582 210.917 352.437 211.131 352.326 211.381C352.215 211.621 352.16 211.886 352.159 212.176L352.148 216.526L350.588 216.522ZM359.331 216.694C358.681 216.692 358.086 216.511 357.547 216.149C357.018 215.788 356.594 215.297 356.276 214.676C355.957 214.055 355.799 213.355 355.801 212.575C355.803 211.785 355.965 211.085 356.286 210.476C356.618 209.857 357.059 209.373 357.61 209.024C358.171 208.676 358.796 208.502 359.486 208.504C359.896 208.505 360.271 208.566 360.611 208.687C360.95 208.808 361.245 208.978 361.494 209.199C361.754 209.41 361.963 209.655 362.122 209.936C362.292 210.216 362.396 210.516 362.435 210.836L362.09 210.716L362.096 208.676L363.656 208.679L363.636 216.554L362.076 216.551L362.081 214.676L362.441 214.571C362.38 214.841 362.255 215.106 362.064 215.366C361.883 215.615 361.648 215.839 361.357 216.039C361.077 216.238 360.761 216.397 360.411 216.516C360.071 216.636 359.711 216.695 359.331 216.694ZM359.739 215.27C360.209 215.271 360.624 215.157 360.985 214.928C361.346 214.699 361.626 214.384 361.827 213.985C362.038 213.575 362.145 213.111 362.146 212.591C362.147 212.081 362.043 211.625 361.834 211.225C361.635 210.824 361.356 210.509 360.997 210.278C360.637 210.047 360.222 209.931 359.752 209.93C359.292 209.929 358.882 210.043 358.522 210.272C358.171 210.501 357.89 210.815 357.679 211.215C357.478 211.614 357.377 212.069 357.376 212.579C357.375 213.099 357.473 213.564 357.672 213.975C357.881 214.375 358.161 214.691 358.51 214.922C358.869 215.153 359.279 215.269 359.739 215.27ZM368.418 216.716C367.758 216.715 367.163 216.598 366.634 216.367C366.104 216.136 365.665 215.794 365.316 215.344L366.368 214.446C366.667 214.797 366.992 215.053 367.341 215.214C367.701 215.365 368.106 215.441 368.556 215.442C368.736 215.442 368.901 215.423 369.051 215.383C369.211 215.333 369.346 215.264 369.457 215.174C369.577 215.084 369.667 214.979 369.727 214.86C369.788 214.73 369.818 214.59 369.818 214.44C369.819 214.18 369.725 213.97 369.535 213.809C369.435 213.739 369.275 213.664 369.056 213.583C368.846 213.492 368.571 213.402 368.231 213.311C367.652 213.159 367.177 212.988 366.807 212.797C366.438 212.606 366.154 212.391 365.954 212.15C365.805 211.96 365.695 211.755 365.626 211.534C365.556 211.304 365.522 211.054 365.523 210.784C365.523 210.454 365.594 210.154 365.735 209.885C365.885 209.605 366.086 209.366 366.337 209.166C366.597 208.957 366.897 208.798 367.238 208.688C367.588 208.579 367.958 208.525 368.348 208.526C368.718 208.527 369.083 208.578 369.443 208.679C369.813 208.78 370.152 208.926 370.462 209.116C370.771 209.307 371.031 209.533 371.24 209.793L370.353 210.766C370.163 210.576 369.953 210.41 369.724 210.27C369.504 210.119 369.279 210.004 369.05 209.923C368.82 209.842 368.61 209.802 368.42 209.801C368.21 209.801 368.02 209.82 367.85 209.86C367.68 209.9 367.535 209.959 367.414 210.039C367.304 210.119 367.219 210.218 367.159 210.338C367.098 210.458 367.068 210.593 367.068 210.743C367.077 210.873 367.107 210.998 367.157 211.118C367.216 211.228 367.296 211.324 367.396 211.404C367.506 211.484 367.671 211.569 367.89 211.66C368.11 211.751 368.39 211.836 368.73 211.917C369.229 212.048 369.639 212.194 369.959 212.355C370.288 212.506 370.548 212.682 370.737 212.882C370.937 213.073 371.076 213.293 371.156 213.543C371.235 213.793 371.274 214.074 371.274 214.384C371.272 214.834 371.141 215.238 370.881 215.598C370.63 215.947 370.289 216.221 369.858 216.42C369.428 216.619 368.948 216.718 368.418 216.716ZM373.946 216.58L373.97 206.695L375.515 206.699L375.491 216.584L373.946 216.58ZM372.327 210.201L372.33 208.701L377.34 208.714L377.337 210.214L372.327 210.201ZM381.645 216.749C380.985 216.748 380.39 216.631 379.861 216.4C379.332 216.169 378.892 215.828 378.544 215.377L379.596 214.479C379.895 214.83 380.219 215.086 380.569 215.247C380.929 215.398 381.333 215.474 381.783 215.475C381.963 215.475 382.128 215.456 382.279 215.416C382.439 215.366 382.574 215.297 382.684 215.207C382.804 215.117 382.895 215.013 382.955 214.893C383.015 214.763 383.046 214.623 383.046 214.473C383.047 214.213 382.952 214.003 382.762 213.842C382.663 213.772 382.503 213.697 382.283 213.616C382.073 213.525 381.798 213.435 381.459 213.344C380.879 213.192 380.405 213.021 380.035 212.83C379.665 212.639 379.381 212.424 379.182 212.183C379.032 211.993 378.923 211.788 378.853 211.567C378.784 211.337 378.749 211.087 378.75 210.817C378.751 210.487 378.822 210.187 378.962 209.918C379.113 209.638 379.314 209.399 379.564 209.199C379.825 208.99 380.125 208.831 380.465 208.721C380.816 208.612 381.186 208.558 381.576 208.559C381.946 208.56 382.311 208.611 382.67 208.712C383.04 208.813 383.38 208.959 383.689 209.149C383.999 209.34 384.258 209.566 384.468 209.826L383.58 210.799C383.391 210.609 383.181 210.443 382.951 210.303C382.732 210.152 382.507 210.037 382.277 209.956C382.047 209.875 381.837 209.835 381.647 209.834C381.437 209.834 381.247 209.853 381.077 209.893C380.907 209.933 380.762 209.992 380.642 210.072C380.532 210.152 380.446 210.251 380.386 210.371C380.326 210.491 380.295 210.626 380.295 210.776C380.305 210.906 380.334 211.031 380.384 211.151C380.444 211.261 380.524 211.357 380.623 211.437C380.733 211.517 380.898 211.603 381.118 211.693C381.338 211.784 381.617 211.869 381.957 211.95C382.457 212.081 382.866 212.227 383.186 212.388C383.516 212.539 383.775 212.715 383.965 212.915C384.164 213.106 384.304 213.326 384.383 213.576C384.463 213.826 384.502 214.107 384.501 214.417C384.5 214.867 384.369 215.271 384.108 215.631C383.857 215.98 383.516 216.254 383.086 216.453C382.655 216.652 382.175 216.751 381.645 216.749Z" fill="#E7EFF2"/>
<path d="M767.665 75.15C766.905 75.15 766.195 75.015 765.535 74.745C764.875 74.465 764.295 74.08 763.795 73.59C763.295 73.1 762.905 72.53 762.625 71.88C762.355 71.22 762.22 70.51 762.22 69.75C762.22 69 762.355 68.3 762.625 67.65C762.905 67 763.29 66.435 763.78 65.955C764.28 65.465 764.86 65.085 765.52 64.815C766.18 64.545 766.89 64.41 767.65 64.41C768.18 64.41 768.695 64.485 769.195 64.635C769.705 64.785 770.165 64.995 770.575 65.265C770.985 65.535 771.32 65.845 771.58 66.195L770.53 67.29C770.23 67 769.92 66.76 769.6 66.57C769.29 66.38 768.97 66.235 768.64 66.135C768.31 66.035 767.98 65.985 767.65 65.985C767.11 65.985 766.61 66.08 766.15 66.27C765.7 66.46 765.3 66.725 764.95 67.065C764.61 67.405 764.345 67.805 764.155 68.265C763.965 68.715 763.87 69.21 763.87 69.75C763.87 70.27 763.97 70.765 764.17 71.235C764.37 71.695 764.645 72.1 764.995 72.45C765.355 72.8 765.765 73.075 766.225 73.275C766.695 73.475 767.19 73.575 767.71 73.575C768.1 73.575 768.47 73.52 768.82 73.41C769.17 73.29 769.48 73.125 769.75 72.915C770.02 72.705 770.23 72.465 770.38 72.195C770.53 71.915 770.605 71.62 770.605 71.31V71.01L770.83 71.22H767.62V69.615H772.27C772.29 69.725 772.305 69.835 772.315 69.945C772.325 70.045 772.33 70.145 772.33 70.245C772.34 70.335 772.345 70.425 772.345 70.515C772.345 71.205 772.225 71.835 771.985 72.405C771.745 72.965 771.41 73.45 770.98 73.86C770.56 74.27 770.065 74.59 769.495 74.82C768.935 75.04 768.325 75.15 767.665 75.15ZM777.739 75.15C776.929 75.15 776.209 74.98 775.579 74.64C774.959 74.29 774.469 73.815 774.109 73.215C773.759 72.615 773.584 71.925 773.584 71.145C773.584 70.525 773.684 69.96 773.884 69.45C774.084 68.94 774.359 68.5 774.709 68.13C775.069 67.75 775.494 67.46 775.984 67.26C776.484 67.05 777.024 66.945 777.604 66.945C778.114 66.945 778.589 67.045 779.029 67.245C779.469 67.435 779.849 67.7 780.169 68.04C780.499 68.38 780.749 68.785 780.919 69.255C781.099 69.715 781.184 70.22 781.174 70.77L781.159 71.43H774.724L774.379 70.2H779.824L779.599 70.455V70.095C779.569 69.765 779.459 69.47 779.269 69.21C779.079 68.95 778.839 68.745 778.549 68.595C778.259 68.445 777.944 68.37 777.604 68.37C777.064 68.37 776.609 68.475 776.239 68.685C775.869 68.885 775.589 69.185 775.399 69.585C775.209 69.975 775.114 70.46 775.114 71.04C775.114 71.59 775.229 72.07 775.459 72.48C775.689 72.88 776.014 73.19 776.434 73.41C776.854 73.63 777.339 73.74 777.889 73.74C778.279 73.74 778.639 73.675 778.969 73.545C779.309 73.415 779.674 73.18 780.064 72.84L780.844 73.935C780.604 74.175 780.309 74.385 779.959 74.565C779.619 74.745 779.254 74.89 778.864 75C778.484 75.1 778.109 75.15 777.739 75.15ZM782.853 75V67.125H784.398V68.745L784.128 68.925C784.228 68.575 784.423 68.255 784.713 67.965C785.003 67.665 785.348 67.425 785.748 67.245C786.148 67.055 786.558 66.96 786.978 66.96C787.578 66.96 788.078 67.08 788.478 67.32C788.878 67.55 789.178 67.905 789.378 68.385C789.578 68.865 789.678 69.47 789.678 70.2V75H788.133V70.305C788.133 69.855 788.073 69.485 787.953 69.195C787.833 68.895 787.648 68.68 787.398 68.55C787.148 68.41 786.838 68.35 786.468 68.37C786.168 68.37 785.893 68.42 785.643 68.52C785.393 68.61 785.173 68.74 784.983 68.91C784.803 69.08 784.658 69.28 784.548 69.51C784.448 69.73 784.398 69.97 784.398 70.23V75H783.633C783.503 75 783.373 75 783.243 75C783.113 75 782.983 75 782.853 75ZM795.449 75.15C794.639 75.15 793.919 74.98 793.289 74.64C792.669 74.29 792.179 73.815 791.819 73.215C791.469 72.615 791.294 71.925 791.294 71.145C791.294 70.525 791.394 69.96 791.594 69.45C791.794 68.94 792.069 68.5 792.419 68.13C792.779 67.75 793.204 67.46 793.694 67.26C794.194 67.05 794.734 66.945 795.314 66.945C795.824 66.945 796.299 67.045 796.739 67.245C797.179 67.435 797.559 67.7 797.879 68.04C798.209 68.38 798.459 68.785 798.629 69.255C798.809 69.715 798.894 70.22 798.884 70.77L798.869 71.43H792.434L792.089 70.2H797.534L797.309 70.455V70.095C797.279 69.765 797.169 69.47 796.979 69.21C796.789 68.95 796.549 68.745 796.259 68.595C795.969 68.445 795.654 68.37 795.314 68.37C794.774 68.37 794.319 68.475 793.949 68.685C793.579 68.885 793.299 69.185 793.109 69.585C792.919 69.975 792.824 70.46 792.824 71.04C792.824 71.59 792.939 72.07 793.169 72.48C793.399 72.88 793.724 73.19 794.144 73.41C794.564 73.63 795.049 73.74 795.599 73.74C795.989 73.74 796.349 73.675 796.679 73.545C797.019 73.415 797.384 73.18 797.774 72.84L798.554 73.935C798.314 74.175 798.019 74.385 797.669 74.565C797.329 74.745 796.964 74.89 796.574 75C796.194 75.1 795.819 75.15 795.449 75.15ZM800.563 75V67.125H802.123V69.6L801.973 69C802.083 68.62 802.268 68.275 802.528 67.965C802.798 67.655 803.103 67.41 803.443 67.23C803.793 67.05 804.153 66.96 804.523 66.96C804.693 66.96 804.853 66.975 805.003 67.005C805.163 67.035 805.288 67.07 805.378 67.11L804.973 68.79C804.853 68.74 804.718 68.7 804.568 68.67C804.428 68.63 804.288 68.61 804.148 68.61C803.878 68.61 803.618 68.665 803.368 68.775C803.128 68.875 802.913 69.02 802.723 69.21C802.543 69.39 802.398 69.605 802.288 69.855C802.178 70.095 802.123 70.36 802.123 70.65V75H800.563ZM809.816 75.15C809.046 75.15 808.356 74.975 807.746 74.625C807.146 74.265 806.671 73.78 806.321 73.17C805.971 72.55 805.796 71.845 805.796 71.055C805.796 70.265 805.971 69.565 806.321 68.955C806.671 68.335 807.146 67.85 807.746 67.5C808.356 67.14 809.046 66.96 809.816 66.96C810.576 66.96 811.256 67.14 811.856 67.5C812.466 67.85 812.946 68.335 813.296 68.955C813.646 69.565 813.821 70.265 813.821 71.055C813.821 71.845 813.646 72.55 813.296 73.17C812.946 73.78 812.466 74.265 811.856 74.625C811.256 74.975 810.576 75.15 809.816 75.15ZM809.816 73.74C810.286 73.74 810.706 73.625 811.076 73.395C811.446 73.155 811.736 72.835 811.946 72.435C812.156 72.025 812.256 71.565 812.246 71.055C812.256 70.535 812.156 70.075 811.946 69.675C811.736 69.265 811.446 68.945 811.076 68.715C810.706 68.485 810.286 68.37 809.816 68.37C809.346 68.37 808.921 68.49 808.541 68.73C808.171 68.96 807.881 69.28 807.671 69.69C807.461 70.09 807.361 70.545 807.371 71.055C807.361 71.565 807.461 72.025 807.671 72.435C807.881 72.835 808.171 73.155 808.541 73.395C808.921 73.625 809.346 73.74 809.816 73.74ZM818.265 75.15C817.705 75.15 817.215 75.02 816.795 74.76C816.385 74.5 816.065 74.135 815.835 73.665C815.615 73.195 815.505 72.635 815.505 71.985V67.125H817.05V71.565C817.05 72.025 817.12 72.425 817.26 72.765C817.41 73.095 817.62 73.35 817.89 73.53C818.17 73.71 818.505 73.8 818.895 73.8C819.185 73.8 819.45 73.755 819.69 73.665C819.93 73.565 820.135 73.43 820.305 73.26C820.485 73.09 820.625 72.885 820.725 72.645C820.825 72.405 820.875 72.145 820.875 71.865V67.125H822.42V75H820.875V73.35L821.145 73.17C821.025 73.54 820.82 73.875 820.53 74.175C820.25 74.475 819.915 74.715 819.525 74.895C819.135 75.065 818.715 75.15 818.265 75.15ZM827.212 75.15C826.552 75.15 825.957 75.035 825.427 74.805C824.897 74.575 824.457 74.235 824.107 73.785L825.157 72.885C825.457 73.235 825.782 73.49 826.132 73.65C826.492 73.8 826.897 73.875 827.347 73.875C827.527 73.875 827.692 73.855 827.842 73.815C828.002 73.765 828.137 73.695 828.247 73.605C828.367 73.515 828.457 73.41 828.517 73.29C828.577 73.16 828.607 73.02 828.607 72.87C828.607 72.61 828.512 72.4 828.322 72.24C828.222 72.17 828.062 72.095 827.842 72.015C827.632 71.925 827.357 71.835 827.017 71.745C826.437 71.595 825.962 71.425 825.592 71.235C825.222 71.045 824.937 70.83 824.737 70.59C824.587 70.4 824.477 70.195 824.407 69.975C824.337 69.745 824.302 69.495 824.302 69.225C824.302 68.895 824.372 68.595 824.512 68.325C824.662 68.045 824.862 67.805 825.112 67.605C825.372 67.395 825.672 67.235 826.012 67.125C826.362 67.015 826.732 66.96 827.122 66.96C827.492 66.96 827.857 67.01 828.217 67.11C828.587 67.21 828.927 67.355 829.237 67.545C829.547 67.735 829.807 67.96 830.017 68.22L829.132 69.195C828.942 69.005 828.732 68.84 828.502 68.7C828.282 68.55 828.057 68.435 827.827 68.355C827.597 68.275 827.387 68.235 827.197 68.235C826.987 68.235 826.797 68.255 826.627 68.295C826.457 68.335 826.312 68.395 826.192 68.475C826.082 68.555 825.997 68.655 825.937 68.775C825.877 68.895 825.847 69.03 825.847 69.18C825.857 69.31 825.887 69.435 825.937 69.555C825.997 69.665 826.077 69.76 826.177 69.84C826.287 69.92 826.452 70.005 826.672 70.095C826.892 70.185 827.172 70.27 827.512 70.35C828.012 70.48 828.422 70.625 828.742 70.785C829.072 70.935 829.332 71.11 829.522 71.31C829.722 71.5 829.862 71.72 829.942 71.97C830.022 72.22 830.062 72.5 830.062 72.81C830.062 73.26 829.932 73.665 829.672 74.025C829.422 74.375 829.082 74.65 828.652 74.85C828.222 75.05 827.742 75.15 827.212 75.15ZM837.379 72.54L837.304 70.86L841.069 67.125H843.154L837.379 72.54ZM835.969 75V63.9H837.514V75H835.969ZM841.279 75L838.309 71.535L839.404 70.53L843.259 75H841.279ZM847.832 75.15C847.022 75.15 846.302 74.98 845.672 74.64C845.052 74.29 844.562 73.815 844.202 73.215C843.852 72.615 843.677 71.925 843.677 71.145C843.677 70.525 843.777 69.96 843.977 69.45C844.177 68.94 844.452 68.5 844.802 68.13C845.162 67.75 845.587 67.46 846.077 67.26C846.577 67.05 847.117 66.945 847.697 66.945C848.207 66.945 848.682 67.045 849.122 67.245C849.562 67.435 849.942 67.7 850.262 68.04C850.592 68.38 850.842 68.785 851.012 69.255C851.192 69.715 851.277 70.22 851.267 70.77L851.252 71.43H844.817L844.472 70.2H849.917L849.692 70.455V70.095C849.662 69.765 849.552 69.47 849.362 69.21C849.172 68.95 848.932 68.745 848.642 68.595C848.352 68.445 848.037 68.37 847.697 68.37C847.157 68.37 846.702 68.475 846.332 68.685C845.962 68.885 845.682 69.185 845.492 69.585C845.302 69.975 845.207 70.46 845.207 71.04C845.207 71.59 845.322 72.07 845.552 72.48C845.782 72.88 846.107 73.19 846.527 73.41C846.947 73.63 847.432 73.74 847.982 73.74C848.372 73.74 848.732 73.675 849.062 73.545C849.402 73.415 849.767 73.18 850.157 72.84L850.937 73.935C850.697 74.175 850.402 74.385 850.052 74.565C849.712 74.745 849.347 74.89 848.957 75C848.577 75.1 848.202 75.15 847.832 75.15ZM852.946 75V67.125H854.506V69.6L854.356 69C854.466 68.62 854.651 68.275 854.911 67.965C855.181 67.655 855.486 67.41 855.826 67.23C856.176 67.05 856.536 66.96 856.906 66.96C857.076 66.96 857.236 66.975 857.386 67.005C857.546 67.035 857.671 67.07 857.761 67.11L857.356 68.79C857.236 68.74 857.101 68.7 856.951 68.67C856.811 68.63 856.671 68.61 856.531 68.61C856.261 68.61 856.001 68.665 855.751 68.775C855.511 68.875 855.296 69.02 855.106 69.21C854.926 69.39 854.781 69.605 854.671 69.855C854.561 70.095 854.506 70.36 854.506 70.65V75H852.946ZM858.996 75V67.125H860.541V68.745L860.271 68.925C860.371 68.575 860.566 68.255 860.856 67.965C861.146 67.665 861.491 67.425 861.891 67.245C862.291 67.055 862.701 66.96 863.121 66.96C863.721 66.96 864.221 67.08 864.621 67.32C865.021 67.55 865.321 67.905 865.521 68.385C865.721 68.865 865.821 69.47 865.821 70.2V75H864.276V70.305C864.276 69.855 864.216 69.485 864.096 69.195C863.976 68.895 863.791 68.68 863.541 68.55C863.291 68.41 862.981 68.35 862.611 68.37C862.311 68.37 862.036 68.42 861.786 68.52C861.536 68.61 861.316 68.74 861.126 68.91C860.946 69.08 860.801 69.28 860.691 69.51C860.591 69.73 860.541 69.97 860.541 70.23V75H859.776C859.646 75 859.516 75 859.386 75C859.256 75 859.126 75 858.996 75ZM868.172 75V67.125H869.717V75H868.172ZM868.922 65.385C868.592 65.385 868.337 65.3 868.157 65.13C867.977 64.96 867.887 64.72 867.887 64.41C867.887 64.12 867.977 63.885 868.157 63.705C868.347 63.525 868.602 63.435 868.922 63.435C869.252 63.435 869.507 63.52 869.687 63.69C869.867 63.86 869.957 64.1 869.957 64.41C869.957 64.7 869.862 64.935 869.672 65.115C869.492 65.295 869.242 65.385 868.922 65.385ZM872.092 75V67.125H873.637V68.745L873.367 68.925C873.467 68.575 873.662 68.255 873.952 67.965C874.242 67.665 874.587 67.425 874.987 67.245C875.387 67.055 875.797 66.96 876.217 66.96C876.817 66.96 877.317 67.08 877.717 67.32C878.117 67.55 878.417 67.905 878.617 68.385C878.817 68.865 878.917 69.47 878.917 70.2V75H877.372V70.305C877.372 69.855 877.312 69.485 877.192 69.195C877.072 68.895 876.887 68.68 876.637 68.55C876.387 68.41 876.077 68.35 875.707 68.37C875.407 68.37 875.132 68.42 874.882 68.52C874.632 68.61 874.412 68.74 874.222 68.91C874.042 69.08 873.897 69.28 873.787 69.51C873.687 69.73 873.637 69.97 873.637 70.23V75H872.872C872.742 75 872.612 75 872.482 75C872.352 75 872.222 75 872.092 75ZM884.538 78.45C883.978 78.45 883.418 78.36 882.858 78.18C882.308 78.01 881.863 77.785 881.523 77.505L882.093 76.305C882.293 76.455 882.528 76.585 882.798 76.695C883.068 76.815 883.353 76.905 883.653 76.965C883.953 77.035 884.248 77.07 884.538 77.07C885.088 77.07 885.548 76.98 885.918 76.8C886.288 76.62 886.568 76.355 886.758 76.005C886.948 75.655 887.043 75.22 887.043 74.7V73.185L887.208 73.29C887.158 73.6 886.993 73.9 886.713 74.19C886.443 74.47 886.103 74.7 885.693 74.88C885.283 75.06 884.863 75.15 884.433 75.15C883.683 75.15 883.013 74.975 882.423 74.625C881.843 74.265 881.383 73.78 881.043 73.17C880.703 72.55 880.533 71.845 880.533 71.055C880.533 70.265 880.698 69.565 881.028 68.955C881.368 68.335 881.828 67.85 882.408 67.5C882.998 67.14 883.658 66.96 884.388 66.96C884.688 66.96 884.978 67 885.258 67.08C885.538 67.15 885.798 67.255 886.038 67.395C886.278 67.525 886.493 67.67 886.683 67.83C886.873 67.99 887.028 68.16 887.148 68.34C887.268 68.52 887.343 68.69 887.373 68.85L887.043 68.97V67.125H888.588V74.52C888.588 75.15 888.493 75.705 888.303 76.185C888.123 76.675 887.858 77.085 887.508 77.415C887.158 77.755 886.733 78.01 886.233 78.18C885.733 78.36 885.168 78.45 884.538 78.45ZM884.598 73.725C885.088 73.725 885.523 73.61 885.903 73.38C886.283 73.15 886.578 72.835 886.788 72.435C886.998 72.035 887.103 71.575 887.103 71.055C887.103 70.535 886.993 70.075 886.773 69.675C886.563 69.265 886.268 68.945 885.888 68.715C885.518 68.485 885.088 68.37 884.598 68.37C884.118 68.37 883.688 68.49 883.308 68.73C882.938 68.96 882.643 69.28 882.423 69.69C882.213 70.09 882.108 70.545 882.108 71.055C882.108 71.565 882.213 72.025 882.423 72.435C882.643 72.835 882.938 73.15 883.308 73.38C883.688 73.61 884.118 73.725 884.598 73.725ZM897.988 75.15C897.338 75.15 896.743 74.97 896.203 74.61C895.673 74.25 895.248 73.76 894.928 73.14C894.608 72.52 894.448 71.82 894.448 71.04C894.448 70.25 894.608 69.55 894.928 68.94C895.258 68.32 895.698 67.835 896.248 67.485C896.808 67.135 897.433 66.96 898.123 66.96C898.533 66.96 898.908 67.02 899.248 67.14C899.588 67.26 899.883 67.43 900.133 67.65C900.393 67.86 900.603 68.105 900.763 68.385C900.933 68.665 901.038 68.965 901.078 69.285L900.733 69.165V67.125H902.293V75H900.733V73.125L901.093 73.02C901.033 73.29 900.908 73.555 900.718 73.815C900.538 74.065 900.303 74.29 900.013 74.49C899.733 74.69 899.418 74.85 899.068 74.97C898.728 75.09 898.368 75.15 897.988 75.15ZM898.393 73.725C898.863 73.725 899.278 73.61 899.638 73.38C899.998 73.15 900.278 72.835 900.478 72.435C900.688 72.025 900.793 71.56 900.793 71.04C900.793 70.53 900.688 70.075 900.478 69.675C900.278 69.275 899.998 68.96 899.638 68.73C899.278 68.5 898.863 68.385 898.393 68.385C897.933 68.385 897.523 68.5 897.163 68.73C896.813 68.96 896.533 69.275 896.323 69.675C896.123 70.075 896.023 70.53 896.023 71.04C896.023 71.56 896.123 72.025 896.323 72.435C896.533 72.835 896.813 73.15 897.163 73.38C897.523 73.61 897.933 73.725 898.393 73.725ZM904.45 75V67.125H905.995V68.745L905.725 68.925C905.825 68.575 906.02 68.255 906.31 67.965C906.6 67.665 906.945 67.425 907.345 67.245C907.745 67.055 908.155 66.96 908.575 66.96C909.175 66.96 909.675 67.08 910.075 67.32C910.475 67.55 910.775 67.905 910.975 68.385C911.175 68.865 911.275 69.47 911.275 70.2V75H909.73V70.305C909.73 69.855 909.67 69.485 909.55 69.195C909.43 68.895 909.245 68.68 908.995 68.55C908.745 68.41 908.435 68.35 908.065 68.37C907.765 68.37 907.49 68.42 907.24 68.52C906.99 68.61 906.77 68.74 906.58 68.91C906.4 69.08 906.255 69.28 906.145 69.51C906.045 69.73 905.995 69.97 905.995 70.23V75H905.23C905.1 75 904.97 75 904.84 75C904.71 75 904.58 75 904.45 75ZM916.656 75.15C915.936 75.15 915.291 74.975 914.721 74.625C914.161 74.265 913.716 73.78 913.386 73.17C913.056 72.55 912.891 71.845 912.891 71.055C912.891 70.265 913.051 69.565 913.371 68.955C913.701 68.335 914.146 67.85 914.706 67.5C915.266 67.14 915.901 66.96 916.611 66.96C917.001 66.96 917.376 67.025 917.736 67.155C918.106 67.275 918.436 67.445 918.726 67.665C919.016 67.875 919.241 68.11 919.401 68.37C919.571 68.62 919.656 68.875 919.656 69.135L919.206 69.165V63.9H920.751V75H919.206V73.125H919.506C919.506 73.365 919.426 73.605 919.266 73.845C919.106 74.075 918.891 74.29 918.621 74.49C918.361 74.69 918.056 74.85 917.706 74.97C917.366 75.09 917.016 75.15 916.656 75.15ZM916.866 73.815C917.336 73.815 917.751 73.695 918.111 73.455C918.471 73.215 918.751 72.89 918.951 72.48C919.161 72.06 919.266 71.585 919.266 71.055C919.266 70.525 919.161 70.055 918.951 69.645C918.751 69.225 918.471 68.895 918.111 68.655C917.751 68.415 917.336 68.295 916.866 68.295C916.396 68.295 915.981 68.415 915.621 68.655C915.261 68.895 914.976 69.225 914.766 69.645C914.566 70.055 914.466 70.525 914.466 71.055C914.466 71.585 914.566 72.06 914.766 72.48C914.976 72.89 915.261 73.215 915.621 73.455C915.981 73.695 916.396 73.815 916.866 73.815ZM927.112 75V63.9H928.657V75H927.112ZM934.375 75.15C933.565 75.15 932.845 74.98 932.215 74.64C931.595 74.29 931.105 73.815 930.745 73.215C930.395 72.615 930.22 71.925 930.22 71.145C930.22 70.525 930.32 69.96 930.52 69.45C930.72 68.94 930.995 68.5 931.345 68.13C931.705 67.75 932.13 67.46 932.62 67.26C933.12 67.05 933.66 66.945 934.24 66.945C934.75 66.945 935.225 67.045 935.665 67.245C936.105 67.435 936.485 67.7 936.805 68.04C937.135 68.38 937.385 68.785 937.555 69.255C937.735 69.715 937.82 70.22 937.81 70.77L937.795 71.43H931.36L931.015 70.2H936.46L936.235 70.455V70.095C936.205 69.765 936.095 69.47 935.905 69.21C935.715 68.95 935.475 68.745 935.185 68.595C934.895 68.445 934.58 68.37 934.24 68.37C933.7 68.37 933.245 68.475 932.875 68.685C932.505 68.885 932.225 69.185 932.035 69.585C931.845 69.975 931.75 70.46 931.75 71.04C931.75 71.59 931.865 72.07 932.095 72.48C932.325 72.88 932.65 73.19 933.07 73.41C933.49 73.63 933.975 73.74 934.525 73.74C934.915 73.74 935.275 73.675 935.605 73.545C935.945 73.415 936.31 73.18 936.7 72.84L937.48 73.935C937.24 74.175 936.945 74.385 936.595 74.565C936.255 74.745 935.89 74.89 935.5 75C935.12 75.1 934.745 75.15 934.375 75.15ZM940.464 75V65.115H942.009V75H940.464ZM938.829 68.625V67.125H943.839V68.625H938.829ZM946.221 75V65.115H947.766V75H946.221ZM944.586 68.625V67.125H949.596V68.625H944.586ZM954.605 75.15C953.795 75.15 953.075 74.98 952.445 74.64C951.825 74.29 951.335 73.815 950.975 73.215C950.625 72.615 950.45 71.925 950.45 71.145C950.45 70.525 950.55 69.96 950.75 69.45C950.95 68.94 951.225 68.5 951.575 68.13C951.935 67.75 952.36 67.46 952.85 67.26C953.35 67.05 953.89 66.945 954.47 66.945C954.98 66.945 955.455 67.045 955.895 67.245C956.335 67.435 956.715 67.7 957.035 68.04C957.365 68.38 957.615 68.785 957.785 69.255C957.965 69.715 958.05 70.22 958.04 70.77L958.025 71.43H951.59L951.245 70.2H956.69L956.465 70.455V70.095C956.435 69.765 956.325 69.47 956.135 69.21C955.945 68.95 955.705 68.745 955.415 68.595C955.125 68.445 954.81 68.37 954.47 68.37C953.93 68.37 953.475 68.475 953.105 68.685C952.735 68.885 952.455 69.185 952.265 69.585C952.075 69.975 951.98 70.46 951.98 71.04C951.98 71.59 952.095 72.07 952.325 72.48C952.555 72.88 952.88 73.19 953.3 73.41C953.72 73.63 954.205 73.74 954.755 73.74C955.145 73.74 955.505 73.675 955.835 73.545C956.175 73.415 956.54 73.18 956.93 72.84L957.71 73.935C957.47 74.175 957.175 74.385 956.825 74.565C956.485 74.745 956.12 74.89 955.73 75C955.35 75.1 954.975 75.15 954.605 75.15ZM959.719 75V67.125H961.279V69.6L961.129 69C961.239 68.62 961.424 68.275 961.684 67.965C961.954 67.655 962.259 67.41 962.599 67.23C962.949 67.05 963.309 66.96 963.679 66.96C963.849 66.96 964.009 66.975 964.159 67.005C964.319 67.035 964.444 67.07 964.534 67.11L964.129 68.79C964.009 68.74 963.874 68.7 963.724 68.67C963.584 68.63 963.444 68.61 963.304 68.61C963.034 68.61 962.774 68.665 962.524 68.775C962.284 68.875 962.069 69.02 961.879 69.21C961.699 69.39 961.554 69.605 961.444 69.855C961.334 70.095 961.279 70.36 961.279 70.65V75H959.719ZM965.483 71.475V69.945H969.803V71.475H965.483ZM974.297 75.15C973.637 75.15 973.042 75.035 972.512 74.805C971.982 74.575 971.542 74.235 971.192 73.785L972.242 72.885C972.542 73.235 972.867 73.49 973.217 73.65C973.577 73.8 973.982 73.875 974.432 73.875C974.612 73.875 974.777 73.855 974.927 73.815C975.087 73.765 975.222 73.695 975.332 73.605C975.452 73.515 975.542 73.41 975.602 73.29C975.662 73.16 975.692 73.02 975.692 72.87C975.692 72.61 975.597 72.4 975.407 72.24C975.307 72.17 975.147 72.095 974.927 72.015C974.717 71.925 974.442 71.835 974.102 71.745C973.522 71.595 973.047 71.425 972.677 71.235C972.307 71.045 972.022 70.83 971.822 70.59C971.672 70.4 971.562 70.195 971.492 69.975C971.422 69.745 971.387 69.495 971.387 69.225C971.387 68.895 971.457 68.595 971.597 68.325C971.747 68.045 971.947 67.805 972.197 67.605C972.457 67.395 972.757 67.235 973.097 67.125C973.447 67.015 973.817 66.96 974.207 66.96C974.577 66.96 974.942 67.01 975.302 67.11C975.672 67.21 976.012 67.355 976.322 67.545C976.632 67.735 976.892 67.96 977.102 68.22L976.217 69.195C976.027 69.005 975.817 68.84 975.587 68.7C975.367 68.55 975.142 68.435 974.912 68.355C974.682 68.275 974.472 68.235 974.282 68.235C974.072 68.235 973.882 68.255 973.712 68.295C973.542 68.335 973.397 68.395 973.277 68.475C973.167 68.555 973.082 68.655 973.022 68.775C972.962 68.895 972.932 69.03 972.932 69.18C972.942 69.31 972.972 69.435 973.022 69.555C973.082 69.665 973.162 69.76 973.262 69.84C973.372 69.92 973.537 70.005 973.757 70.095C973.977 70.185 974.257 70.27 974.597 70.35C975.097 70.48 975.507 70.625 975.827 70.785C976.157 70.935 976.417 71.11 976.607 71.31C976.807 71.5 976.947 71.72 977.027 71.97C977.107 72.22 977.147 72.5 977.147 72.81C977.147 73.26 977.017 73.665 976.757 74.025C976.507 74.375 976.167 74.65 975.737 74.85C975.307 75.05 974.827 75.15 974.297 75.15ZM978.85 78.3V67.125H980.41V68.925L980.17 68.79C980.23 68.49 980.4 68.205 980.68 67.935C980.96 67.655 981.3 67.43 981.7 67.26C982.11 67.08 982.53 66.99 982.96 66.99C983.67 66.99 984.3 67.165 984.85 67.515C985.4 67.865 985.835 68.345 986.155 68.955C986.475 69.565 986.635 70.265 986.635 71.055C986.635 71.835 986.475 72.535 986.155 73.155C985.845 73.765 985.415 74.25 984.865 74.61C984.315 74.96 983.695 75.135 983.005 75.135C982.545 75.135 982.1 75.045 981.67 74.865C981.24 74.675 980.875 74.435 980.575 74.145C980.275 73.855 980.09 73.555 980.02 73.245L980.41 73.035V78.3H978.85ZM982.75 73.71C983.21 73.71 983.62 73.595 983.98 73.365C984.34 73.135 984.625 72.82 984.835 72.42C985.045 72.02 985.15 71.565 985.15 71.055C985.15 70.545 985.045 70.095 984.835 69.705C984.635 69.305 984.355 68.99 983.995 68.76C983.635 68.53 983.22 68.415 982.75 68.415C982.28 68.415 981.865 68.53 981.505 68.76C981.145 68.98 980.86 69.29 980.65 69.69C980.44 70.09 980.335 70.545 980.335 71.055C980.335 71.565 980.44 72.02 980.65 72.42C980.86 72.82 981.145 73.135 981.505 73.365C981.865 73.595 982.28 73.71 982.75 73.71ZM991.342 75.15C990.692 75.15 990.097 74.97 989.557 74.61C989.027 74.25 988.602 73.76 988.282 73.14C987.962 72.52 987.802 71.82 987.802 71.04C987.802 70.25 987.962 69.55 988.282 68.94C988.612 68.32 989.052 67.835 989.602 67.485C990.162 67.135 990.787 66.96 991.477 66.96C991.887 66.96 992.262 67.02 992.602 67.14C992.942 67.26 993.237 67.43 993.487 67.65C993.747 67.86 993.957 68.105 994.117 68.385C994.287 68.665 994.392 68.965 994.432 69.285L994.087 69.165V67.125H995.647V75H994.087V73.125L994.447 73.02C994.387 73.29 994.262 73.555 994.072 73.815C993.892 74.065 993.657 74.29 993.367 74.49C993.087 74.69 992.772 74.85 992.422 74.97C992.082 75.09 991.722 75.15 991.342 75.15ZM991.747 73.725C992.217 73.725 992.632 73.61 992.992 73.38C993.352 73.15 993.632 72.835 993.832 72.435C994.042 72.025 994.147 71.56 994.147 71.04C994.147 70.53 994.042 70.075 993.832 69.675C993.632 69.275 993.352 68.96 992.992 68.73C992.632 68.5 992.217 68.385 991.747 68.385C991.287 68.385 990.877 68.5 990.517 68.73C990.167 68.96 989.887 69.275 989.677 69.675C989.477 70.075 989.377 70.53 989.377 71.04C989.377 71.56 989.477 72.025 989.677 72.435C989.887 72.835 990.167 73.15 990.517 73.38C990.877 73.61 991.287 73.725 991.747 73.725ZM1001.15 75.15C1000.42 75.15 999.765 74.97 999.185 74.61C998.615 74.25 998.16 73.76 997.82 73.14C997.49 72.52 997.325 71.825 997.325 71.055C997.325 70.285 997.49 69.59 997.82 68.97C998.16 68.35 998.615 67.86 999.185 67.5C999.765 67.14 1000.42 66.96 1001.15 66.96C1001.85 66.96 1002.48 67.105 1003.05 67.395C1003.63 67.675 1004.07 68.06 1004.37 68.55L1003.52 69.6C1003.36 69.37 1003.15 69.16 1002.9 68.97C1002.65 68.78 1002.39 68.63 1002.11 68.52C1001.83 68.41 1001.56 68.355 1001.3 68.355C1000.82 68.355 1000.39 68.475 1000.01 68.715C999.64 68.945 999.345 69.265 999.125 69.675C998.905 70.085 998.795 70.545 998.795 71.055C998.795 71.565 998.91 72.025 999.14 72.435C999.37 72.835 999.675 73.155 1000.05 73.395C1000.43 73.635 1000.85 73.755 1001.31 73.755C1001.58 73.755 1001.84 73.71 1002.09 73.62C1002.35 73.53 1002.6 73.395 1002.84 73.215C1003.08 73.035 1003.31 72.815 1003.52 72.555L1004.37 73.605C1004.05 74.055 1003.59 74.425 1002.99 74.715C1002.4 75.005 1001.79 75.15 1001.15 75.15ZM1006.09 75V67.125H1007.63V75H1006.09ZM1006.84 65.385C1006.51 65.385 1006.25 65.3 1006.07 65.13C1005.89 64.96 1005.8 64.72 1005.8 64.41C1005.8 64.12 1005.89 63.885 1006.07 63.705C1006.26 63.525 1006.52 63.435 1006.84 63.435C1007.17 63.435 1007.42 63.52 1007.6 63.69C1007.78 63.86 1007.87 64.1 1007.87 64.41C1007.87 64.7 1007.78 64.935 1007.59 65.115C1007.41 65.295 1007.16 65.385 1006.84 65.385ZM1010.01 75V67.125H1011.55V68.745L1011.28 68.925C1011.38 68.575 1011.58 68.255 1011.87 67.965C1012.16 67.665 1012.5 67.425 1012.9 67.245C1013.3 67.055 1013.71 66.96 1014.13 66.96C1014.73 66.96 1015.23 67.08 1015.63 67.32C1016.03 67.55 1016.33 67.905 1016.53 68.385C1016.73 68.865 1016.83 69.47 1016.83 70.2V75H1015.29V70.305C1015.29 69.855 1015.23 69.485 1015.11 69.195C1014.99 68.895 1014.8 68.68 1014.55 68.55C1014.3 68.41 1013.99 68.35 1013.62 68.37C1013.32 68.37 1013.05 68.42 1012.8 68.52C1012.55 68.61 1012.33 68.74 1012.14 68.91C1011.96 69.08 1011.81 69.28 1011.7 69.51C1011.6 69.73 1011.55 69.97 1011.55 70.23V75H1010.79C1010.66 75 1010.53 75 1010.4 75C1010.27 75 1010.14 75 1010.01 75ZM1022.45 78.45C1021.89 78.45 1021.33 78.36 1020.77 78.18C1020.22 78.01 1019.78 77.785 1019.44 77.505L1020.01 76.305C1020.21 76.455 1020.44 76.585 1020.71 76.695C1020.98 76.815 1021.27 76.905 1021.57 76.965C1021.87 77.035 1022.16 77.07 1022.45 77.07C1023 77.07 1023.46 76.98 1023.83 76.8C1024.2 76.62 1024.48 76.355 1024.67 76.005C1024.86 75.655 1024.96 75.22 1024.96 74.7V73.185L1025.12 73.29C1025.07 73.6 1024.91 73.9 1024.63 74.19C1024.36 74.47 1024.02 74.7 1023.61 74.88C1023.2 75.06 1022.78 75.15 1022.35 75.15C1021.6 75.15 1020.93 74.975 1020.34 74.625C1019.76 74.265 1019.3 73.78 1018.96 73.17C1018.62 72.55 1018.45 71.845 1018.45 71.055C1018.45 70.265 1018.61 69.565 1018.94 68.955C1019.28 68.335 1019.74 67.85 1020.32 67.5C1020.91 67.14 1021.57 66.96 1022.3 66.96C1022.6 66.96 1022.89 67 1023.17 67.08C1023.45 67.15 1023.71 67.255 1023.95 67.395C1024.19 67.525 1024.41 67.67 1024.6 67.83C1024.79 67.99 1024.94 68.16 1025.06 68.34C1025.18 68.52 1025.26 68.69 1025.29 68.85L1024.96 68.97V67.125H1026.5V74.52C1026.5 75.15 1026.41 75.705 1026.22 76.185C1026.04 76.675 1025.77 77.085 1025.42 77.415C1025.07 77.755 1024.65 78.01 1024.15 78.18C1023.65 78.36 1023.08 78.45 1022.45 78.45ZM1022.51 73.725C1023 73.725 1023.44 73.61 1023.82 73.38C1024.2 73.15 1024.49 72.835 1024.7 72.435C1024.91 72.035 1025.02 71.575 1025.02 71.055C1025.02 70.535 1024.91 70.075 1024.69 69.675C1024.48 69.265 1024.18 68.945 1023.8 68.715C1023.43 68.485 1023 68.37 1022.51 68.37C1022.03 68.37 1021.6 68.49 1021.22 68.73C1020.85 68.96 1020.56 69.28 1020.34 69.69C1020.13 70.09 1020.02 70.545 1020.02 71.055C1020.02 71.565 1020.13 72.025 1020.34 72.435C1020.56 72.835 1020.85 73.15 1021.22 73.38C1021.6 73.61 1022.03 73.725 1022.51 73.725Z" fill="#E7EFF2"/>
<path d="M661.115 216.502C660.375 216.502 659.69 216.367 659.06 216.097C658.44 215.827 657.895 215.452 657.425 214.972C656.965 214.482 656.605 213.912 656.345 213.262C656.095 212.602 655.97 211.882 655.97 211.102C655.97 210.322 656.095 209.607 656.345 208.957C656.605 208.297 656.965 207.727 657.425 207.247C657.895 206.757 658.44 206.377 659.06 206.107C659.69 205.837 660.375 205.702 661.115 205.702C661.855 205.702 662.535 205.837 663.155 206.107C663.785 206.377 664.33 206.757 664.79 207.247C665.26 207.737 665.62 208.312 665.87 208.972C666.13 209.622 666.26 210.332 666.26 211.102C666.26 211.872 666.13 212.587 665.87 213.247C665.62 213.897 665.26 214.467 664.79 214.957C664.33 215.447 663.785 215.827 663.155 216.097C662.535 216.367 661.855 216.502 661.115 216.502ZM661.115 214.927C661.625 214.927 662.09 214.832 662.51 214.642C662.94 214.452 663.31 214.187 663.62 213.847C663.93 213.497 664.17 213.092 664.34 212.632C664.52 212.162 664.61 211.652 664.61 211.102C664.61 210.552 664.52 210.047 664.34 209.587C664.17 209.117 663.93 208.712 663.62 208.372C663.31 208.022 662.94 207.752 662.51 207.562C662.09 207.372 661.625 207.277 661.115 207.277C660.605 207.277 660.135 207.372 659.705 207.562C659.285 207.752 658.915 208.017 658.595 208.357C658.285 208.697 658.045 209.102 657.875 209.572C657.705 210.032 657.62 210.542 657.62 211.102C657.62 211.652 657.705 212.162 657.875 212.632C658.045 213.102 658.285 213.507 658.595 213.847C658.915 214.187 659.285 214.452 659.705 214.642C660.135 214.832 660.605 214.927 661.115 214.927ZM668.063 219.652V208.477H669.623V210.277L669.383 210.142C669.443 209.842 669.613 209.557 669.893 209.287C670.173 209.007 670.513 208.782 670.913 208.612C671.323 208.432 671.743 208.342 672.173 208.342C672.883 208.342 673.513 208.517 674.063 208.867C674.613 209.217 675.048 209.697 675.368 210.307C675.688 210.917 675.848 211.617 675.848 212.407C675.848 213.187 675.688 213.887 675.368 214.507C675.058 215.117 674.628 215.602 674.078 215.962C673.528 216.312 672.908 216.487 672.218 216.487C671.758 216.487 671.313 216.397 670.883 216.217C670.453 216.027 670.088 215.787 669.788 215.497C669.488 215.207 669.303 214.907 669.233 214.597L669.623 214.387V219.652H668.063ZM671.963 215.062C672.423 215.062 672.833 214.947 673.193 214.717C673.553 214.487 673.838 214.172 674.048 213.772C674.258 213.372 674.363 212.917 674.363 212.407C674.363 211.897 674.258 211.447 674.048 211.057C673.848 210.657 673.568 210.342 673.208 210.112C672.848 209.882 672.433 209.767 671.963 209.767C671.493 209.767 671.078 209.882 670.718 210.112C670.358 210.332 670.073 210.642 669.863 211.042C669.653 211.442 669.548 211.897 669.548 212.407C669.548 212.917 669.653 213.372 669.863 213.772C670.073 214.172 670.358 214.487 670.718 214.717C671.078 214.947 671.493 215.062 671.963 215.062ZM681.201 216.502C680.391 216.502 679.671 216.332 679.041 215.992C678.421 215.642 677.931 215.167 677.571 214.567C677.221 213.967 677.046 213.277 677.046 212.497C677.046 211.877 677.146 211.312 677.346 210.802C677.546 210.292 677.821 209.852 678.171 209.482C678.531 209.102 678.956 208.812 679.446 208.612C679.946 208.402 680.486 208.297 681.066 208.297C681.576 208.297 682.051 208.397 682.491 208.597C682.931 208.787 683.311 209.052 683.631 209.392C683.961 209.732 684.211 210.137 684.381 210.607C684.561 211.067 684.646 211.572 684.636 212.122L684.621 212.782H678.186L677.841 211.552H683.286L683.061 211.807V211.447C683.031 211.117 682.921 210.822 682.731 210.562C682.541 210.302 682.301 210.097 682.011 209.947C681.721 209.797 681.406 209.722 681.066 209.722C680.526 209.722 680.071 209.827 679.701 210.037C679.331 210.237 679.051 210.537 678.861 210.937C678.671 211.327 678.576 211.812 678.576 212.392C678.576 212.942 678.691 213.422 678.921 213.832C679.151 214.232 679.476 214.542 679.896 214.762C680.316 214.982 680.801 215.092 681.351 215.092C681.741 215.092 682.101 215.027 682.431 214.897C682.771 214.767 683.136 214.532 683.526 214.192L684.306 215.287C684.066 215.527 683.771 215.737 683.421 215.917C683.081 216.097 682.716 216.242 682.326 216.352C681.946 216.452 681.571 216.502 681.201 216.502ZM686.315 216.352V208.477H687.86V210.097L687.59 210.277C687.69 209.927 687.885 209.607 688.175 209.317C688.465 209.017 688.81 208.777 689.21 208.597C689.61 208.407 690.02 208.312 690.44 208.312C691.04 208.312 691.54 208.432 691.94 208.672C692.34 208.902 692.64 209.257 692.84 209.737C693.04 210.217 693.14 210.822 693.14 211.552V216.352H691.595V211.657C691.595 211.207 691.535 210.837 691.415 210.547C691.295 210.247 691.11 210.032 690.86 209.902C690.61 209.762 690.3 209.702 689.93 209.722C689.63 209.722 689.355 209.772 689.105 209.872C688.855 209.962 688.635 210.092 688.445 210.262C688.265 210.432 688.12 210.632 688.01 210.862C687.91 211.082 687.86 211.322 687.86 211.582V216.352H687.095C686.965 216.352 686.835 216.352 686.705 216.352C686.575 216.352 686.445 216.352 686.315 216.352ZM702.785 216.502C702.055 216.502 701.4 216.322 700.82 215.962C700.25 215.602 699.795 215.112 699.455 214.492C699.125 213.872 698.96 213.177 698.96 212.407C698.96 211.637 699.125 210.942 699.455 210.322C699.795 209.702 700.25 209.212 700.82 208.852C701.4 208.492 702.055 208.312 702.785 208.312C703.485 208.312 704.12 208.457 704.69 208.747C705.27 209.027 705.71 209.412 706.01 209.902L705.155 210.952C704.995 210.722 704.79 210.512 704.54 210.322C704.29 210.132 704.025 209.982 703.745 209.872C703.465 209.762 703.195 209.707 702.935 209.707C702.455 209.707 702.025 209.827 701.645 210.067C701.275 210.297 700.98 210.617 700.76 211.027C700.54 211.437 700.43 211.897 700.43 212.407C700.43 212.917 700.545 213.377 700.775 213.787C701.005 214.187 701.31 214.507 701.69 214.747C702.07 214.987 702.49 215.107 702.95 215.107C703.22 215.107 703.48 215.062 703.73 214.972C703.99 214.882 704.24 214.747 704.48 214.567C704.72 214.387 704.945 214.167 705.155 213.907L706.01 214.957C705.69 215.407 705.23 215.777 704.63 216.067C704.04 216.357 703.425 216.502 702.785 216.502ZM711.008 216.502C710.238 216.502 709.548 216.327 708.938 215.977C708.338 215.617 707.863 215.132 707.513 214.522C707.163 213.902 706.988 213.197 706.988 212.407C706.988 211.617 707.163 210.917 707.513 210.307C707.863 209.687 708.338 209.202 708.938 208.852C709.548 208.492 710.238 208.312 711.008 208.312C711.768 208.312 712.448 208.492 713.048 208.852C713.658 209.202 714.138 209.687 714.488 210.307C714.838 210.917 715.013 211.617 715.013 212.407C715.013 213.197 714.838 213.902 714.488 214.522C714.138 215.132 713.658 215.617 713.048 215.977C712.448 216.327 711.768 216.502 711.008 216.502ZM711.008 215.092C711.478 215.092 711.898 214.977 712.268 214.747C712.638 214.507 712.928 214.187 713.138 213.787C713.348 213.377 713.448 212.917 713.438 212.407C713.448 211.887 713.348 211.427 713.138 211.027C712.928 210.617 712.638 210.297 712.268 210.067C711.898 209.837 711.478 209.722 711.008 209.722C710.538 209.722 710.113 209.842 709.733 210.082C709.363 210.312 709.073 210.632 708.863 211.042C708.653 211.442 708.553 211.897 708.563 212.407C708.553 212.917 708.653 213.377 708.863 213.787C709.073 214.187 709.363 214.507 709.733 214.747C710.113 214.977 710.538 215.092 711.008 215.092ZM719.456 216.502C718.896 216.502 718.406 216.372 717.986 216.112C717.576 215.852 717.256 215.487 717.026 215.017C716.806 214.547 716.696 213.987 716.696 213.337V208.477H718.241V212.917C718.241 213.377 718.311 213.777 718.451 214.117C718.601 214.447 718.811 214.702 719.081 214.882C719.361 215.062 719.696 215.152 720.086 215.152C720.376 215.152 720.641 215.107 720.881 215.017C721.121 214.917 721.326 214.782 721.496 214.612C721.676 214.442 721.816 214.237 721.916 213.997C722.016 213.757 722.066 213.497 722.066 213.217V208.477H723.611V216.352H722.066V214.702L722.336 214.522C722.216 214.892 722.011 215.227 721.721 215.527C721.441 215.827 721.106 216.067 720.716 216.247C720.326 216.417 719.906 216.502 719.456 216.502ZM725.778 216.352V208.477H727.323V210.097L727.053 210.277C727.153 209.927 727.348 209.607 727.638 209.317C727.928 209.017 728.273 208.777 728.673 208.597C729.073 208.407 729.483 208.312 729.903 208.312C730.503 208.312 731.003 208.432 731.403 208.672C731.803 208.902 732.103 209.257 732.303 209.737C732.503 210.217 732.603 210.822 732.603 211.552V216.352H731.058V211.657C731.058 211.207 730.998 210.837 730.878 210.547C730.758 210.247 730.573 210.032 730.323 209.902C730.073 209.762 729.763 209.702 729.393 209.722C729.093 209.722 728.818 209.772 728.568 209.872C728.318 209.962 728.098 210.092 727.908 210.262C727.728 210.432 727.583 210.632 727.473 210.862C727.373 211.082 727.323 211.322 727.323 211.582V216.352H726.558C726.428 216.352 726.298 216.352 726.168 216.352C726.038 216.352 725.908 216.352 725.778 216.352ZM735.674 216.352V206.467H737.219V216.352H735.674ZM734.039 209.977V208.477H739.049V209.977H734.039ZM744.058 216.502C743.248 216.502 742.528 216.332 741.898 215.992C741.278 215.642 740.788 215.167 740.428 214.567C740.078 213.967 739.903 213.277 739.903 212.497C739.903 211.877 740.003 211.312 740.203 210.802C740.403 210.292 740.678 209.852 741.028 209.482C741.388 209.102 741.813 208.812 742.303 208.612C742.803 208.402 743.343 208.297 743.923 208.297C744.433 208.297 744.908 208.397 745.348 208.597C745.788 208.787 746.168 209.052 746.488 209.392C746.818 209.732 747.068 210.137 747.238 210.607C747.418 211.067 747.503 211.572 747.493 212.122L747.478 212.782H741.043L740.698 211.552H746.143L745.918 211.807V211.447C745.888 211.117 745.778 210.822 745.588 210.562C745.398 210.302 745.158 210.097 744.868 209.947C744.578 209.797 744.263 209.722 743.923 209.722C743.383 209.722 742.928 209.827 742.558 210.037C742.188 210.237 741.908 210.537 741.718 210.937C741.528 211.327 741.433 211.812 741.433 212.392C741.433 212.942 741.548 213.422 741.778 213.832C742.008 214.232 742.333 214.542 742.753 214.762C743.173 214.982 743.658 215.092 744.208 215.092C744.598 215.092 744.958 215.027 745.288 214.897C745.628 214.767 745.993 214.532 746.383 214.192L747.163 215.287C746.923 215.527 746.628 215.737 746.278 215.917C745.938 216.097 745.573 216.242 745.183 216.352C744.803 216.452 744.428 216.502 744.058 216.502ZM749.172 216.352V208.477H750.732V210.952L750.582 210.352C750.692 209.972 750.877 209.627 751.137 209.317C751.407 209.007 751.712 208.762 752.052 208.582C752.402 208.402 752.762 208.312 753.132 208.312C753.302 208.312 753.462 208.327 753.612 208.357C753.772 208.387 753.897 208.422 753.987 208.462L753.582 210.142C753.462 210.092 753.327 210.052 753.177 210.022C753.037 209.982 752.897 209.962 752.757 209.962C752.487 209.962 752.227 210.017 751.977 210.127C751.737 210.227 751.522 210.372 751.332 210.562C751.152 210.742 751.007 210.957 750.897 211.207C750.787 211.447 750.732 211.712 750.732 212.002V216.352H749.172ZM757.847 216.502C757.187 216.502 756.592 216.387 756.062 216.157C755.532 215.927 755.092 215.587 754.742 215.137L755.792 214.237C756.092 214.587 756.417 214.842 756.767 215.002C757.127 215.152 757.532 215.227 757.982 215.227C758.162 215.227 758.327 215.207 758.477 215.167C758.637 215.117 758.772 215.047 758.882 214.957C759.002 214.867 759.092 214.762 759.152 214.642C759.212 214.512 759.242 214.372 759.242 214.222C759.242 213.962 759.147 213.752 758.957 213.592C758.857 213.522 758.697 213.447 758.477 213.367C758.267 213.277 757.992 213.187 757.652 213.097C757.072 212.947 756.597 212.777 756.227 212.587C755.857 212.397 755.572 212.182 755.372 211.942C755.222 211.752 755.112 211.547 755.042 211.327C754.972 211.097 754.937 210.847 754.937 210.577C754.937 210.247 755.007 209.947 755.147 209.677C755.297 209.397 755.497 209.157 755.747 208.957C756.007 208.747 756.307 208.587 756.647 208.477C756.997 208.367 757.367 208.312 757.757 208.312C758.127 208.312 758.492 208.362 758.852 208.462C759.222 208.562 759.562 208.707 759.872 208.897C760.182 209.087 760.442 209.312 760.652 209.572L759.767 210.547C759.577 210.357 759.367 210.192 759.137 210.052C758.917 209.902 758.692 209.787 758.462 209.707C758.232 209.627 758.022 209.587 757.832 209.587C757.622 209.587 757.432 209.607 757.262 209.647C757.092 209.687 756.947 209.747 756.827 209.827C756.717 209.907 756.632 210.007 756.572 210.127C756.512 210.247 756.482 210.382 756.482 210.532C756.492 210.662 756.522 210.787 756.572 210.907C756.632 211.017 756.712 211.112 756.812 211.192C756.922 211.272 757.087 211.357 757.307 211.447C757.527 211.537 757.807 211.622 758.147 211.702C758.647 211.832 759.057 211.977 759.377 212.137C759.707 212.287 759.967 212.462 760.157 212.662C760.357 212.852 760.497 213.072 760.577 213.322C760.657 213.572 760.697 213.852 760.697 214.162C760.697 214.612 760.567 215.017 760.307 215.377C760.057 215.727 759.717 216.002 759.287 216.202C758.857 216.402 758.377 216.502 757.847 216.502Z" fill="#E7EFF2"/>
<circle cx="245.25" cy="182.352" r="15" stroke="#E7EFF2" stroke-width="2"/>
<circle cx="661.75" cy="144.852" r="24.5" stroke="#E7EFF2" stroke-width="2"/>
<line x1="1033.25" y1="91.3516" x2="1033.25" y2="192.352" stroke="#E7EFF2" stroke-width="2"/>
</svg>
