<svg width="16" height="16" viewBox="0 0 16 16" fill="none" xmlns="http://www.w3.org/2000/svg">
<rect width="16" height="16" rx="3" fill="#2B4570"/>
<g clip-path="url(#clip0_1525_10425)">
<path d="M13.9328 6.55839H14.0078V6.48339V4.06445V3.98945H13.9328H2.06738H1.99238V4.06445V6.48339V6.55839H2.06738C2.90679 6.55839 3.58099 7.20698 3.58099 8.0002C3.58099 8.79341 2.90679 9.44201 2.06738 9.44201H1.99238V9.51701V11.9359V12.0109H2.06738H13.9328H14.0078V11.9359V9.51701V9.44201H13.9328C13.0934 9.44201 12.4192 8.79341 12.4192 8.0002C12.4192 7.20698 13.0934 6.55839 13.9328 6.55839Z" stroke="#FAFAFA" stroke-width="0.15"/>
<path d="M14 12.075H14.075V12V9.45256V9.37756H14H13.9327C13.1319 9.37756 12.4864 8.75638 12.4864 8C12.4864 7.24362 13.1319 6.62244 13.9327 6.62244H14H14.075V6.54744V4V3.925H14H2H1.925V4V6.54744V6.62244H2H2.06729C2.86812 6.62244 3.5136 7.24362 3.5136 8C3.5136 8.75638 2.86812 9.37756 2.06729 9.37756H2H1.925V9.45256V12V12.075H2H14ZM13.7904 9.65052V11.7965H2.20959V9.65052C3.09495 9.58118 3.79819 8.87031 3.79819 8C3.79819 7.12969 3.09495 6.41882 2.20959 6.34948V4.20351H13.7904V6.34948C12.9051 6.41882 12.2018 7.12969 12.2018 8C12.2018 8.87031 12.9051 9.58118 13.7904 9.65052Z" fill="#FAFAFA" stroke="#FAFAFA" stroke-width="0.15"/>
<path d="M13.066 10.0513H12.8381V11.0258H13.066V10.0513Z" fill="#FAFAFA" stroke="#FAFAFA" stroke-width="0.12"/>
<path d="M3.16199 10.0513H2.93408V11.0258H3.16199V10.0513Z" fill="#FAFAFA" stroke="#FAFAFA" stroke-width="0.12"/>
<path d="M3.68518 9.79004H3.45728V11.0258H3.68518V9.79004Z" fill="#FAFAFA" stroke="#FAFAFA" stroke-width="0.12"/>
<path d="M10.9921 8.2251H10.7642V11.2587H10.4878V11.4763H11.2684V11.2587H10.9921V8.2251Z" fill="#FAFAFA" stroke="#FAFAFA" stroke-width="0.12"/>
<path d="M5.23595 8.2251H5.00805V11.2587H4.73169V11.4763H5.51186V11.2587H5.23595V8.2251Z" fill="#FAFAFA" stroke="#FAFAFA" stroke-width="0.12"/>
<path d="M7.85242 10.3174H7.62451V11.0259H7.85242V10.3174Z" fill="#FAFAFA" stroke="#FAFAFA" stroke-width="0.12"/>
<path d="M8.37561 10.3174H8.14771V11.0259H8.37561V10.3174Z" fill="#FAFAFA" stroke="#FAFAFA" stroke-width="0.12"/>
<path d="M7.32898 10.0513H7.10107V11.0258H7.32898V10.0513Z" fill="#FAFAFA" stroke="#FAFAFA" stroke-width="0.12"/>
<path d="M6.80579 9.79004H6.57788V11.0258H6.80579V9.79004Z" fill="#FAFAFA" stroke="#FAFAFA" stroke-width="0.12"/>
<path d="M6.2821 9.47266H6.0542V11.0263H6.2821V9.47266Z" fill="#FAFAFA" stroke="#FAFAFA" stroke-width="0.12"/>
<path d="M5.75916 9.07373H5.53125V11.0258H5.75916V9.07373Z" fill="#FAFAFA" stroke="#FAFAFA" stroke-width="0.12"/>
<path d="M12.5428 9.79004H12.3149V11.0258H12.5428V9.79004Z" fill="#FAFAFA" stroke="#FAFAFA" stroke-width="0.12"/>
<path d="M12.0194 9.47266H11.7915V11.0263H12.0194V9.47266Z" fill="#FAFAFA" stroke="#FAFAFA" stroke-width="0.12"/>
<path d="M11.4962 9.07373H11.2683V11.0258H11.4962V9.07373Z" fill="#FAFAFA" stroke="#FAFAFA" stroke-width="0.12"/>
<path d="M8.89856 10.0513H8.67065V11.0258H8.89856V10.0513Z" fill="#FAFAFA" stroke="#FAFAFA" stroke-width="0.12"/>
<path d="M9.42224 9.79004H9.19434V11.0258H9.42224V9.79004Z" fill="#FAFAFA" stroke="#FAFAFA" stroke-width="0.12"/>
<path d="M9.94519 9.47266H9.71729V11.0263H9.94519V9.47266Z" fill="#FAFAFA" stroke="#FAFAFA" stroke-width="0.12"/>
<path d="M10.4689 9.07373H10.241V11.0258H10.4689V9.07373Z" fill="#FAFAFA" stroke="#FAFAFA" stroke-width="0.12"/>
<path d="M4.20813 9.47266H3.98022V11.0263H4.20813V9.47266Z" fill="#FAFAFA" stroke="#FAFAFA" stroke-width="0.12"/>
<path d="M4.73181 9.07373H4.50391V11.0258H4.73181V9.07373Z" fill="#FAFAFA" stroke="#FAFAFA" stroke-width="0.12"/>
<path d="M3.47295 5.23926H2.85115C2.79515 5.23926 2.74976 5.2826 2.74976 5.33607C2.74976 5.38953 2.79515 5.43288 2.85115 5.43288H3.47295C3.52895 5.43288 3.57434 5.38953 3.57434 5.33607C3.57434 5.2826 3.52895 5.23926 3.47295 5.23926Z" fill="#FAFAFA" stroke="#FAFAFA" stroke-width="0.15"/>
<path d="M4.81304 5.23926H4.19123C4.13524 5.23926 4.08984 5.2826 4.08984 5.33607C4.08984 5.38953 4.13524 5.43288 4.19123 5.43288H4.81304C4.86903 5.43288 4.91443 5.38953 4.91443 5.33607C4.91443 5.2826 4.86903 5.23926 4.81304 5.23926Z" fill="#FAFAFA" stroke="#FAFAFA" stroke-width="0.15"/>
<path d="M6.15288 5.23926H5.53108C5.47508 5.23926 5.42969 5.2826 5.42969 5.33607C5.42969 5.38953 5.47508 5.43288 5.53108 5.43288H6.15288C6.20888 5.43288 6.25427 5.38953 6.25427 5.33607C6.25427 5.2826 6.20888 5.23926 6.15288 5.23926Z" fill="#FAFAFA" stroke="#FAFAFA" stroke-width="0.15"/>
<path d="M7.49297 5.23926H6.87117C6.81517 5.23926 6.76978 5.2826 6.76978 5.33607C6.76978 5.38953 6.81517 5.43288 6.87117 5.43288H7.49297C7.54897 5.43288 7.59436 5.38953 7.59436 5.33607C7.59436 5.2826 7.54897 5.23926 7.49297 5.23926Z" fill="#FAFAFA" stroke="#FAFAFA" stroke-width="0.15"/>
<path d="M8.83355 5.23926H8.21174C8.15575 5.23926 8.11035 5.2826 8.11035 5.33607C8.11035 5.38953 8.15575 5.43288 8.21174 5.43288H8.83355C8.88954 5.43288 8.93494 5.38953 8.93494 5.33607C8.93494 5.2826 8.88954 5.23926 8.83355 5.23926Z" fill="#FAFAFA" stroke="#FAFAFA" stroke-width="0.15"/>
<path d="M10.1736 5.23926H9.55183C9.49583 5.23926 9.45044 5.2826 9.45044 5.33607C9.45044 5.38953 9.49583 5.43288 9.55183 5.43288H10.1736C10.2296 5.43288 10.275 5.38953 10.275 5.33607C10.275 5.2826 10.2296 5.23926 10.1736 5.23926Z" fill="#FAFAFA" stroke="#FAFAFA" stroke-width="0.15"/>
<path d="M12.8538 5.23926H12.232C12.176 5.23926 12.1306 5.2826 12.1306 5.33607C12.1306 5.38953 12.176 5.43288 12.232 5.43288H12.8538C12.9098 5.43288 12.9552 5.38953 12.9552 5.33607C12.9552 5.2826 12.9098 5.23926 12.8538 5.23926Z" fill="#FAFAFA" stroke="#FAFAFA" stroke-width="0.15"/>
<path d="M11.5137 5.23926H10.8919C10.8359 5.23926 10.7905 5.2826 10.7905 5.33607C10.7905 5.38953 10.8359 5.43288 10.8919 5.43288H11.5137C11.5697 5.43288 11.6151 5.38953 11.6151 5.33607C11.6151 5.2826 11.5697 5.23926 11.5137 5.23926Z" fill="#FAFAFA" stroke="#FAFAFA" stroke-width="0.15"/>
</g>
<defs>
<clipPath id="clip0_1525_10425">
<rect width="12" height="8" fill="white" transform="translate(2 4)"/>
</clipPath>
</defs>
</svg>
