<svg width="396" height="66" viewBox="0 0 396 66" fill="none" xmlns="http://www.w3.org/2000/svg">
<g clip-path="url(#clip0_1560_3747)">
<path d="M94 66H0V44.9836H0.527142C7.09885 44.9836 12.4441 39.6085 12.4441 33C12.4441 26.3915 7.09885 21.0164 0.527142 21.0164H0V0H94V21.0164H93.4729C86.9011 21.0164 81.5559 26.3915 81.5559 33C81.5559 39.6085 86.9011 44.9836 93.4729 44.9836H94V66ZM1.05428 64.9398H92.9457V46.0332C86.0366 45.754 80.5016 40.0149 80.5016 33C80.5016 25.9851 86.0366 20.246 92.9457 19.9668V1.06018H1.05428V19.9668C7.96336 20.246 13.4984 25.9851 13.4984 33C13.4984 40.0149 7.96336 45.754 1.05428 46.0332V64.9398Z" fill="#FAFAFA"/>
<path d="M86.6832 49.9209H84.8979V57.9606H86.6832V49.9209Z" fill="#FAFAFA"/>
<path d="M9.10215 49.9209H7.31689V57.9606H9.10215V49.9209Z" fill="#FAFAFA"/>
<path d="M13.1998 47.7646H11.4146V57.9601H13.1998V47.7646Z" fill="#FAFAFA"/>
<path d="M70.4369 34.8555H68.6516V59.8829H66.4868V61.6781H72.6017V59.8829H70.4369V34.8555Z" fill="#FAFAFA"/>
<path d="M25.3485 34.8555H23.5632V59.8829H21.3984V61.6781H27.5098V59.8829H25.3485V34.8555Z" fill="#FAFAFA"/>
<path d="M45.8438 52.1152H44.0586V57.9604H45.8438V52.1152Z" fill="#FAFAFA"/>
<path d="M49.9415 52.1152H48.1562V57.9604H49.9415V52.1152Z" fill="#FAFAFA"/>
<path d="M41.7428 49.9209H39.9575V57.9606H41.7428V49.9209Z" fill="#FAFAFA"/>
<path d="M37.6451 47.7646H35.8599V57.9601H37.6451V47.7646Z" fill="#FAFAFA"/>
<path d="M33.544 45.1465H31.7588V57.9641H33.544V45.1465Z" fill="#FAFAFA"/>
<path d="M29.4464 41.8564H27.6611V57.9606H29.4464V41.8564Z" fill="#FAFAFA"/>
<path d="M82.5855 47.7646H80.8003V57.9601H82.5855V47.7646Z" fill="#FAFAFA"/>
<path d="M78.4845 45.1465H76.6992V57.9641H78.4845V45.1465Z" fill="#FAFAFA"/>
<path d="M74.3868 41.8564H72.6016V57.9606H74.3868V41.8564Z" fill="#FAFAFA"/>
<path d="M54.0392 49.9209H52.2539V57.9606H54.0392V49.9209Z" fill="#FAFAFA"/>
<path d="M58.1402 47.7646H56.355V57.9601H58.1402V47.7646Z" fill="#FAFAFA"/>
<path d="M62.2379 45.1465H60.4526V57.9641H62.2379V45.1465Z" fill="#FAFAFA"/>
<path d="M66.3395 41.8564H64.5542V57.9606H66.3395V41.8564Z" fill="#FAFAFA"/>
<path d="M17.2975 45.1465H15.5122V57.9641H17.2975V45.1465Z" fill="#FAFAFA"/>
<path d="M21.3985 41.8564H19.6133V57.9606H21.3985V41.8564Z" fill="#FAFAFA"/>
<path d="M11.5376 10.2236H6.66679C6.22815 10.2236 5.87256 10.5812 5.87256 11.0223C5.87256 11.4634 6.22815 11.821 6.66679 11.821H11.5376C11.9762 11.821 12.3318 11.4634 12.3318 11.0223C12.3318 10.5812 11.9762 10.2236 11.5376 10.2236Z" fill="#FAFAFA"/>
<path d="M22.0347 10.2236H17.1639C16.7252 10.2236 16.3696 10.5812 16.3696 11.0223C16.3696 11.4634 16.7252 11.821 17.1639 11.821H22.0347C22.4733 11.821 22.8289 11.4634 22.8289 11.0223C22.8289 10.5812 22.4733 10.2236 22.0347 10.2236Z" fill="#FAFAFA"/>
<path d="M32.5317 10.2236H27.6609C27.2223 10.2236 26.8667 10.5812 26.8667 11.0223C26.8667 11.4634 27.2223 11.821 27.6609 11.821H32.5317C32.9704 11.821 33.326 11.4634 33.326 11.0223C33.326 10.5812 32.9704 10.2236 32.5317 10.2236Z" fill="#FAFAFA"/>
<path d="M43.0288 10.2236H38.158C37.7194 10.2236 37.3638 10.5812 37.3638 11.0223C37.3638 11.4634 37.7194 11.821 38.158 11.821H43.0288C43.4674 11.821 43.823 11.4634 43.823 11.0223C43.823 10.5812 43.4674 10.2236 43.0288 10.2236Z" fill="#FAFAFA"/>
<path d="M53.5298 10.2236H48.659C48.2203 10.2236 47.8647 10.5812 47.8647 11.0223C47.8647 11.4634 48.2203 11.821 48.659 11.821H53.5298C53.9684 11.821 54.324 11.4634 54.324 11.0223C54.324 10.5812 53.9684 10.2236 53.5298 10.2236Z" fill="#FAFAFA"/>
<path d="M64.0268 10.2236H59.156C58.7174 10.2236 58.3618 10.5812 58.3618 11.0223C58.3618 11.4634 58.7174 11.821 59.156 11.821H64.0268C64.4655 11.821 64.8211 11.4634 64.8211 11.0223C64.8211 10.5812 64.4655 10.2236 64.0268 10.2236Z" fill="#FAFAFA"/>
<path d="M85.021 10.2236H80.1502C79.7115 10.2236 79.356 10.5812 79.356 11.0223C79.356 11.4634 79.7115 11.821 80.1502 11.821H85.021C85.4596 11.821 85.8152 11.4634 85.8152 11.0223C85.8152 10.5812 85.4596 10.2236 85.021 10.2236Z" fill="#FAFAFA"/>
<path d="M74.5239 10.2236H69.6531C69.2145 10.2236 68.8589 10.5812 68.8589 11.0223C68.8589 11.4634 69.2145 11.821 69.6531 11.821H74.5239C74.9625 11.821 75.3181 11.4634 75.3181 11.0223C75.3181 10.5812 74.9625 10.2236 74.5239 10.2236Z" fill="#FAFAFA"/>
</g>
<path d="M116.127 52.5V15.882H131.035C133.023 15.882 134.819 16.3877 136.423 17.3991C138.062 18.3755 139.37 19.7182 140.347 21.427C141.323 23.1359 141.811 25.0365 141.811 27.129C141.811 29.2214 141.323 31.1221 140.347 32.8309C139.37 34.5398 138.062 35.9173 136.423 36.9635C134.819 37.9749 133.023 38.4806 131.035 38.4806H121.776V52.5H116.127ZM121.776 33.0402H130.931C131.872 33.0402 132.727 32.7786 133.494 32.2555C134.261 31.6975 134.871 30.9826 135.325 30.1107C135.813 29.204 136.057 28.2101 136.057 27.129C136.057 26.0479 135.813 25.0714 135.325 24.1995C134.871 23.3277 134.261 22.6302 133.494 22.1071C132.727 21.584 131.872 21.3224 130.931 21.3224H121.776V33.0402ZM149.281 52.5V15.882H164.87C166.962 15.882 168.88 16.4051 170.624 17.4514C172.403 18.4627 173.815 19.8577 174.861 21.6363C175.907 23.38 176.431 25.3504 176.431 27.5475C176.431 29.5353 175.907 31.3836 174.861 33.0925C173.815 34.8013 172.42 36.1788 170.676 37.2251C168.933 38.2364 166.997 38.7421 164.87 38.7421H154.931V52.5H149.281ZM171.042 52.5L161.731 35.9696L167.538 34.6618L177.895 52.5523L171.042 52.5ZM154.931 33.3017H165.393C166.404 33.3017 167.311 33.0576 168.113 32.5694C168.915 32.0462 169.543 31.3488 169.996 30.4769C170.45 29.5702 170.676 28.5763 170.676 27.4952C170.676 26.2746 170.38 25.2109 169.787 24.3042C169.229 23.3626 168.427 22.6302 167.381 22.1071C166.369 21.584 165.218 21.3224 163.928 21.3224H154.931V33.3017ZM185.654 52.5V15.882H208.723V21.3224H191.303V47.0596H208.723V52.5H185.654ZM188.217 36.4404V31H205.846V36.4404H188.217ZM217.786 52.5V15.882H223.331L236.671 37.5913L234.003 37.5389L247.499 15.882H252.73V52.5H247.081V37.4866C247.081 34.348 247.15 31.5231 247.29 29.0122C247.464 26.5012 247.743 24.0077 248.127 21.5317L248.859 23.4672L236.88 41.9854H233.427L221.814 23.6764L222.39 21.5317C222.773 23.8682 223.035 26.2746 223.174 28.7506C223.349 31.1918 223.436 34.1038 223.436 37.4866V52.5H217.786ZM261.637 52.5V47.2689H267.548V21.1132H261.637V15.882H279.109V21.1132H273.198V47.2689H279.109V52.5H261.637ZM287.978 52.5V15.882H311.047V21.3224H293.627V47.0596H311.047V52.5H287.978ZM290.541 36.4404V31H308.17V36.4404H290.541ZM320.11 52.5V15.882H335.699C337.791 15.882 339.71 16.4051 341.453 17.4514C343.232 18.4627 344.644 19.8577 345.69 21.6363C346.737 23.38 347.26 25.3504 347.26 27.5475C347.26 29.5353 346.737 31.3836 345.69 33.0925C344.644 34.8013 343.249 36.1788 341.506 37.2251C339.762 38.2364 337.826 38.7421 335.699 38.7421H325.76V52.5H320.11ZM341.872 52.5L332.56 35.9696L338.367 34.6618L348.725 52.5523L341.872 52.5ZM325.76 33.3017H336.222C337.233 33.3017 338.14 33.0576 338.942 32.5694C339.744 32.0462 340.372 31.3488 340.826 30.4769C341.279 29.5702 341.506 28.5763 341.506 27.4952C341.506 26.2746 341.209 25.2109 340.616 24.3042C340.058 23.3626 339.256 22.6302 338.21 22.1071C337.199 21.584 336.048 21.3224 334.757 21.3224H325.76V33.3017ZM356.483 52.5V15.882H379.552V21.3224H362.133V47.0596H379.552V52.5H356.483ZM359.046 36.4404V31H376.675V36.4404H359.046Z" fill="white"/>
<defs>
<clipPath id="clip0_1560_3747">
<rect width="94" height="66" fill="white"/>
</clipPath>
</defs>
</svg>
