<svg width="404" height="267" viewBox="0 0 404 267" fill="none" xmlns="http://www.w3.org/2000/svg">
<g clip-path="url(#clip0_1726_3929)">
<path d="M404 267H0V181.979H2.26559C30.5099 181.979 53.483 160.234 53.483 133.5C53.483 106.766 30.5099 85.0208 2.26559 85.0208H0V0H404V85.0208H401.734C373.49 85.0208 350.517 106.766 350.517 133.5C350.517 160.234 373.49 181.979 401.734 181.979H404V267ZM4.53118 262.711H399.469V186.225C369.774 185.096 345.986 161.878 345.986 133.5C345.986 105.122 369.774 81.9042 399.469 80.7748V4.28893H4.53118V80.7748C34.2255 81.9042 58.0142 105.122 58.0142 133.5C58.0142 161.878 34.2255 185.096 4.53118 186.225V262.711Z" fill="#2B4570"/>
<path d="M372.554 201.951H364.881V234.476H372.554V201.951Z" fill="#2B4570"/>
<path d="M39.1191 201.951H31.4463V234.476H39.1191V201.951Z" fill="#2B4570"/>
<path d="M56.7304 193.23H49.0576V234.476H56.7304V193.23Z" fill="#2B4570"/>
<path d="M302.728 141.006H295.055V242.253H285.751V249.516H312.032V242.253H302.728V141.006Z" fill="#2B4570"/>
<path d="M108.945 141.006H101.272V242.253H91.9678V249.516H118.234V242.253H108.945V141.006Z" fill="#2B4570"/>
<path d="M197.031 210.83H189.358V234.476H197.031V210.83Z" fill="#2B4570"/>
<path d="M214.642 210.83H206.969V234.476H214.642V210.83Z" fill="#2B4570"/>
<path d="M179.404 201.951H171.731V234.476H179.404V201.951Z" fill="#2B4570"/>
<path d="M161.793 193.23H154.121V234.476H161.793V193.23Z" fill="#2B4570"/>
<path d="M144.167 182.637H136.494V234.49H144.167V182.637Z" fill="#2B4570"/>
<path d="M126.556 169.327H118.883V234.476H126.556V169.327Z" fill="#2B4570"/>
<path d="M354.942 193.23H347.27V234.476H354.942V193.23Z" fill="#2B4570"/>
<path d="M337.316 182.637H329.643V234.49H337.316V182.637Z" fill="#2B4570"/>
<path d="M319.705 169.327H312.032V234.476H319.705V169.327Z" fill="#2B4570"/>
<path d="M232.253 201.951H224.58V234.476H232.253V201.951Z" fill="#2B4570"/>
<path d="M249.879 193.23H242.207V234.476H249.879V193.23Z" fill="#2B4570"/>
<path d="M267.491 182.637H259.818V234.49H267.491V182.637Z" fill="#2B4570"/>
<path d="M285.117 169.327H277.444V234.476H285.117V169.327Z" fill="#2B4570"/>
<path d="M74.3413 182.637H66.6685V234.49H74.3413V182.637Z" fill="#2B4570"/>
<path d="M91.9677 169.327H84.2949V234.476H91.9677V169.327Z" fill="#2B4570"/>
<path d="M49.5863 41.3594H28.6523C26.767 41.3594 25.2388 42.8059 25.2388 44.5904C25.2388 46.3748 26.767 47.8214 28.6523 47.8214H49.5863C51.4715 47.8214 52.9998 46.3748 52.9998 44.5904C52.9998 42.8059 51.4715 41.3594 49.5863 41.3594Z" fill="#2B4570"/>
<path d="M94.7015 41.3594H73.7675C71.8823 41.3594 70.354 42.8059 70.354 44.5904C70.354 46.3748 71.8823 47.8214 73.7675 47.8214H94.7015C96.5868 47.8214 98.115 46.3748 98.115 44.5904C98.115 42.8059 96.5868 41.3594 94.7015 41.3594Z" fill="#2B4570"/>
<path d="M139.817 41.3594H118.883C116.998 41.3594 115.47 42.8059 115.47 44.5904C115.47 46.3748 116.998 47.8214 118.883 47.8214H139.817C141.702 47.8214 143.231 46.3748 143.231 44.5904C143.231 42.8059 141.702 41.3594 139.817 41.3594Z" fill="#2B4570"/>
<path d="M184.932 41.3594H163.998C162.113 41.3594 160.585 42.8059 160.585 44.5904C160.585 46.3748 162.113 47.8214 163.998 47.8214H184.932C186.818 47.8214 188.346 46.3748 188.346 44.5904C188.346 42.8059 186.818 41.3594 184.932 41.3594Z" fill="#2B4570"/>
<path d="M230.063 41.3594H209.129C207.244 41.3594 205.715 42.8059 205.715 44.5904C205.715 46.3748 207.244 47.8214 209.129 47.8214H230.063C231.948 47.8214 233.476 46.3748 233.476 44.5904C233.476 42.8059 231.948 41.3594 230.063 41.3594Z" fill="#2B4570"/>
<path d="M275.179 41.3594H254.245C252.359 41.3594 250.831 42.8059 250.831 44.5904C250.831 46.3748 252.359 47.8214 254.245 47.8214H275.179C277.064 47.8214 278.592 46.3748 278.592 44.5904C278.592 42.8059 277.064 41.3594 275.179 41.3594Z" fill="#2B4570"/>
<path d="M365.41 41.3594H344.476C342.59 41.3594 341.062 42.8059 341.062 44.5904C341.062 46.3748 342.59 47.8214 344.476 47.8214H365.41C367.295 47.8214 368.823 46.3748 368.823 44.5904C368.823 42.8059 367.295 41.3594 365.41 41.3594Z" fill="#2B4570"/>
<path d="M320.294 41.3594H299.36C297.475 41.3594 295.946 42.8059 295.946 44.5904C295.946 46.3748 297.475 47.8214 299.36 47.8214H320.294C322.179 47.8214 323.707 46.3748 323.707 44.5904C323.707 42.8059 322.179 41.3594 320.294 41.3594Z" fill="#2B4570"/>
<path d="M70.5845 126.305V91.3047H85.6845C87.8845 91.3047 89.8345 91.8047 91.5345 92.8047C93.2679 93.8047 94.6345 95.1714 95.6345 96.9047C96.6679 98.638 97.1845 100.588 97.1845 102.755C97.1845 105.021 96.6679 107.055 95.6345 108.855C94.6345 110.621 93.2679 112.021 91.5345 113.055C89.8345 114.088 87.8845 114.605 85.6845 114.605H79.0845V126.305H70.5845ZM78.9345 107.155H84.4845C85.2179 107.155 85.8845 106.971 86.4845 106.605C87.0845 106.238 87.5679 105.738 87.9345 105.105C88.3012 104.471 88.4845 103.738 88.4845 102.905C88.4845 102.038 88.3012 101.305 87.9345 100.705C87.5679 100.105 87.0845 99.638 86.4845 99.3047C85.8845 98.9714 85.2179 98.8047 84.4845 98.8047H78.9345V107.155ZM103.69 126.305V91.3047H119.44C121.673 91.3047 123.69 91.788 125.49 92.7547C127.323 93.7214 128.757 95.0547 129.79 96.7547C130.823 98.4214 131.34 100.321 131.34 102.455C131.34 104.655 130.823 106.638 129.79 108.405C128.757 110.138 127.34 111.505 125.54 112.505C123.74 113.505 121.707 114.005 119.44 114.005H111.79V126.305H103.69ZM123.09 126.305L114.19 110.505L122.89 109.255L132.79 126.305H123.09ZM111.79 107.505H118.69C119.557 107.505 120.307 107.321 120.94 106.955C121.607 106.555 122.107 106.005 122.44 105.305C122.807 104.605 122.99 103.805 122.99 102.905C122.99 102.005 122.79 101.221 122.39 100.555C121.99 99.8547 121.407 99.3214 120.64 98.9547C119.907 98.588 119.007 98.4047 117.94 98.4047H111.79V107.505ZM138.797 126.305V91.3047H163.197V98.5547H147.047V119.055H163.697V126.305H138.797ZM142.797 111.955V105.055H160.947V111.955H142.797ZM171.024 126.305V91.3047H178.624L191.374 112.055L185.924 112.005L198.824 91.3047H206.124V126.305H197.874V115.405C197.874 112.405 197.941 109.705 198.074 107.305C198.241 104.905 198.507 102.521 198.874 100.155L199.824 102.755L190.124 117.805H186.824L177.324 102.855L178.274 100.155C178.641 102.388 178.891 104.688 179.024 107.055C179.191 109.388 179.274 112.171 179.274 115.405V126.305H171.024ZM214.22 126.305V119.155H220.12V98.4547H214.22V91.3047H234.57V98.4547H228.62V119.155H234.57V126.305H214.22ZM242.655 126.305V91.3047H267.055V98.5547H250.905V119.055H267.555V126.305H242.655ZM246.655 111.955V105.055H264.805V111.955H246.655ZM274.881 126.305V91.3047H290.631C292.865 91.3047 294.881 91.788 296.681 92.7547C298.515 93.7214 299.948 95.0547 300.981 96.7547C302.015 98.4214 302.531 100.321 302.531 102.455C302.531 104.655 302.015 106.638 300.981 108.405C299.948 110.138 298.531 111.505 296.731 112.505C294.931 113.505 292.898 114.005 290.631 114.005H282.981V126.305H274.881ZM294.281 126.305L285.381 110.505L294.081 109.255L303.981 126.305H294.281ZM282.981 107.505H289.881C290.748 107.505 291.498 107.321 292.131 106.955C292.798 106.555 293.298 106.005 293.631 105.305C293.998 104.605 294.181 103.805 294.181 102.905C294.181 102.005 293.981 101.221 293.581 100.555C293.181 99.8547 292.598 99.3214 291.831 98.9547C291.098 98.588 290.198 98.4047 289.131 98.4047H282.981V107.505ZM309.989 126.305V91.3047H334.389V98.5547H318.239V119.055H334.889V126.305H309.989ZM313.989 111.955V105.055H332.139V111.955H313.989Z" fill="#2B4570"/>
</g>
<defs>
<clipPath id="clip0_1726_3929">
<rect width="404" height="267" fill="white"/>
</clipPath>
</defs>
</svg>
