<svg width="35" height="35" viewBox="0 0 35 35" fill="none" xmlns="http://www.w3.org/2000/svg">
<g clip-path="url(#clip0_1728_5584)">
<path d="M26.25 9.53743C27.8609 9.53743 29.1667 8.2316 29.1667 6.62077C29.1667 5.00994 27.8609 3.7041 26.25 3.7041C24.6392 3.7041 23.3334 5.00994 23.3334 6.62077C23.3334 8.2316 24.6392 9.53743 26.25 9.53743Z" fill="#212325"/>
<path d="M21.875 24.7913H18.9583C18.9583 27.1976 16.9895 29.1663 14.5833 29.1663C12.177 29.1663 10.2083 27.1976 10.2083 24.7913C10.2083 22.3851 12.177 20.4163 14.5833 20.4163V17.4997C10.5583 17.4997 7.29163 20.7663 7.29163 24.7913C7.29163 28.8163 10.5583 32.083 14.5833 32.083C18.6083 32.083 21.875 28.8163 21.875 24.7913ZM26.25 19.6872H23.5375L25.9729 14.3351C26.8625 12.3955 25.4333 10.208 23.275 10.208H15.6916C14.5104 10.208 13.4458 10.8934 12.9645 11.958L12.5562 13.0663C12.25 13.883 12.7166 14.7726 13.5479 15.0059C14.2625 15.2101 15.0062 14.8455 15.2979 14.1601L15.7354 13.1247H18.9583L16.2895 19.1038C15.4145 21.0434 16.8583 23.333 18.9875 23.333H26.25V29.1663C26.25 29.9684 26.9062 30.6247 27.7083 30.6247C28.5104 30.6247 29.1666 29.9684 29.1666 29.1663V22.6038C29.1666 20.9997 27.8541 19.6872 26.25 19.6872Z" fill="#212325"/>
</g>
<defs>
<clipPath id="clip0_1728_5584">
<rect width="35" height="35" fill="white"/>
</clipPath>
</defs>
</svg>
