<svg width="29" height="28" viewBox="0 0 29 28" fill="none" xmlns="http://www.w3.org/2000/svg">
<path d="M5.1661 25.0502L7.38854 23.2722L7.40488 23.2597C7.86821 22.889 8.10201 22.702 8.36287 22.5687C8.59689 22.4491 8.84645 22.3621 9.10388 22.3092C9.39405 22.2497 9.6963 22.2497 10.303 22.2497H22.9628C24.5931 22.2497 25.4092 22.2497 26.0325 21.9321C26.5813 21.6525 27.0278 21.2058 27.3074 20.657C27.625 20.0337 27.625 19.2185 27.625 17.5882V6.49517C27.625 4.86487 27.625 4.04851 27.3074 3.42521C27.0278 2.87641 26.5804 2.43054 26.0316 2.15091C25.4077 1.83301 24.5921 1.83301 22.9586 1.83301H6.04195C4.40847 1.83301 3.59111 1.83301 2.9672 2.15091C2.4184 2.43054 1.97253 2.87641 1.6929 3.42521C1.375 4.04912 1.375 4.86647 1.375 6.49996V23.2285C1.375 24.7826 1.375 25.5596 1.69358 25.9587C1.97065 26.3058 2.39064 26.5077 2.83476 26.5072C3.34543 26.5067 3.95251 26.021 5.1661 25.0502Z" stroke="#212325" stroke-width="2" stroke-linecap="round" stroke-linejoin="round"/>
</svg>
