<svg width="35" height="35" viewBox="0 0 35 35" fill="none" xmlns="http://www.w3.org/2000/svg">
<path d="M4.375 17.5H11.6667M4.375 17.5C4.375 24.7487 10.2513 30.625 17.5 30.625M4.375 17.5C4.375 10.2513 10.2513 4.375 17.5 4.375M11.6667 17.5H23.3333M11.6667 17.5C11.6667 24.7487 14.2783 30.625 17.5 30.625M11.6667 17.5C11.6667 10.2513 14.2783 4.375 17.5 4.375M23.3333 17.5H30.625M23.3333 17.5C23.3333 10.2513 20.7217 4.375 17.5 4.375M23.3333 17.5C23.3333 24.7487 20.7217 30.625 17.5 30.625M30.625 17.5C30.625 10.2513 24.7487 4.375 17.5 4.375M30.625 17.5C30.625 24.7487 24.7487 30.625 17.5 30.625" stroke="#FAFAFA" stroke-width="2" stroke-linecap="round" stroke-linejoin="round"/>
</svg>
