<svg width="657" height="343" viewBox="0 0 657 343" fill="none" xmlns="http://www.w3.org/2000/svg">
<g clip-path="url(#clip0_1725_4295)">
<path d="M287.832 157.809C292.31 114.585 263.358 75.6648 221.961 66.9575L222.121 66.7885C221.105 66.687 220.107 66.5602 219.116 66.425C217.965 66.2221 216.796 66.0445 215.628 65.8924C189.207 61.3528 170.405 45.9164 161.025 36.4145C148.479 19.7947 129.372 8.22163 107.073 5.91379C64.3642 1.50098 26.1419 32.7203 21.6974 75.6394C19.1069 100.628 28.5546 124.062 45.3165 140.158C45.2403 140.141 45.198 140.132 45.198 140.132C53.2573 148.036 48.7621 154.377 48.6351 154.808C39.5684 161.233 31.2466 169.187 24.0763 178.596C-10.8699 224.449 -5.181 287.479 36.7916 319.375C78.7558 351.27 141.114 339.951 176.06 294.098C184.652 282.821 190.782 270.513 194.523 257.883C199.061 249.142 217.77 237.045 232.949 228.295C262.215 217.661 284.403 190.981 287.84 157.809H287.832Z" fill="#ADE1F7"/>
<path d="M241.169 226.926L123.04 69.0707C120.127 65.1736 114.422 63.1531 110.265 64.5395L9.60004 98.1259C5.7651 99.4108 2.02329 111.643 3.98732 114.737L121.931 300.219C125.689 306.128 132.995 308.478 138.185 305.452L239.383 246.394C242.075 244.822 244.124 230.865 241.169 226.909V226.926Z" fill="#173644"/>
<path d="M226.227 214.499L123.878 77.7358C121.355 74.3628 116.411 72.6045 112.805 73.8133L25.5916 102.911C22.2646 104.018 16.3386 109.259 20.7323 117.299L122.921 278.003C126.18 283.126 131.437 288.206 135.924 285.586L236.826 231.474C239.154 230.113 228.784 217.914 226.227 214.499Z" fill="#E3F8FF"/>
<path d="M84.748 93.5713C86.6188 92.931 87.6156 90.8974 86.9744 89.0292C86.3331 87.161 84.2966 86.1656 82.4257 86.806L66.225 92.3512C64.3542 92.9915 63.3574 95.0251 63.9987 96.8933C64.6399 98.7615 66.6764 99.7569 68.5473 99.1165L84.748 93.5713Z" fill="#173644"/>
<path d="M207.471 245.522C208.08 245.214 208.323 244.471 208.014 243.863C207.705 243.255 206.961 243.013 206.353 243.321L176.527 258.438C175.918 258.746 175.675 259.489 175.984 260.097C176.293 260.705 177.037 260.948 177.645 260.639L207.471 245.522Z" fill="#173644"/>
<path d="M173.722 187.11L176.705 193.04C178.395 196.402 177.036 200.499 173.67 202.187L126.661 225.766C125.542 226.327 124.178 225.876 123.615 224.758L118.003 213.601C116.635 210.881 117.735 207.567 120.458 206.201L164.569 184.076C167.936 182.387 172.038 183.745 173.729 187.106L173.722 187.11Z" fill="#D8B164"/>
<path d="M174.425 188.508L176.005 191.65C177.48 194.581 176.294 198.156 173.359 199.629L125.306 223.731C124.33 224.22 123.137 223.825 122.647 222.851L117.502 212.623C117.011 211.648 117.407 210.456 118.383 209.967L166.435 185.865C169.37 184.393 172.95 185.577 174.425 188.508Z" fill="#F9CB58"/>
<path d="M241.245 220.604C276.447 220.604 304.983 192.108 304.983 156.956C304.983 121.805 276.447 93.3086 241.245 93.3086C206.044 93.3086 177.507 121.805 177.507 156.956C177.507 192.108 206.044 220.604 241.245 220.604Z" fill="#F9CB58"/>
<path d="M241.245 212.497C271.963 212.497 296.864 187.631 296.864 156.956C296.864 126.282 271.963 101.416 241.245 101.416C210.528 101.416 185.626 126.282 185.626 156.956C185.626 187.631 210.528 212.497 241.245 212.497Z" fill="#F4EBD7"/>
<path d="M270.553 195.336C284.276 187.499 291.54 175.368 291.54 157.582L270.553 195.336Z" fill="white"/>
<path d="M147.802 91.8882C153.812 67.3811 149.164 52.8155 163.844 38.1991C168.898 33.1269 180.47 26.5162 189.943 24.276C204.344 20.8691 217.787 25.6032 219.98 34.8515C221.766 42.3668 215.56 50.5499 205.453 55.174L147.802 91.8882Z" fill="#CBFF4D"/>
<path d="M139.945 95.6164C135.069 75.7249 138.836 63.9067 126.925 52.0463C122.828 47.9293 113.431 42.5613 105.744 40.7437C94.0616 37.9794 83.1494 41.8258 81.3716 49.3242C79.924 55.4193 84.9526 62.0638 93.1643 65.8173L139.954 95.6079L139.945 95.6164Z" fill="#FFD9FA"/>
<path d="M214.071 295.063C233.66 292.012 244.174 286.517 257.381 289.662C261.961 290.735 268.606 294.362 271.628 298.073C276.208 303.711 274.431 310.838 267.658 313.983C262.147 316.544 255.036 315.682 250.1 312.25L214.079 295.063H214.071Z" fill="#EFEF3F"/>
<path d="M200.822 291.876C212.022 280.345 216.153 271.655 226.244 267.251C229.732 265.712 235.819 264.824 239.586 265.754C245.317 267.174 247.645 272.661 244.792 278.004C242.473 282.349 237.444 285.265 232.568 285.443L200.822 291.876Z" fill="#EFEF3F"/>
<path d="M99.0056 200.686C75.8013 179.84 68.0806 161.715 46.0446 157.023C38.4255 155.366 24.8043 156.685 16.0847 161.013C2.83595 167.582 -3.48789 181.801 1.96399 192.782C6.39998 201.701 17.2445 205.733 28.2667 203.408L99.0056 200.686Z" fill="#54D174"/>
<path d="M92.6648 189.739C93.359 173.551 98.0828 164.463 92.6817 154.09C90.8277 150.489 85.7907 145.476 81.1684 143.413C74.1504 140.277 66.3451 142.45 63.7377 148.266C61.6213 152.991 63.5938 158.672 68.1737 162.316L92.6648 189.739Z" fill="#54D174"/>
<path d="M90.6839 204.601C79.069 206.19 72.3727 203.535 65.16 209.352C62.6542 211.355 59.2679 216.148 57.9727 220.206C56.0087 226.377 57.8711 232.472 62.1378 233.825C65.6087 234.924 69.596 232.557 72.0172 228.322L90.6754 204.601H90.6839Z" fill="#54D174"/>
<path d="M255.07 251.595L189.038 242.735L245.436 221.39L255.07 251.595Z" fill="#FFD9FA"/>
<path d="M4.8339 148.874L45.0965 124.959L2.72595 126.684L4.8339 148.874Z" fill="#49DB4C"/>
<path d="M20.9609 106.632L39.3314 110.588L27.5133 97.5947L20.9609 106.632Z" fill="#4A84D8"/>
<path d="M124.182 135.18C129.126 137.42 133.842 132.948 137.296 125.348C140.47 118.365 141.164 111.645 135.958 109.286C131.268 107.156 126.18 111.78 122.887 119.025C119.382 126.286 119.492 133.049 124.182 135.18Z" fill="#D13622"/>
<path d="M161.313 149.458C156.623 147.327 151.45 151.918 148.149 159.162C144.729 166.458 144.923 173.263 149.529 175.351C154.473 177.591 159.188 173.119 162.642 165.519C165.816 158.537 166.511 151.816 161.304 149.458H161.313Z" fill="#D13622"/>
<path d="M177.618 73.2399C176.128 70.0529 172.191 68.3368 168.83 69.4189L113.456 87.1969L79.7378 163.905C77.0373 170.093 79.8733 177.296 86.0701 179.993L152.813 209.056C159.01 211.753 166.223 208.921 168.923 202.733L202.253 125.855L177.618 73.2399ZM160.271 84.4072C161.744 81.0173 165.698 79.4703 169.093 80.9412C172.487 82.4121 174.037 86.36 172.564 89.7499C171.091 93.1398 167.137 94.6868 163.742 93.2159C160.348 91.745 158.798 87.7971 160.271 84.4072ZM116.8 116.582C122.024 105.093 131.014 101.391 138.354 104.713C146.117 108.238 148.42 116.742 143.433 127.698C137.922 139.804 129.05 143.033 121.888 139.779C114.98 136.642 111.619 128.189 116.8 116.573V116.582ZM168.695 167.845C163.184 179.95 154.312 183.18 147.234 179.967C140.326 176.831 136.966 168.386 142.113 156.855C147.378 145.273 156.369 141.571 163.7 144.901C171.463 148.418 173.681 156.889 168.695 167.853V167.845ZM115.175 165.85L110.4 163.685L169.998 119.076L174.773 121.24L115.175 165.85Z" fill="#D13622"/>
<path opacity="0.66" d="M139.074 248.153C139.074 234.678 127.315 223.765 112.805 223.765C99.8607 223.765 89.1178 232.455 86.9506 243.901C83.886 242.439 80.3389 241.602 76.5632 241.602C65.7018 241.602 56.7621 248.5 55.6616 257.343H47.56C41.524 257.343 36.6393 262.229 36.6393 268.248C36.6393 273.523 40.9229 277.8 46.2055 277.8H128.652C134.409 277.8 139.074 273.142 139.074 267.394V248.162V248.153Z" fill="#CFF1F9"/>
<path opacity="0.7" d="M176.322 152.856C176.322 142.525 185.338 134.156 196.462 134.156C206.384 134.156 214.621 140.826 216.289 149.593C218.642 148.477 221.351 147.826 224.255 147.826C232.585 147.826 239.434 153.109 240.28 159.889H246.494C251.116 159.889 254.866 163.634 254.866 168.25C254.866 172.291 251.582 175.571 247.535 175.571H184.322C179.912 175.571 176.331 171.995 176.331 167.59V157.81C176.331 157.125 176.331 153.862 176.331 152.847L176.322 152.856Z" fill="#92F5FF"/>
<path opacity="0.7" d="M109.393 119.912C109.393 111.906 102.4 105.405 93.7738 105.405C86.0786 105.405 79.687 110.57 78.4002 117.376C76.5801 116.505 74.4722 116.006 72.2203 116.006C65.761 116.006 60.4446 120.106 59.7928 125.364H54.9758C51.3864 125.364 48.4827 128.264 48.4827 131.848C48.4827 134.985 51.0308 137.529 54.1716 137.529H103.188C106.608 137.529 109.384 134.756 109.384 131.341V119.912H109.393Z" fill="#92F5FF"/>
</g>
<path d="M630.334 303.978C645.626 286.061 676.171 186.786 639.276 176.122C602.381 165.457 580.315 204.571 534.818 170.135C487.946 134.665 529.155 93.1415 529.61 70.902C530.355 34.8932 433.813 7.99219 418.305 73.3197C402.797 138.656 420.847 174.673 433.407 185.469C445.968 196.266 428.82 196.896 424.871 188.044C420.921 179.193 366.126 151.29 349.467 205.705C332.808 260.12 405.985 301.055 405.985 301.055L630.334 303.97V303.978Z" fill="#688CA7"/>
<path d="M532.987 159.67C535.024 153.568 534.958 147.879 530.247 146.306C525.999 144.89 522.083 149.155 519.963 155.489C517.67 161.847 518.432 167.511 522.679 168.927C527.158 170.425 530.768 166.31 532.987 159.67Z" fill="#E32D30"/>
<path d="M556.039 178.017C551.791 176.602 547.8 180.841 545.681 187.175C543.462 193.559 544.306 199.247 548.471 200.638C552.95 202.136 556.56 198.021 558.779 191.381C560.816 185.279 560.75 179.591 556.039 178.017Z" fill="#E32D30"/>
<path d="M583.272 157.103L564.534 111.448C563.292 108.41 559.641 107.184 556.818 108.848L514.293 133.887C512.057 134.657 510.194 136.412 509.383 138.821L492.542 188.864C491.018 193.377 493.452 198.27 497.965 199.794L556.445 219.466C560.958 220.99 565.851 218.556 567.374 214.043L584.215 164C585.027 161.591 584.596 159.065 583.288 157.103H583.272ZM558.374 116.607C561.562 117.675 563.276 121.119 562.216 124.299C561.156 127.478 557.704 129.2 554.524 128.14C551.345 127.081 549.623 123.628 550.682 120.448C551.742 117.269 555.195 115.547 558.374 116.607ZM514.483 153.907C517.836 143.872 525.205 140.063 531.846 142.282C538.875 144.634 541.699 151.589 538.494 161.16C534.959 171.742 527.64 175.128 521.157 172.959C514.674 170.79 511.179 164.042 514.483 153.899V153.907ZM513.647 193.89L560.486 151.87L564.808 153.319L517.969 195.339L513.647 193.89ZM546.948 204.679C540.697 202.584 536.971 195.761 540.25 185.701C543.628 175.584 550.997 171.783 557.637 174.002C564.667 176.354 567.416 183.275 564.212 192.855C560.676 203.437 553.357 206.823 546.948 204.679Z" fill="#E32D30"/>
<path d="M477.668 126.377L409.145 174.524C406.876 176.122 406.321 179.26 407.919 181.529L438.753 225.404C440.351 227.672 443.489 228.227 445.758 226.629L514.282 178.482C516.55 176.884 517.105 173.746 515.507 171.477L484.673 127.603C483.075 125.334 479.937 124.779 477.668 126.377ZM417.955 180.254C416.456 181.305 414.386 180.949 413.334 179.451C412.283 177.952 412.639 175.882 414.138 174.831C415.636 173.779 417.706 174.135 418.758 175.634C419.809 177.132 419.453 179.202 417.955 180.254ZM425.696 174.814C424.198 175.866 422.128 175.51 421.076 174.011C420.025 172.512 420.381 170.442 421.879 169.391C423.378 168.339 425.448 168.695 426.499 170.194C427.551 171.693 427.195 173.763 425.696 174.814ZM433.438 169.374C431.939 170.426 429.869 170.07 428.818 168.571C427.766 167.072 428.122 165.003 429.621 163.951C431.119 162.899 433.189 163.256 434.241 164.754C435.292 166.253 434.936 168.323 433.438 169.374ZM441.179 163.934C439.681 164.986 437.611 164.63 436.559 163.131C435.508 161.633 435.864 159.563 437.362 158.511C438.861 157.46 440.931 157.816 441.982 159.314C443.034 160.813 442.678 162.883 441.179 163.934ZM448.921 158.495C447.422 159.546 445.352 159.19 444.301 157.692C443.249 156.193 443.605 154.123 445.104 153.071C446.603 152.02 448.673 152.376 449.724 153.875C450.776 155.373 450.42 157.443 448.921 158.495ZM456.663 153.055C455.164 154.106 453.094 153.75 452.042 152.252C450.991 150.753 451.347 148.683 452.846 147.632C454.344 146.58 456.414 146.936 457.466 148.435C458.517 149.933 458.161 152.003 456.663 153.055ZM464.404 147.615C462.906 148.667 460.836 148.31 459.784 146.812C458.732 145.313 459.089 143.243 460.587 142.192C462.086 141.14 464.156 141.496 465.207 142.995C466.259 144.494 465.903 146.563 464.404 147.615ZM472.146 142.175C470.647 143.227 468.577 142.871 467.526 141.372C466.474 139.873 466.83 137.803 468.329 136.752C469.827 135.7 471.897 136.056 472.949 137.555C474 139.054 473.644 141.124 472.146 142.175ZM479.887 136.735C478.389 137.787 476.319 137.431 475.267 135.932C474.216 134.434 474.572 132.364 476.07 131.312C477.569 130.261 479.639 130.617 480.69 132.115C481.742 133.614 481.386 135.684 479.887 136.735Z" fill="#195F0E"/>
<path d="M414.277 188.798L489.269 136.112L514.253 171.674C515.619 173.618 515.149 176.306 513.205 177.672L445.252 225.412C443.308 226.778 440.62 226.309 439.254 224.364L414.27 188.803L414.277 188.798Z" fill="white"/>
<path d="M476.27 160.822C478.424 160.822 480.17 159.076 480.17 156.922C480.17 154.768 478.424 153.022 476.27 153.022C474.116 153.022 472.37 154.768 472.37 156.922C472.37 159.076 474.116 160.822 476.27 160.822Z" fill="#429615"/>
<path d="M485.79 154.132C487.944 154.132 489.69 152.386 489.69 150.232C489.69 148.078 487.944 146.332 485.79 146.332C483.636 146.332 481.891 148.078 481.891 150.232C481.891 152.386 483.636 154.132 485.79 154.132Z" fill="#429615"/>
<path d="M466.74 167.511C468.894 167.511 470.64 165.765 470.64 163.612C470.64 161.458 468.894 159.712 466.74 159.712C464.586 159.712 462.84 161.458 462.84 163.612C462.84 165.765 464.586 167.511 466.74 167.511Z" fill="#429615"/>
<path d="M444.002 195.895C446.156 195.895 447.902 194.149 447.902 191.995C447.902 189.842 446.156 188.096 444.002 188.096C441.848 188.096 440.102 189.842 440.102 191.995C440.102 194.149 441.848 195.895 444.002 195.895Z" fill="#429615"/>
<path d="M434.48 202.585C436.634 202.585 438.38 200.839 438.38 198.685C438.38 196.531 436.634 194.785 434.48 194.785C432.326 194.785 430.58 196.531 430.58 198.685C430.58 200.839 432.326 202.585 434.48 202.585Z" fill="#429615"/>
<path d="M482.097 169.125C484.251 169.125 485.997 167.379 485.997 165.225C485.997 163.071 484.251 161.325 482.097 161.325C479.943 161.325 478.197 163.071 478.197 165.225C478.197 167.379 479.943 169.125 482.097 169.125Z" fill="#429615"/>
<path d="M491.619 162.428C493.773 162.428 495.519 160.681 495.519 158.528C495.519 156.374 493.773 154.628 491.619 154.628C489.465 154.628 487.719 156.374 487.719 158.528C487.719 160.681 489.465 162.428 491.619 162.428Z" fill="#429615"/>
<path d="M453.524 189.196C455.678 189.196 457.424 187.45 457.424 185.296C457.424 183.142 455.678 181.396 453.524 181.396C451.371 181.396 449.625 183.142 449.625 185.296C449.625 187.45 451.371 189.196 453.524 189.196Z" fill="#429615"/>
<path d="M463.047 182.507C465.2 182.507 466.946 180.761 466.946 178.607C466.946 176.453 465.2 174.707 463.047 174.707C460.893 174.707 459.147 176.453 459.147 178.607C459.147 180.761 460.893 182.507 463.047 182.507Z" fill="#429615"/>
<path d="M472.576 175.816C474.73 175.816 476.476 174.07 476.476 171.916C476.476 169.763 474.73 168.017 472.576 168.017C470.423 168.017 468.677 169.763 468.677 171.916C468.677 174.07 470.423 175.816 472.576 175.816Z" fill="#429615"/>
<path d="M449.609 203.877C451.763 203.877 453.509 202.131 453.509 199.977C453.509 197.823 451.763 196.077 449.609 196.077C447.456 196.077 445.71 197.823 445.71 199.977C445.71 202.131 447.456 203.877 449.609 203.877Z" fill="#429615"/>
<path d="M440.087 210.566C442.241 210.566 443.987 208.82 443.987 206.666C443.987 204.513 442.241 202.767 440.087 202.767C437.933 202.767 436.187 204.513 436.187 206.666C436.187 208.82 437.933 210.566 440.087 210.566Z" fill="#429615"/>
<path d="M487.704 177.108C489.858 177.108 491.604 175.362 491.604 173.208C491.604 171.055 489.858 169.309 487.704 169.309C485.55 169.309 483.804 171.055 483.804 173.208C483.804 175.362 485.55 177.108 487.704 177.108Z" fill="#429615"/>
<path d="M497.226 170.408C499.38 170.408 501.126 168.662 501.126 166.508C501.126 164.354 499.38 162.608 497.226 162.608C495.073 162.608 493.327 164.354 493.327 166.508C493.327 168.662 495.073 170.408 497.226 170.408Z" fill="#429615"/>
<path d="M459.13 197.178C461.284 197.178 463.03 195.431 463.03 193.278C463.03 191.124 461.284 189.378 459.13 189.378C456.976 189.378 455.23 191.124 455.23 193.278C455.23 195.431 456.976 197.178 459.13 197.178Z" fill="#429615"/>
<path d="M468.661 190.489C470.815 190.489 472.561 188.743 472.561 186.589C472.561 184.435 470.815 182.689 468.661 182.689C466.508 182.689 464.762 184.435 464.762 186.589C464.762 188.743 466.508 190.489 468.661 190.489Z" fill="#429615"/>
<path d="M478.182 183.798C480.336 183.798 482.082 182.052 482.082 179.898C482.082 177.744 480.336 175.998 478.182 175.998C476.028 175.998 474.282 177.744 474.282 179.898C474.282 182.052 476.028 183.798 478.182 183.798Z" fill="#429615"/>
<path d="M455.215 211.857C457.368 211.857 459.114 210.111 459.114 207.957C459.114 205.804 457.368 204.058 455.215 204.058C453.061 204.058 451.315 205.804 451.315 207.957C451.315 210.111 453.061 211.857 455.215 211.857Z" fill="#429615"/>
<path d="M445.692 218.548C447.846 218.548 449.592 216.802 449.592 214.648C449.592 212.494 447.846 210.748 445.692 210.748C443.538 210.748 441.792 212.494 441.792 214.648C441.792 216.802 443.538 218.548 445.692 218.548Z" fill="#429615"/>
<path d="M493.317 185.091C495.471 185.091 497.217 183.345 497.217 181.191C497.217 179.037 495.471 177.291 493.317 177.291C491.163 177.291 489.417 179.037 489.417 181.191C489.417 183.345 491.163 185.091 493.317 185.091Z" fill="#429615"/>
<path d="M502.839 178.391C504.993 178.391 506.739 176.645 506.739 174.492C506.739 172.338 504.993 170.592 502.839 170.592C500.686 170.592 498.94 172.338 498.94 174.492C498.94 176.645 500.686 178.391 502.839 178.391Z" fill="#429615"/>
<path d="M464.745 205.16C466.898 205.16 468.644 203.414 468.644 201.26C468.644 199.106 466.898 197.36 464.745 197.36C462.591 197.36 460.845 199.106 460.845 201.26C460.845 203.414 462.591 205.16 464.745 205.16Z" fill="#429615"/>
<path d="M474.265 198.469C476.419 198.469 478.165 196.723 478.165 194.57C478.165 192.416 476.419 190.67 474.265 190.67C472.111 190.67 470.365 192.416 470.365 194.57C470.365 196.723 472.111 198.469 474.265 198.469Z" fill="#429615"/>
<path d="M483.788 191.779C485.942 191.779 487.687 190.033 487.687 187.879C487.687 185.725 485.942 183.979 483.788 183.979C481.634 183.979 479.888 185.725 479.888 187.879C479.888 190.033 481.634 191.779 483.788 191.779Z" fill="#429615"/>
<path d="M410.174 169.036L409.95 169.194C408.846 169.969 408.58 171.492 409.356 172.596L412.602 177.217C413.377 178.321 414.901 178.587 416.005 177.811L416.228 177.654C417.332 176.879 417.598 175.355 416.823 174.251L413.577 169.631C412.801 168.527 411.278 168.261 410.174 169.036Z" fill="#AFCBE0"/>
<path d="M417.834 163.659L417.611 163.816C416.507 164.591 416.241 166.115 417.016 167.218L420.263 171.839C421.038 172.943 422.561 173.209 423.665 172.433L423.889 172.276C424.993 171.501 425.259 169.977 424.483 168.874L421.237 164.253C420.462 163.149 418.938 162.883 417.834 163.659Z" fill="#AFCBE0"/>
<path d="M425.808 158.044L425.584 158.201C424.481 158.977 424.214 160.5 424.99 161.604L428.236 166.225C429.012 167.328 430.535 167.595 431.639 166.819L431.862 166.662C432.966 165.887 433.232 164.363 432.457 163.259L429.211 158.639C428.435 157.535 426.912 157.269 425.808 158.044Z" fill="#AFCBE0"/>
<path d="M433.469 152.666L433.245 152.823C432.141 153.599 431.875 155.122 432.651 156.226L435.897 160.847C436.672 161.95 438.196 162.217 439.299 161.441L439.523 161.284C440.627 160.509 440.893 158.985 440.118 157.881L436.871 153.261C436.096 152.157 434.572 151.891 433.469 152.666Z" fill="#AFCBE0"/>
<path d="M441.144 147.283L440.92 147.44C439.817 148.215 439.551 149.739 440.326 150.842L443.572 155.463C444.348 156.567 445.871 156.833 446.975 156.057L447.198 155.9C448.302 155.125 448.568 153.601 447.793 152.498L444.547 147.877C443.771 146.773 442.248 146.507 441.144 147.283Z" fill="#AFCBE0"/>
<path d="M448.805 141.903L448.581 142.06C447.477 142.835 447.211 144.359 447.987 145.462L451.233 150.083C452.008 151.187 453.532 151.453 454.636 150.677L454.859 150.52C455.963 149.745 456.229 148.221 455.454 147.118L452.208 142.497C451.432 141.393 449.909 141.127 448.805 141.903Z" fill="#AFCBE0"/>
<path d="M456.462 136.511L456.238 136.668C455.134 137.444 454.868 138.967 455.644 140.071L458.89 144.691C459.665 145.795 461.189 146.061 462.293 145.286L462.516 145.129C463.62 144.353 463.886 142.83 463.111 141.726L459.865 137.106C459.089 136.002 457.566 135.736 456.462 136.511Z" fill="#AFCBE0"/>
<path d="M464.128 131.125L463.904 131.282C462.801 132.058 462.535 133.581 463.31 134.685L466.556 139.306C467.332 140.409 468.855 140.676 469.959 139.9L470.182 139.743C471.286 138.968 471.552 137.444 470.777 136.34L467.531 131.72C466.755 130.616 465.232 130.35 464.128 131.125Z" fill="#AFCBE0"/>
<path d="M472.107 125.519L471.883 125.676C470.78 126.451 470.514 127.975 471.289 129.079L474.535 133.699C475.311 134.803 476.834 135.069 477.938 134.294L478.161 134.137C479.265 133.361 479.531 131.838 478.756 130.734L475.51 126.113C474.734 125.01 473.211 124.743 472.107 125.519Z" fill="#AFCBE0"/>
<path d="M415.265 194.412H592.867C595.177 194.412 597.056 196.292 597.056 198.602V268.168C597.056 279.843 587.576 289.323 575.902 289.323H432.231C420.556 289.323 411.076 279.843 411.076 268.168V198.602C411.076 196.292 412.955 194.412 415.265 194.412Z" fill="#FAFAFA" stroke="#305C8C" stroke-width="2.59" stroke-miterlimit="10"/>
<g filter="url(#filter0_d_1725_4295)">
<path d="M587.336 263.497V228.871C587.336 225.841 584.877 223.382 581.846 223.382H545.175C542.145 223.382 539.686 225.841 539.686 228.871V263.497C539.595 263.638 539.537 280.198 539.537 280.198C539.537 281.208 540.282 282.028 541.201 282.028L562.372 265.451C563.035 264.864 563.987 264.864 564.658 265.451L585.829 282.028C586.748 282.028 587.493 281.208 587.493 280.198C587.493 280.198 587.427 263.638 587.344 263.497H587.336Z" fill="#305C8C"/>
</g>
<path d="M617.409 276.428L612.581 267.668C611.58 265.855 609.303 265.201 607.489 266.195C605.676 267.188 605.022 269.473 606.016 271.287L608.061 274.988L607.531 275.278L604.144 269.142C603.142 267.329 600.866 266.675 599.052 267.668C597.239 268.67 596.585 270.947 597.578 272.761C597.578 272.761 600.592 278.739 600.518 278.589L596.088 270.55C595.086 268.737 592.809 268.082 590.996 269.076C589.183 270.078 588.529 272.355 589.522 274.168L593.952 282.208C594.035 282.349 581.955 260.945 581.955 260.945C580.953 259.132 577.583 258.246 575.778 259.248C573.973 260.25 573.401 263.437 574.395 265.251L586.517 287.374C585.059 285.901 582.691 285.892 581.218 287.349C579.744 288.807 579.736 291.175 581.193 292.649C581.193 292.649 595.053 306.269 595.798 306.393C601.081 309.978 608.135 310.541 614.105 307.246L614.428 307.072C622.906 302.402 625.986 291.746 621.317 283.268L618.137 277.505C617.922 277.116 617.674 276.76 617.409 276.428Z" fill="white" stroke="#305C8C" stroke-width="2.34" stroke-miterlimit="10"/>
<path d="M603.574 270.186C604.931 272.653 606.298 275.129 607.655 277.596L608.235 278.656C608.583 279.277 609.494 279.534 610.098 279.145C610.702 278.756 610.959 277.953 610.586 277.282C609.229 274.814 607.862 272.339 606.505 269.871L605.925 268.812C605.577 268.191 604.666 267.934 604.062 268.323C603.458 268.712 603.201 269.515 603.574 270.186Z" fill="#305C8C"/>
<path d="M596.801 273.911C598.059 276.196 599.318 278.481 600.576 280.767L601.114 281.744C601.735 282.87 603.466 281.859 602.845 280.733C601.586 278.448 600.328 276.163 599.069 273.878L598.531 272.901C597.91 271.775 596.18 272.785 596.801 273.911Z" fill="#305C8C"/>
<path d="M590.839 278.582C591.725 280.188 592.611 281.795 593.497 283.401L593.878 284.088C594.126 284.535 594.78 284.717 595.219 284.436C595.658 284.154 595.832 283.575 595.567 283.095C594.681 281.488 593.795 279.882 592.909 278.276L592.528 277.589C592.28 277.141 591.626 276.959 591.187 277.241C590.748 277.522 590.574 278.102 590.839 278.582Z" fill="#305C8C"/>
<path d="M569.403 246.54C568.71 245.546 567.344 245.302 566.352 245.993C565.36 246.685 565.117 248.052 565.81 249.046L568.889 253.46C569.582 254.454 570.948 254.699 571.94 254.007C572.932 253.316 573.175 251.949 572.482 250.955L569.403 246.54Z" fill="white"/>
<path d="M583.641 244.562C583.708 243.352 582.783 242.317 581.576 242.25C580.368 242.183 579.335 243.11 579.268 244.32L578.97 249.693C578.903 250.903 579.828 251.938 581.035 252.005C582.243 252.072 583.276 251.145 583.343 249.936L583.641 244.562Z" fill="white"/>
<path d="M559.169 257.248C557.991 256.965 556.807 257.689 556.524 258.865C556.241 260.041 556.967 261.224 558.145 261.507L563.378 262.765C564.556 263.049 565.741 262.325 566.023 261.149C566.306 259.973 565.58 258.79 564.402 258.507L559.169 257.248Z" fill="white"/>
<defs>
<filter id="filter0_d_1725_4295" x="535.537" y="223.382" width="55.9565" height="66.6455" filterUnits="userSpaceOnUse" color-interpolation-filters="sRGB">
<feFlood flood-opacity="0" result="BackgroundImageFix"/>
<feColorMatrix in="SourceAlpha" type="matrix" values="0 0 0 0 0 0 0 0 0 0 0 0 0 0 0 0 0 0 127 0" result="hardAlpha"/>
<feOffset dy="4"/>
<feGaussianBlur stdDeviation="2"/>
<feComposite in2="hardAlpha" operator="out"/>
<feColorMatrix type="matrix" values="0 0 0 0 0 0 0 0 0 0 0 0 0 0 0 0 0 0 0.25 0"/>
<feBlend mode="normal" in2="BackgroundImageFix" result="effect1_dropShadow_1725_4295"/>
<feBlend mode="normal" in="SourceGraphic" in2="effect1_dropShadow_1725_4295" result="shape"/>
</filter>
<clipPath id="clip0_1725_4295">
<rect width="305" height="332" fill="white" transform="translate(0 5.5)"/>
</clipPath>
</defs>
</svg>
