<svg width="500" height="114" viewBox="0 0 500 114" fill="none" xmlns="http://www.w3.org/2000/svg">
<rect width="500" height="114" fill="#2B4570"/>
<path d="M49.7891 68.4404V57.2404H51.5171V68.4404H49.7891ZM42.4771 68.4404V57.2404H44.2051V68.4404H42.4771ZM43.2291 63.6884V62.0244H50.5571V63.6884H43.2291ZM58.009 68.6004C57.1877 68.6004 56.4517 68.4138 55.801 68.0404C55.161 67.6564 54.6543 67.1391 54.281 66.4884C53.9077 65.8271 53.721 65.0751 53.721 64.2324C53.721 63.3898 53.9077 62.6431 54.281 61.9924C54.6543 61.3311 55.161 60.8138 55.801 60.4404C56.4517 60.0564 57.1877 59.8644 58.009 59.8644C58.8197 59.8644 59.545 60.0564 60.185 60.4404C60.8357 60.8138 61.3477 61.3311 61.721 61.9924C62.0943 62.6431 62.281 63.3898 62.281 64.2324C62.281 65.0751 62.0943 65.8271 61.721 66.4884C61.3477 67.1391 60.8357 67.6564 60.185 68.0404C59.545 68.4138 58.8197 68.6004 58.009 68.6004ZM58.009 67.0964C58.5103 67.0964 58.9583 66.9738 59.353 66.7284C59.7477 66.4724 60.057 66.1311 60.281 65.7044C60.505 65.2671 60.6117 64.7764 60.601 64.2324C60.6117 63.6778 60.505 63.1871 60.281 62.7604C60.057 62.3231 59.7477 61.9818 59.353 61.7364C58.9583 61.4911 58.5103 61.3684 58.009 61.3684C57.5077 61.3684 57.0543 61.4964 56.649 61.7524C56.2543 61.9978 55.945 62.3391 55.721 62.7764C55.497 63.2031 55.3903 63.6884 55.401 64.2324C55.3903 64.7764 55.497 65.2671 55.721 65.7044C55.945 66.1311 56.2543 66.4724 56.649 66.7284C57.0543 66.9738 57.5077 67.0964 58.009 67.0964ZM64.0447 68.4404V60.0404H65.7087V61.8324L65.4047 62.0244C65.4901 61.7471 65.6234 61.4804 65.8047 61.2244C65.9967 60.9684 66.2261 60.7444 66.4927 60.5524C66.7701 60.3498 67.0634 60.1898 67.3727 60.0724C67.6927 59.9551 68.0181 59.8964 68.3487 59.8964C68.8287 59.8964 69.2501 59.9764 69.6127 60.1364C69.9754 60.2964 70.2741 60.5364 70.5087 60.8564C70.7434 61.1764 70.9141 61.5764 71.0207 62.0564L70.7647 61.9924L70.8767 61.7204C70.9941 61.4751 71.1541 61.2458 71.3567 61.0324C71.5701 60.8084 71.8101 60.6111 72.0767 60.4404C72.3434 60.2698 72.6261 60.1364 72.9247 60.0404C73.2234 59.9444 73.5167 59.8964 73.8047 59.8964C74.4341 59.8964 74.9514 60.0244 75.3567 60.2804C75.7727 60.5364 76.0821 60.9258 76.2847 61.4484C76.4981 61.9711 76.6047 62.6218 76.6047 63.4004V68.4404H74.9407V63.4964C74.9407 63.0164 74.8767 62.6271 74.7487 62.3284C74.6314 62.0191 74.4501 61.7898 74.2047 61.6404C73.9594 61.4911 73.6447 61.4164 73.2607 61.4164C72.9621 61.4164 72.6794 61.4698 72.4127 61.5764C72.1567 61.6724 71.9327 61.8111 71.7407 61.9924C71.5487 62.1738 71.3994 62.3871 71.2927 62.6324C71.1861 62.8671 71.1327 63.1284 71.1327 63.4164V68.4404H69.4687V63.4644C69.4687 63.0271 69.4047 62.6591 69.2767 62.3604C69.1487 62.0511 68.9621 61.8164 68.7167 61.6564C68.4714 61.4964 68.1727 61.4164 67.8207 61.4164C67.5221 61.4164 67.2447 61.4698 66.9887 61.5764C66.7327 61.6724 66.5087 61.8111 66.3167 61.9924C66.1247 62.1631 65.9754 62.3711 65.8687 62.6164C65.7621 62.8511 65.7087 63.1071 65.7087 63.3844V68.4404H64.0447ZM82.7311 68.6004C81.8671 68.6004 81.0991 68.4191 80.4271 68.0564C79.7658 67.6831 79.2431 67.1764 78.8591 66.5364C78.4858 65.8964 78.2991 65.1604 78.2991 64.3284C78.2991 63.6671 78.4058 63.0644 78.6191 62.5204C78.8325 61.9764 79.1258 61.5071 79.4991 61.1124C79.8831 60.7071 80.3365 60.3978 80.8591 60.1844C81.3925 59.9604 81.9685 59.8484 82.5871 59.8484C83.1311 59.8484 83.6378 59.9551 84.1071 60.1684C84.5765 60.3711 84.9818 60.6538 85.3231 61.0164C85.6751 61.3791 85.9418 61.8111 86.1231 62.3124C86.3151 62.8031 86.4058 63.3418 86.3951 63.9284L86.3791 64.6324H79.5151L79.1471 63.3204H84.9551L84.7151 63.5924V63.2084C84.6831 62.8564 84.5658 62.5418 84.3631 62.2644C84.1605 61.9871 83.9045 61.7684 83.5951 61.6084C83.2858 61.4484 82.9498 61.3684 82.5871 61.3684C82.0111 61.3684 81.5258 61.4804 81.1311 61.7044C80.7365 61.9178 80.4378 62.2378 80.2351 62.6644C80.0325 63.0804 79.9311 63.5978 79.9311 64.2164C79.9311 64.8031 80.0538 65.3151 80.2991 65.7524C80.5445 66.1791 80.8911 66.5098 81.3391 66.7444C81.7871 66.9791 82.3045 67.0964 82.8911 67.0964C83.3071 67.0964 83.6911 67.0271 84.0431 66.8884C84.4058 66.7498 84.7951 66.4991 85.2111 66.1364L86.0431 67.3044C85.7871 67.5604 85.4725 67.7844 85.0991 67.9764C84.7365 68.1684 84.3471 68.3231 83.9311 68.4404C83.5258 68.5471 83.1258 68.6004 82.7311 68.6004Z" fill="#FAFAFA"/>
<path d="M79.7349 43.0832V33.8597C79.7349 32.9714 79.7341 32.527 79.6265 32.1136C79.531 31.7473 79.3744 31.4006 79.1624 31.0874C78.9232 30.7339 78.5907 30.4407 77.9243 29.8558L69.9697 22.8733C68.7324 21.7872 68.1138 21.2444 67.4176 21.0379C66.8041 20.8559 66.1502 20.8559 65.5367 21.0379C64.841 21.2443 64.2233 21.7865 62.9878 22.871L55.0307 29.8558C54.3643 30.4408 54.0318 30.7339 53.7926 31.0874C53.5807 31.4006 53.4228 31.7473 53.3274 32.1136C53.2197 32.527 53.2197 32.9714 53.2197 33.8597V43.0832C53.2197 44.6324 53.2197 45.4068 53.472 46.0178C53.8084 46.8325 54.4532 47.4806 55.2653 47.8181C55.8744 48.0712 56.6466 48.0712 58.1909 48.0712C59.7352 48.0712 60.5082 48.0712 61.1173 47.8181C61.9294 47.4806 62.5741 46.8327 62.9104 46.018C63.1627 45.4069 63.1629 44.6323 63.1629 43.083V41.4205C63.1629 39.5842 64.6468 38.0955 66.4773 38.0955C68.3078 38.0955 69.7917 39.5842 69.7917 41.4205V43.083C69.7917 44.6323 69.7917 45.4069 70.044 46.018C70.3804 46.8327 71.0252 47.4806 71.8373 47.8181C72.4464 48.0712 73.2185 48.0712 74.7629 48.0712C76.3072 48.0712 77.0802 48.0712 77.6893 47.8181C78.5014 47.4806 79.146 46.8325 79.4824 46.0178C79.7347 45.4068 79.7349 44.6324 79.7349 43.0832Z" stroke="#FAFAFA" stroke-width="4" stroke-linecap="round" stroke-linejoin="round"/>
<path d="M164.068 68.4404V57.2404H171.124V58.9044H165.796V66.7764H171.124V68.4404H164.068ZM164.852 63.5284V61.8644H170.244V63.5284H164.852ZM175.998 68.4404L172.446 60.0404H174.222L176.782 66.3284L176.478 66.4724L179.214 60.0404H180.91L177.182 68.4404H175.998ZM186.103 68.6004C185.239 68.6004 184.471 68.4191 183.799 68.0564C183.138 67.6831 182.615 67.1764 182.231 66.5364C181.858 65.8964 181.671 65.1604 181.671 64.3284C181.671 63.6671 181.778 63.0644 181.991 62.5204C182.205 61.9764 182.498 61.5071 182.871 61.1124C183.255 60.7071 183.709 60.3978 184.231 60.1844C184.765 59.9604 185.341 59.8484 185.959 59.8484C186.503 59.8484 187.01 59.9551 187.479 60.1684C187.949 60.3711 188.354 60.6538 188.695 61.0164C189.047 61.3791 189.314 61.8111 189.495 62.3124C189.687 62.8031 189.778 63.3418 189.767 63.9284L189.751 64.6324H182.887L182.519 63.3204H188.327L188.087 63.5924V63.2084C188.055 62.8564 187.938 62.5418 187.735 62.2644C187.533 61.9871 187.277 61.7684 186.967 61.6084C186.658 61.4484 186.322 61.3684 185.959 61.3684C185.383 61.3684 184.898 61.4804 184.503 61.7044C184.109 61.9178 183.81 62.2378 183.607 62.6644C183.405 63.0804 183.303 63.5978 183.303 64.2164C183.303 64.8031 183.426 65.3151 183.671 65.7524C183.917 66.1791 184.263 66.5098 184.711 66.7444C185.159 66.9791 185.677 67.0964 186.263 67.0964C186.679 67.0964 187.063 67.0271 187.415 66.8884C187.778 66.7498 188.167 66.4991 188.583 66.1364L189.415 67.3044C189.159 67.5604 188.845 67.7844 188.471 67.9764C188.109 68.1684 187.719 68.3231 187.303 68.4404C186.898 68.5471 186.498 68.6004 186.103 68.6004ZM191.558 68.4404V60.0404H193.206V61.7684L192.918 61.9604C193.025 61.5871 193.233 61.2458 193.542 60.9364C193.852 60.6164 194.22 60.3604 194.646 60.1684C195.073 59.9658 195.51 59.8644 195.958 59.8644C196.598 59.8644 197.132 59.9924 197.558 60.2484C197.985 60.4938 198.305 60.8724 198.518 61.3844C198.732 61.8964 198.838 62.5418 198.838 63.3204V68.4404H197.19V63.4324C197.19 62.9524 197.126 62.5578 196.998 62.2484C196.87 61.9284 196.673 61.6991 196.406 61.5604C196.14 61.4111 195.809 61.3471 195.414 61.3684C195.094 61.3684 194.801 61.4218 194.534 61.5284C194.268 61.6244 194.033 61.7631 193.83 61.9444C193.638 62.1258 193.484 62.3391 193.366 62.5844C193.26 62.8191 193.206 63.0751 193.206 63.3524V68.4404H192.39C192.252 68.4404 192.113 68.4404 191.974 68.4404C191.836 68.4404 191.697 68.4404 191.558 68.4404ZM202.114 68.4404V57.8964H203.762V68.4404H202.114ZM200.37 61.6404V60.0404H205.714V61.6404H200.37ZM210.327 68.6004C209.623 68.6004 208.988 68.4778 208.423 68.2324C207.858 67.9871 207.388 67.6244 207.015 67.1444L208.135 66.1844C208.455 66.5578 208.802 66.8298 209.175 67.0004C209.559 67.1604 209.991 67.2404 210.471 67.2404C210.663 67.2404 210.839 67.2191 210.999 67.1764C211.17 67.1231 211.314 67.0484 211.431 66.9524C211.559 66.8564 211.655 66.7444 211.719 66.6164C211.783 66.4778 211.815 66.3284 211.815 66.1684C211.815 65.8911 211.714 65.6671 211.511 65.4964C211.404 65.4218 211.234 65.3418 210.999 65.2564C210.775 65.1604 210.482 65.0644 210.119 64.9684C209.5 64.8084 208.994 64.6271 208.599 64.4244C208.204 64.2218 207.9 63.9924 207.687 63.7364C207.527 63.5338 207.41 63.3151 207.335 63.0804C207.26 62.8351 207.223 62.5684 207.223 62.2804C207.223 61.9284 207.298 61.6084 207.447 61.3204C207.607 61.0218 207.82 60.7658 208.087 60.5524C208.364 60.3284 208.684 60.1578 209.047 60.0404C209.42 59.9231 209.815 59.8644 210.231 59.8644C210.626 59.8644 211.015 59.9178 211.399 60.0244C211.794 60.1311 212.156 60.2858 212.487 60.4884C212.818 60.6911 213.095 60.9311 213.319 61.2084L212.375 62.2484C212.172 62.0458 211.948 61.8698 211.703 61.7204C211.468 61.5604 211.228 61.4378 210.983 61.3524C210.738 61.2671 210.514 61.2244 210.311 61.2244C210.087 61.2244 209.884 61.2458 209.703 61.2884C209.522 61.3311 209.367 61.3951 209.239 61.4804C209.122 61.5658 209.031 61.6724 208.967 61.8004C208.903 61.9284 208.871 62.0724 208.871 62.2324C208.882 62.3711 208.914 62.5044 208.967 62.6324C209.031 62.7498 209.116 62.8511 209.223 62.9364C209.34 63.0218 209.516 63.1124 209.751 63.2084C209.986 63.3044 210.284 63.3951 210.647 63.4804C211.18 63.6191 211.618 63.7738 211.959 63.9444C212.311 64.1044 212.588 64.2911 212.791 64.5044C213.004 64.7071 213.154 64.9418 213.239 65.2084C213.324 65.4751 213.367 65.7738 213.367 66.1044C213.367 66.5844 213.228 67.0164 212.951 67.4004C212.684 67.7738 212.322 68.0671 211.863 68.2804C211.404 68.4938 210.892 68.6004 210.327 68.6004Z" fill="#FAFAFA"/>
<path d="M175.426 34.7701H183.712M175.426 34.7701C175.426 43.0337 182.104 49.7326 190.341 49.7326M175.426 34.7701C175.426 26.5066 182.104 19.8076 190.341 19.8076M183.712 34.7701H196.97M183.712 34.7701C183.712 43.0337 186.68 49.7326 190.341 49.7326M183.712 34.7701C183.712 26.5066 186.68 19.8076 190.341 19.8076M196.97 34.7701H205.256M196.97 34.7701C196.97 26.5066 194.002 19.8076 190.341 19.8076M196.97 34.7701C196.97 43.0337 194.002 49.7326 190.341 49.7326M205.256 34.7701C205.256 26.5066 198.578 19.8076 190.341 19.8076M205.256 34.7701C205.256 43.0337 198.578 49.7326 190.341 49.7326" stroke="#FAFAFA" stroke-width="2" stroke-linecap="round" stroke-linejoin="round"/>
<path d="M298.206 68.6004C297.598 68.6004 297.033 68.5204 296.51 68.3604C295.998 68.2004 295.529 67.9604 295.102 67.6404C294.686 67.3098 294.313 66.9044 293.982 66.4244L295.166 65.0644C295.689 65.8111 296.19 66.3284 296.67 66.6164C297.15 66.9044 297.721 67.0484 298.382 67.0484C298.787 67.0484 299.155 66.9844 299.486 66.8564C299.817 66.7284 300.078 66.5524 300.27 66.3284C300.462 66.1044 300.558 65.8484 300.558 65.5604C300.558 65.3684 300.526 65.1871 300.462 65.0164C300.398 64.8458 300.297 64.6911 300.158 64.5524C300.03 64.4138 299.859 64.2858 299.646 64.1684C299.443 64.0511 299.203 63.9498 298.926 63.8644C298.649 63.7684 298.329 63.6884 297.966 63.6244C297.39 63.5071 296.889 63.3524 296.462 63.1604C296.035 62.9684 295.678 62.7284 295.39 62.4404C295.102 62.1524 294.889 61.8271 294.75 61.4644C294.611 61.0911 294.542 60.6751 294.542 60.2164C294.542 59.7684 294.638 59.3524 294.83 58.9684C295.033 58.5844 295.305 58.2538 295.646 57.9764C295.998 57.6884 296.409 57.4698 296.878 57.3204C297.347 57.1604 297.854 57.0804 298.398 57.0804C298.974 57.0804 299.502 57.1551 299.982 57.3044C300.462 57.4538 300.889 57.6778 301.262 57.9764C301.635 58.2644 301.945 58.6218 302.19 59.0484L300.974 60.2484C300.761 59.8964 300.521 59.6031 300.254 59.3684C299.987 59.1231 299.694 58.9418 299.374 58.8244C299.054 58.6964 298.713 58.6324 298.35 58.6324C297.934 58.6324 297.571 58.6964 297.262 58.8244C296.953 58.9524 296.707 59.1338 296.526 59.3684C296.355 59.5924 296.27 59.8591 296.27 60.1684C296.27 60.3924 296.313 60.6004 296.398 60.7924C296.483 60.9738 296.611 61.1391 296.782 61.2884C296.963 61.4271 297.203 61.5551 297.502 61.6724C297.801 61.7791 298.158 61.8751 298.574 61.9604C299.161 62.0884 299.683 62.2538 300.142 62.4564C300.601 62.6484 300.99 62.8778 301.31 63.1444C301.63 63.4111 301.87 63.7098 302.03 64.0404C302.201 64.3711 302.286 64.7284 302.286 65.1124C302.286 65.8271 302.121 66.4458 301.79 66.9684C301.459 67.4911 300.99 67.8964 300.382 68.1844C299.774 68.4618 299.049 68.6004 298.206 68.6004ZM307.55 68.6004C306.857 68.6004 306.222 68.4084 305.646 68.0244C305.081 67.6404 304.628 67.1178 304.286 66.4564C303.945 65.7951 303.774 65.0484 303.774 64.2164C303.774 63.3738 303.945 62.6271 304.286 61.9764C304.638 61.3151 305.108 60.7978 305.694 60.4244C306.292 60.0511 306.958 59.8644 307.694 59.8644C308.132 59.8644 308.532 59.9284 308.894 60.0564C309.257 60.1844 309.572 60.3658 309.838 60.6004C310.116 60.8244 310.34 61.0858 310.51 61.3844C310.692 61.6831 310.804 62.0031 310.846 62.3444L310.478 62.2164V60.0404H312.142V68.4404H310.478V66.4404L310.862 66.3284C310.798 66.6164 310.665 66.8991 310.462 67.1764C310.27 67.4431 310.02 67.6831 309.71 67.8964C309.412 68.1098 309.076 68.2804 308.702 68.4084C308.34 68.5364 307.956 68.6004 307.55 68.6004ZM307.982 67.0804C308.484 67.0804 308.926 66.9578 309.31 66.7124C309.694 66.4671 309.993 66.1311 310.206 65.7044C310.43 65.2671 310.542 64.7711 310.542 64.2164C310.542 63.6724 310.43 63.1871 310.206 62.7604C309.993 62.3338 309.694 61.9978 309.31 61.7524C308.926 61.5071 308.484 61.3844 307.982 61.3844C307.492 61.3844 307.054 61.5071 306.67 61.7524C306.297 61.9978 305.998 62.3338 305.774 62.7604C305.561 63.1871 305.454 63.6724 305.454 64.2164C305.454 64.7711 305.561 65.2671 305.774 65.7044C305.998 66.1311 306.297 66.4671 306.67 66.7124C307.054 66.9578 307.492 67.0804 307.982 67.0804ZM314.475 68.4404V56.6004H316.123V68.4404H314.475ZM322.223 68.6004C321.359 68.6004 320.591 68.4191 319.919 68.0564C319.257 67.6831 318.735 67.1764 318.351 66.5364C317.977 65.8964 317.791 65.1604 317.791 64.3284C317.791 63.6671 317.897 63.0644 318.111 62.5204C318.324 61.9764 318.617 61.5071 318.991 61.1124C319.375 60.7071 319.828 60.3978 320.351 60.1844C320.884 59.9604 321.46 59.8484 322.079 59.8484C322.623 59.8484 323.129 59.9551 323.599 60.1684C324.068 60.3711 324.473 60.6538 324.815 61.0164C325.167 61.3791 325.433 61.8111 325.615 62.3124C325.807 62.8031 325.897 63.3418 325.887 63.9284L325.871 64.6324H319.007L318.639 63.3204H324.447L324.207 63.5924V63.2084C324.175 62.8564 324.057 62.5418 323.855 62.2644C323.652 61.9871 323.396 61.7684 323.087 61.6084C322.777 61.4484 322.441 61.3684 322.079 61.3684C321.503 61.3684 321.017 61.4804 320.623 61.7044C320.228 61.9178 319.929 62.2378 319.727 62.6644C319.524 63.0804 319.423 63.5978 319.423 64.2164C319.423 64.8031 319.545 65.3151 319.791 65.7524C320.036 66.1791 320.383 66.5098 320.831 66.7444C321.279 66.9791 321.796 67.0964 322.383 67.0964C322.799 67.0964 323.183 67.0271 323.535 66.8884C323.897 66.7498 324.287 66.4991 324.703 66.1364L325.535 67.3044C325.279 67.5604 324.964 67.7844 324.591 67.9764C324.228 68.1684 323.839 68.3231 323.423 68.4404C323.017 68.5471 322.617 68.6004 322.223 68.6004ZM330.478 68.6004C329.774 68.6004 329.139 68.4778 328.574 68.2324C328.008 67.9871 327.539 67.6244 327.166 67.1444L328.286 66.1844C328.606 66.5578 328.952 66.8298 329.326 67.0004C329.71 67.1604 330.142 67.2404 330.622 67.2404C330.814 67.2404 330.99 67.2191 331.15 67.1764C331.32 67.1231 331.464 67.0484 331.582 66.9524C331.71 66.8564 331.806 66.7444 331.87 66.6164C331.934 66.4778 331.966 66.3284 331.966 66.1684C331.966 65.8911 331.864 65.6671 331.662 65.4964C331.555 65.4218 331.384 65.3418 331.15 65.2564C330.926 65.1604 330.632 65.0644 330.27 64.9684C329.651 64.8084 329.144 64.6271 328.75 64.4244C328.355 64.2218 328.051 63.9924 327.838 63.7364C327.678 63.5338 327.56 63.3151 327.486 63.0804C327.411 62.8351 327.374 62.5684 327.374 62.2804C327.374 61.9284 327.448 61.6084 327.598 61.3204C327.758 61.0218 327.971 60.7658 328.238 60.5524C328.515 60.3284 328.835 60.1578 329.198 60.0404C329.571 59.9231 329.966 59.8644 330.382 59.8644C330.776 59.8644 331.166 59.9178 331.55 60.0244C331.944 60.1311 332.307 60.2858 332.638 60.4884C332.968 60.6911 333.246 60.9311 333.47 61.2084L332.526 62.2484C332.323 62.0458 332.099 61.8698 331.854 61.7204C331.619 61.5604 331.379 61.4378 331.134 61.3524C330.888 61.2671 330.664 61.2244 330.462 61.2244C330.238 61.2244 330.035 61.2458 329.854 61.2884C329.672 61.3311 329.518 61.3951 329.39 61.4804C329.272 61.5658 329.182 61.6724 329.118 61.8004C329.054 61.9284 329.022 62.0724 329.022 62.2324C329.032 62.3711 329.064 62.5044 329.118 62.6324C329.182 62.7498 329.267 62.8511 329.374 62.9364C329.491 63.0218 329.667 63.1124 329.902 63.2084C330.136 63.3044 330.435 63.3951 330.798 63.4804C331.331 63.6191 331.768 63.7738 332.11 63.9444C332.462 64.1044 332.739 64.2911 332.942 64.5044C333.155 64.7071 333.304 64.9418 333.39 65.2084C333.475 65.4751 333.518 65.7738 333.518 66.1044C333.518 66.5844 333.379 67.0164 333.102 67.4004C332.835 67.7738 332.472 68.0671 332.014 68.2804C331.555 68.4938 331.043 68.6004 330.478 68.6004Z" fill="#FAFAFA"/>
<path d="M302.186 27.5306L301.638 33.5878C301.556 34.4849 301.515 34.9372 301.59 35.3666C301.656 35.7502 301.789 36.1194 301.983 36.4568C302.2 36.8359 302.522 37.1586 303.162 37.8004L311.739 46.4047C313.043 47.7131 313.695 48.3677 314.45 48.6136C315.115 48.8306 315.834 48.8311 316.499 48.6141C317.256 48.3674 317.914 47.7085 319.226 46.3918L325.788 39.8086C327.101 38.4918 327.756 37.8337 328.002 37.0746C328.218 36.4068 328.217 35.687 328.001 35.0192C327.755 34.26 327.101 33.6021 325.788 32.2853L317.232 23.7023C316.587 23.0547 316.264 22.7308 315.884 22.5114C315.548 22.3171 315.18 22.1833 314.798 22.1166C314.366 22.0413 313.911 22.0827 313.002 22.1656L306.987 22.7142C305.421 22.857 304.638 22.9287 304.025 23.2705C303.485 23.5718 303.04 24.0185 302.739 24.5604C302.4 25.1719 302.33 25.9521 302.189 27.5072L302.186 27.5306Z" stroke="#FAFAFA" stroke-width="2" stroke-linecap="round" stroke-linejoin="round"/>
<path d="M310.414 30.9686C311.061 30.3193 311.061 29.2667 310.414 28.6174C309.767 27.9682 308.717 27.9682 308.07 28.6174C307.422 29.2667 307.422 30.3191 308.069 30.9683C308.716 31.6176 309.767 31.6178 310.414 30.9686Z" stroke="#FAFAFA" stroke-width="2" stroke-linecap="round" stroke-linejoin="round"/>
<path d="M403.841 68.4404V57.2404H408.401C409.009 57.2404 409.558 57.3951 410.049 57.7044C410.55 58.0031 410.95 58.4138 411.249 58.9364C411.547 59.4591 411.697 60.0404 411.697 60.6804C411.697 61.3204 411.547 61.9018 411.249 62.4244C410.95 62.9471 410.55 63.3684 410.049 63.6884C409.558 63.9978 409.009 64.1524 408.401 64.1524H405.569V68.4404H403.841ZM405.569 62.4884H408.369C408.657 62.4884 408.918 62.4084 409.153 62.2484C409.387 62.0778 409.574 61.8591 409.713 61.5924C409.862 61.3151 409.937 61.0111 409.937 60.6804C409.937 60.3498 409.862 60.0511 409.713 59.7844C409.574 59.5178 409.387 59.3044 409.153 59.1444C408.918 58.9844 408.657 58.9044 408.369 58.9044H405.569V62.4884ZM413.565 68.4404V60.0404H415.229V62.6804L415.069 62.0404C415.187 61.6351 415.384 61.2671 415.661 60.9364C415.949 60.6058 416.275 60.3444 416.637 60.1524C417.011 59.9604 417.395 59.8644 417.789 59.8644C417.971 59.8644 418.141 59.8804 418.301 59.9124C418.472 59.9444 418.605 59.9818 418.701 60.0244L418.269 61.8164C418.141 61.7631 417.997 61.7204 417.837 61.6884C417.688 61.6458 417.539 61.6244 417.389 61.6244C417.101 61.6244 416.824 61.6831 416.557 61.8004C416.301 61.9071 416.072 62.0618 415.869 62.2644C415.677 62.4564 415.523 62.6858 415.405 62.9524C415.288 63.2084 415.229 63.4911 415.229 63.8004V68.4404H413.565ZM423.435 68.6004C422.614 68.6004 421.878 68.4138 421.227 68.0404C420.587 67.6564 420.08 67.1391 419.707 66.4884C419.334 65.8271 419.147 65.0751 419.147 64.2324C419.147 63.3898 419.334 62.6431 419.707 61.9924C420.08 61.3311 420.587 60.8138 421.227 60.4404C421.878 60.0564 422.614 59.8644 423.435 59.8644C424.246 59.8644 424.971 60.0564 425.611 60.4404C426.262 60.8138 426.774 61.3311 427.147 61.9924C427.52 62.6431 427.707 63.3898 427.707 64.2324C427.707 65.0751 427.52 65.8271 427.147 66.4884C426.774 67.1391 426.262 67.6564 425.611 68.0404C424.971 68.4138 424.246 68.6004 423.435 68.6004ZM423.435 67.0964C423.936 67.0964 424.384 66.9738 424.779 66.7284C425.174 66.4724 425.483 66.1311 425.707 65.7044C425.931 65.2671 426.038 64.7764 426.027 64.2324C426.038 63.6778 425.931 63.1871 425.707 62.7604C425.483 62.3231 425.174 61.9818 424.779 61.7364C424.384 61.4911 423.936 61.3684 423.435 61.3684C422.934 61.3684 422.48 61.4964 422.075 61.7524C421.68 61.9978 421.371 62.3391 421.147 62.7764C420.923 63.2031 420.816 63.6884 420.827 64.2324C420.816 64.7764 420.923 65.2671 421.147 65.7044C421.371 66.1311 421.68 66.4724 422.075 66.7284C422.48 66.9738 422.934 67.0964 423.435 67.0964ZM430.102 68.4404V59.0964C430.102 58.6164 430.209 58.1898 430.422 57.8164C430.636 57.4431 430.929 57.1498 431.302 56.9364C431.676 56.7231 432.108 56.6164 432.598 56.6164C432.94 56.6164 433.26 56.6804 433.558 56.8084C433.857 56.9364 434.097 57.1071 434.278 57.3204L433.718 58.5844C433.58 58.4564 433.425 58.3551 433.254 58.2804C433.094 58.1951 432.94 58.1524 432.79 58.1524C432.566 58.1524 432.374 58.1898 432.214 58.2644C432.065 58.3284 431.953 58.4351 431.878 58.5844C431.804 58.7231 431.766 58.8938 431.766 59.0964V68.4404H430.934C430.796 68.4404 430.657 68.4404 430.518 68.4404C430.38 68.4404 430.241 68.4404 430.102 68.4404ZM428.758 61.7044V60.1844H433.75V61.7044H428.758ZM435.75 68.4404V60.0404H437.398V68.4404H435.75ZM436.55 58.1844C436.198 58.1844 435.926 58.0938 435.734 57.9124C435.542 57.7311 435.446 57.4751 435.446 57.1444C435.446 56.8351 435.542 56.5844 435.734 56.3924C435.937 56.2004 436.209 56.1044 436.55 56.1044C436.902 56.1044 437.174 56.1951 437.366 56.3764C437.558 56.5578 437.654 56.8138 437.654 57.1444C437.654 57.4538 437.553 57.7044 437.35 57.8964C437.158 58.0884 436.892 58.1844 436.55 58.1844ZM439.957 68.4404V56.6004H441.605V68.4404H439.957ZM447.704 68.6004C446.84 68.6004 446.072 68.4191 445.4 68.0564C444.739 67.6831 444.216 67.1764 443.832 66.5364C443.459 65.8964 443.272 65.1604 443.272 64.3284C443.272 63.6671 443.379 63.0644 443.592 62.5204C443.805 61.9764 444.099 61.5071 444.472 61.1124C444.856 60.7071 445.309 60.3978 445.832 60.1844C446.365 59.9604 446.941 59.8484 447.56 59.8484C448.104 59.8484 448.611 59.9551 449.08 60.1684C449.549 60.3711 449.955 60.6538 450.296 61.0164C450.648 61.3791 450.915 61.8111 451.096 62.3124C451.288 62.8031 451.379 63.3418 451.368 63.9284L451.352 64.6324H444.488L444.12 63.3204H449.928L449.688 63.5924V63.2084C449.656 62.8564 449.539 62.5418 449.336 62.2644C449.133 61.9871 448.877 61.7684 448.568 61.6084C448.259 61.4484 447.923 61.3684 447.56 61.3684C446.984 61.3684 446.499 61.4804 446.104 61.7044C445.709 61.9178 445.411 62.2378 445.208 62.6644C445.005 63.0804 444.904 63.5978 444.904 64.2164C444.904 64.8031 445.027 65.3151 445.272 65.7524C445.517 66.1791 445.864 66.5098 446.312 66.7444C446.76 66.9791 447.277 67.0964 447.864 67.0964C448.28 67.0964 448.664 67.0271 449.016 66.8884C449.379 66.7498 449.768 66.4991 450.184 66.1364L451.016 67.3044C450.76 67.5604 450.445 67.7844 450.072 67.9764C449.709 68.1684 449.32 68.3231 448.904 68.4404C448.499 68.5471 448.099 68.6004 447.704 68.6004Z" fill="#FAFAFA"/>
<path d="M437.622 46.96C435.498 44.5802 432.412 43.0826 428.977 43.0826C425.542 43.0826 422.456 44.5802 420.332 46.96M428.977 49.7326C420.74 49.7326 414.062 43.0337 414.062 34.7701C414.062 26.5066 420.74 19.8076 428.977 19.8076C437.214 19.8076 443.892 26.5066 443.892 34.7701C443.892 43.0337 437.214 49.7326 428.977 49.7326ZM428.977 38.0951C426.231 38.0951 424.006 35.8621 424.006 33.1076C424.006 30.3531 426.231 28.1201 428.977 28.1201C431.723 28.1201 433.949 30.3531 433.949 33.1076C433.949 35.8621 431.723 38.0951 428.977 38.0951Z" stroke="#FAFAFA" stroke-width="2" stroke-linecap="round" stroke-linejoin="round"/>
<path d="M23.8636 2.84961H109.091" stroke="#BDC5D3" stroke-width="5" stroke-linecap="round"/>
</svg>
