<svg width="35" height="35" viewBox="0 0 35 35" fill="none" xmlns="http://www.w3.org/2000/svg">
<path d="M29.1667 24.7917V16.701C29.1667 15.9217 29.166 15.5319 29.0713 15.1693C28.9873 14.848 28.8495 14.5439 28.6629 14.2691C28.4525 13.959 28.1598 13.7019 27.5734 13.1887L20.5734 7.06373C19.4846 6.11102 18.9402 5.63491 18.3275 5.45372C17.7876 5.29407 17.2122 5.29407 16.6723 5.45372C16.0601 5.63477 15.5165 6.11043 14.4293 7.0617L7.427 13.1887C6.84056 13.7019 6.54802 13.959 6.33752 14.2691C6.15099 14.5439 6.01209 14.848 5.92812 15.1693C5.83337 15.5319 5.83337 15.9217 5.83337 16.701V24.7917C5.83337 26.1507 5.83337 26.83 6.05539 27.366C6.35142 28.0806 6.91884 28.6491 7.6335 28.9451C8.1695 29.1672 8.849 29.1672 10.208 29.1672C11.567 29.1672 12.2472 29.1672 12.7832 28.9451C13.4979 28.6491 14.0652 28.0808 14.3612 27.3661C14.5832 26.8301 14.5834 26.1506 14.5834 24.7916V23.3333C14.5834 21.7224 15.8892 20.4166 17.5 20.4166C19.1109 20.4166 20.4167 21.7224 20.4167 23.3333V24.7916C20.4167 26.1506 20.4167 26.8301 20.6387 27.3661C20.9347 28.0808 21.5022 28.6491 22.2168 28.9451C22.7528 29.1672 23.4323 29.1672 24.7913 29.1672C26.1503 29.1672 26.8306 29.1672 27.3666 28.9451C28.0812 28.6491 28.6485 28.0806 28.9445 27.366C29.1666 26.83 29.1667 26.1507 29.1667 24.7917Z" stroke="#FAFAFA" stroke-width="2" stroke-linecap="round" stroke-linejoin="round"/>
</svg>
