<svg width="35" height="35" viewBox="0 0 35 35" fill="none" xmlns="http://www.w3.org/2000/svg">
<path d="M21.8749 24.7917V26.25C21.8749 28.6662 19.9162 30.625 17.4999 30.625C15.0837 30.625 13.1249 28.6662 13.1249 26.25V24.7917M21.8749 24.7917H13.1249M21.8749 24.7917H27.1111C27.6689 24.7917 27.9492 24.7917 28.1751 24.7155C28.6065 24.5699 28.9441 24.2311 29.0897 23.7997C29.1662 23.5729 29.1662 23.2918 29.1662 22.7295C29.1662 22.4835 29.1659 22.3604 29.1466 22.2431C29.1103 22.0215 29.0242 21.8113 28.8932 21.6289C28.824 21.5324 28.736 21.4445 28.5626 21.271L27.9945 20.7029C27.8112 20.5196 27.7083 20.271 27.7083 20.0118V14.5833C27.7083 8.94542 23.1378 4.37499 17.4999 4.375C11.862 4.37501 7.29159 8.94544 7.29159 14.5833V20.0119C7.29159 20.2711 7.1884 20.5196 7.00512 20.7029L6.43709 21.2709C6.26311 21.4449 6.17602 21.5323 6.10669 21.6289C5.97567 21.8114 5.88888 22.0215 5.8525 22.2431C5.83325 22.3604 5.83325 22.4835 5.83325 22.7295C5.83325 23.2918 5.83325 23.5729 5.90974 23.7996C6.05528 24.2311 6.39442 24.5699 6.82589 24.7155C7.05178 24.7917 7.33098 24.7917 7.88885 24.7917H13.1249" stroke="#0E0F10" stroke-width="2" stroke-linecap="round" stroke-linejoin="round"/>
</svg>
