<svg width="470" height="486" viewBox="0 0 470 486" fill="none" xmlns="http://www.w3.org/2000/svg">
<path d="M241.749 439.174C182.435 370.953 94.2446 373.387 35.1888 355.569C-39.9298 332.896 15.5551 176.121 104.596 179.752C152.862 181.715 226.047 180.613 240.924 144.411C255.801 108.209 266.965 22.8962 317.757 7.37734C437.648 -29.268 514.416 75.3159 441.695 216.814C389.446 318.466 305.368 273.699 304.543 305.583C303.718 337.468 400.842 328.66 429.307 357.29C498.727 427.138 342.715 555.283 241.749 439.174Z" fill="#186EBB"/>
<path d="M324.836 51.0977H170.293C165.088 51.0977 160.869 55.4989 160.869 60.928V394.946C160.869 400.375 165.088 404.776 170.293 404.776H324.836C330.04 404.776 334.259 400.375 334.259 394.946V60.928C334.259 55.4989 330.04 51.0977 324.836 51.0977Z" fill="white" stroke="#305C8C" stroke-width="3.67" stroke-miterlimit="10"/>
<path d="M258.522 57.1494H236.606C234.47 57.1494 232.739 58.9557 232.739 61.1838C232.739 63.4119 234.47 65.2181 236.606 65.2181H258.522C260.658 65.2181 262.389 63.4119 262.389 61.1838C262.389 58.9557 260.658 57.1494 258.522 57.1494Z" fill="#305C8C"/>
<path d="M257.477 246.024H237.65C227.996 246.024 220.17 254.189 220.17 264.26V267.85C220.17 277.921 227.996 286.086 237.65 286.086H257.477C267.132 286.086 274.958 277.921 274.958 267.85V264.26C274.958 254.189 267.132 246.024 257.477 246.024Z" fill="#578CBC"/>
<path d="M258.753 128.128C258.753 121.681 253.744 116.455 247.564 116.455C241.384 116.455 236.374 121.681 236.374 128.128V131.234C236.374 137.681 241.384 142.907 247.564 142.907C253.744 142.907 258.753 137.681 258.753 131.234V128.128Z" fill="#578CBC"/>
<path d="M324.423 256.138C309.327 231.972 297.866 203.463 290.789 169.735C290.505 166.091 288.378 157.686 288.159 157.417C281.894 139.989 265.792 127.59 246.906 127.59C228.02 127.59 211.867 140.029 205.615 157.484C205.409 157.753 202.946 167.866 202.869 172.694C197.081 204.095 187.515 232.604 170.937 255.788C167.907 260.024 170.795 266.035 175.849 266.035H319.318C324.204 266.035 327.091 260.387 324.436 256.111L324.423 256.138Z" fill="#305C8C"/>
<path d="M170.408 92.7852H37.7674C31.7085 92.7852 26.7968 97.9089 26.7968 104.229V136.477C26.7968 142.798 31.7085 147.921 37.7674 147.921H170.408C176.467 147.921 181.378 142.798 181.378 136.477V104.229C181.378 97.9089 176.467 92.7852 170.408 92.7852Z" fill="#EEF8FF" stroke="#578CBC" stroke-width="2" stroke-miterlimit="10"/>
<path d="M170.395 154.645H37.7545C31.6955 154.645 26.7838 159.768 26.7838 166.089V198.337C26.7838 204.657 31.6955 209.781 37.7545 209.781H170.395C176.454 209.781 181.365 204.657 181.365 198.337V166.089C181.365 159.768 176.454 154.645 170.395 154.645Z" fill="#EEF8FF" stroke="#578CBC" stroke-width="2" stroke-miterlimit="10"/>
<path d="M169.273 103.543H52.8375C47.4876 103.543 42.0732 103.301 36.7232 103.543C36.6459 103.543 36.5685 103.543 36.4912 103.543C34.0031 103.543 34.0031 107.577 36.4912 107.577H152.927C158.277 107.577 163.691 107.82 169.041 107.577C169.119 107.577 169.196 107.577 169.273 107.577C171.761 107.577 171.761 103.543 169.273 103.543Z" fill="#578CBC"/>
<path d="M169.273 112.284H113.195C110.707 112.284 110.707 116.319 113.195 116.319H169.273C171.761 116.319 171.761 112.284 169.273 112.284Z" fill="#578CBC"/>
<path d="M106.105 112.284H37.1357C34.6476 112.284 34.6476 116.319 37.1357 116.319H106.105C108.593 116.319 108.593 112.284 106.105 112.284Z" fill="#578CBC"/>
<path d="M169.273 121.026H52.8375C47.4876 121.026 42.0732 120.783 36.7232 121.026C36.6459 121.026 36.5685 121.026 36.4912 121.026C34.0031 121.026 34.0031 125.06 36.4912 125.06H152.927C158.277 125.06 163.691 125.302 169.041 125.06C169.119 125.06 169.196 125.06 169.273 125.06C171.761 125.06 171.761 121.026 169.273 121.026Z" fill="#578CBC"/>
<path d="M97.7256 129.767H36.4912C34.0031 129.767 34.0031 133.801 36.4912 133.801H97.7256C100.214 133.801 100.214 129.767 97.7256 129.767Z" fill="#578CBC"/>
<path d="M169.273 162.041H113.195C110.707 162.041 110.707 166.075 113.195 166.075H169.273C171.761 166.075 171.761 162.041 169.273 162.041Z" fill="#578CBC"/>
<path d="M106.105 162.041H37.1357C34.6476 162.041 34.6476 166.075 37.1357 166.075H106.105C108.593 166.075 108.593 162.041 106.105 162.041Z" fill="#578CBC"/>
<path d="M169.273 170.781H52.8375C47.4876 170.781 42.0732 170.539 36.7232 170.781C36.6459 170.781 36.5685 170.781 36.4912 170.781C34.0031 170.781 34.0031 174.816 36.4912 174.816H152.927C158.277 174.816 163.691 175.058 169.041 174.816C169.119 174.816 169.196 174.816 169.273 174.816C171.761 174.816 171.761 170.781 169.273 170.781Z" fill="#578CBC"/>
<path d="M169.273 188.938H52.8375C47.4876 188.938 42.0732 188.696 36.7232 188.938C36.6459 188.938 36.5685 188.938 36.4912 188.938C34.0031 188.938 34.0031 192.972 36.4912 192.972H152.927C158.277 192.972 163.691 193.214 169.041 192.972C169.119 192.972 169.196 192.972 169.273 192.972C171.761 192.972 171.761 188.938 169.273 188.938Z" fill="#578CBC"/>
<path d="M169.273 197.006H52.8375C47.4876 197.006 42.0732 196.764 36.7232 197.006C36.6459 197.006 36.5685 197.006 36.4912 197.006C34.0031 197.006 34.0031 201.04 36.4912 201.04H152.927C158.277 201.04 163.691 201.282 169.041 201.04C169.119 201.04 169.196 201.04 169.273 201.04C171.761 201.04 171.761 197.006 169.273 197.006Z" fill="#578CBC"/>
<path d="M69.3644 179.524H36.4912C34.0031 179.524 34.0031 183.559 36.4912 183.559H69.3644C71.8525 183.559 71.8525 179.524 69.3644 179.524Z" fill="#578CBC"/>
<path d="M168.629 179.524H76.4547C73.9666 179.524 73.9666 183.559 76.4547 183.559H168.629C171.117 183.559 171.117 179.524 168.629 179.524Z" fill="#578CBC"/>
<path d="M455.309 275.677H322.669C316.61 275.677 311.698 280.8 311.698 287.121V319.369C311.698 325.689 316.61 330.813 322.669 330.813H455.309C461.368 330.813 466.279 325.689 466.279 319.369V287.121C466.279 280.8 461.368 275.677 455.309 275.677Z" fill="#EEF8FF" stroke="#578CBC" stroke-width="2" stroke-miterlimit="10"/>
<path d="M455.296 337.539H322.656C316.597 337.539 311.685 342.663 311.685 348.983V381.231C311.685 387.552 316.597 392.675 322.656 392.675H455.296C461.355 392.675 466.267 387.552 466.267 381.231V348.983C466.267 342.663 461.355 337.539 455.296 337.539Z" fill="#EEF8FF" stroke="#578CBC" stroke-width="2" stroke-miterlimit="10"/>
<path d="M454.175 286.436H337.739C332.389 286.436 326.974 286.194 321.624 286.436C321.547 286.436 321.47 286.436 321.392 286.436C318.904 286.436 318.904 290.47 321.392 290.47H437.828C443.178 290.47 448.593 290.712 453.942 290.47C454.02 290.47 454.097 290.47 454.175 290.47C456.663 290.47 456.663 286.436 454.175 286.436Z" fill="#578CBC"/>
<path d="M454.175 295.176H398.097C395.609 295.176 395.609 299.21 398.097 299.21H454.175C456.663 299.21 456.663 295.176 454.175 295.176Z" fill="#578CBC"/>
<path d="M391.006 295.176H322.037C319.549 295.176 319.549 299.21 322.037 299.21H391.006C393.494 299.21 393.494 295.176 391.006 295.176Z" fill="#578CBC"/>
<path d="M454.175 303.917H337.739C332.389 303.917 326.974 303.675 321.624 303.917C321.547 303.917 321.47 303.917 321.392 303.917C318.904 303.917 318.904 307.952 321.392 307.952H437.828C443.178 307.952 448.593 308.194 453.942 307.952C454.02 307.952 454.097 307.952 454.175 307.952C456.663 307.952 456.663 303.917 454.175 303.917Z" fill="#578CBC"/>
<path d="M382.627 312.658H321.392C318.904 312.658 318.904 316.693 321.392 316.693H382.627C385.115 316.693 385.115 312.658 382.627 312.658Z" fill="#578CBC"/>
<path d="M454.175 344.933H398.097C395.609 344.933 395.609 348.967 398.097 348.967H454.175C456.663 348.967 456.663 344.933 454.175 344.933Z" fill="#578CBC"/>
<path d="M391.006 344.933H322.037C319.549 344.933 319.549 348.967 322.037 348.967H391.006C393.494 348.967 393.494 344.933 391.006 344.933Z" fill="#578CBC"/>
<path d="M454.175 353.675H337.739C332.389 353.675 326.974 353.433 321.624 353.675C321.547 353.675 321.47 353.675 321.392 353.675C318.904 353.675 318.904 357.709 321.392 357.709H437.828C443.178 357.709 448.593 357.951 453.942 357.709C454.02 357.709 454.097 357.709 454.175 357.709C456.663 357.709 456.663 353.675 454.175 353.675Z" fill="#578CBC"/>
<path d="M454.175 371.829H337.739C332.389 371.829 326.974 371.587 321.624 371.829C321.547 371.829 321.47 371.829 321.392 371.829C318.904 371.829 318.904 375.864 321.392 375.864H437.828C443.178 375.864 448.593 376.106 453.942 375.864C454.02 375.864 454.097 375.864 454.175 375.864C456.663 375.864 456.663 371.829 454.175 371.829Z" fill="#578CBC"/>
<path d="M454.175 379.898H337.739C332.389 379.898 326.974 379.656 321.624 379.898C321.547 379.898 321.47 379.898 321.392 379.898C318.904 379.898 318.904 383.932 321.392 383.932H437.828C443.178 383.932 448.593 384.174 453.942 383.932C454.02 383.932 454.097 383.932 454.175 383.932C456.663 383.932 456.663 379.898 454.175 379.898Z" fill="#578CBC"/>
<path d="M354.266 362.416H321.392C318.904 362.416 318.904 366.45 321.392 366.45H354.266C356.754 366.45 356.754 362.416 354.266 362.416Z" fill="#578CBC"/>
<path d="M453.53 362.416H361.356C358.868 362.416 358.868 366.45 361.356 366.45H453.53C456.018 366.45 456.018 362.416 453.53 362.416Z" fill="#578CBC"/>
<path d="M287.785 168.766C301.484 168.766 312.589 157.182 312.589 142.892C312.589 128.603 301.484 117.019 287.785 117.019C274.087 117.019 262.982 128.603 262.982 142.892C262.982 157.182 274.087 168.766 287.785 168.766Z" fill="#64C4FF"/>
<path d="M289.912 155.775H286.986V133.949H286.922L282.487 137.835L280.747 135.617L287.373 130.009H289.912V155.761V155.775Z" fill="white"/>
</svg>
