<svg width="35" height="35" viewBox="0 0 35 35" fill="none" xmlns="http://www.w3.org/2000/svg">
<path d="M21.875 24.7917V26.25C21.875 28.6662 19.9163 30.625 17.5 30.625C15.0838 30.625 13.125 28.6662 13.125 26.25V24.7917M21.875 24.7917H13.125M21.875 24.7917H27.1112C27.669 24.7917 27.9493 24.7917 28.1752 24.7155C28.6066 24.5699 28.9443 24.2311 29.0898 23.7997C29.1663 23.5729 29.1663 23.2918 29.1663 22.7295C29.1663 22.4835 29.166 22.3604 29.1468 22.2431C29.1104 22.0215 29.0244 21.8113 28.8934 21.6289C28.8241 21.5324 28.7361 21.4445 28.5627 21.271L27.9946 20.7029C27.8114 20.5196 27.7084 20.271 27.7084 20.0118V14.5833C27.7084 8.94542 23.138 4.37499 17.5 4.375C11.8621 4.37501 7.29171 8.94544 7.29171 14.5833V20.0119C7.29171 20.2711 7.18852 20.5196 7.00524 20.7029L6.43722 21.2709C6.26323 21.4449 6.17614 21.5323 6.10681 21.6289C5.97579 21.8114 5.889 22.0215 5.85262 22.2431C5.83337 22.3604 5.83337 22.4835 5.83337 22.7295C5.83337 23.2918 5.83337 23.5729 5.90987 23.7996C6.05541 24.2311 6.39454 24.5699 6.82601 24.7155C7.0519 24.7917 7.3311 24.7917 7.88898 24.7917H13.125" stroke="white" stroke-width="2" stroke-linecap="round" stroke-linejoin="round"/>
</svg>
