<svg width="35" height="35" viewBox="0 0 35 35" fill="none" xmlns="http://www.w3.org/2000/svg">
<path d="M25.1076 28.1929C23.2384 26.1053 20.5226 24.7917 17.5 24.7917C14.4774 24.7917 11.7613 26.1053 9.89217 28.1929M17.5 30.625C10.2513 30.625 4.375 24.7487 4.375 17.5C4.375 10.2513 10.2513 4.375 17.5 4.375C24.7487 4.375 30.625 10.2513 30.625 17.5C30.625 24.7487 24.7487 30.625 17.5 30.625ZM17.5 20.4167C15.0838 20.4167 13.125 18.4579 13.125 16.0417C13.125 13.6254 15.0838 11.6667 17.5 11.6667C19.9162 11.6667 21.875 13.6254 21.875 16.0417C21.875 18.4579 19.9162 20.4167 17.5 20.4167Z" stroke="#FAFAFA" stroke-width="2" stroke-linecap="round" stroke-linejoin="round"/>
</svg>
