<svg width="35" height="35" viewBox="0 0 35 35" fill="none" xmlns="http://www.w3.org/2000/svg">
<path fill-rule="evenodd" clip-rule="evenodd" d="M17.5 2.91699C25.5541 2.91699 32.0833 9.44617 32.0833 17.5003C32.0833 25.5545 25.5541 32.0837 17.5 32.0837C9.44581 32.0837 2.91663 25.5545 2.91663 17.5003C2.91663 9.44617 9.44581 2.91699 17.5 2.91699ZM17.5 5.83366C11.0566 5.83366 5.83329 11.057 5.83329 17.5003C5.83329 23.9436 11.0566 29.167 17.5 29.167C23.9433 29.167 29.1666 23.9436 29.1666 17.5003C29.1666 11.057 23.9433 5.83366 17.5 5.83366ZM17.5 23.3337C18.3054 23.3337 18.9583 23.9866 18.9583 24.792C18.9583 25.5974 18.3054 26.2503 17.5 26.2503C16.6945 26.2503 16.0416 25.5974 16.0416 24.792C16.0416 23.9866 16.6945 23.3337 17.5 23.3337ZM17.5 8.75032C20.7216 8.75032 23.3333 11.362 23.3333 14.5837C23.3333 17.2011 21.6094 19.4159 19.2351 20.1546L18.9583 20.2332V20.417C18.9583 21.2224 18.3054 21.8753 17.5 21.8753C16.7521 21.8753 16.1357 21.3124 16.0514 20.5871L16.0416 20.417V18.9587C16.0416 18.2108 16.6046 17.5944 17.3299 17.5101L17.7176 17.4923C19.2268 17.381 20.4166 16.1213 20.4166 14.5837C20.4166 12.9728 19.1108 11.667 17.5 11.667C15.8891 11.667 14.5833 12.9728 14.5833 14.5837C14.5833 15.3891 13.9304 16.042 13.125 16.042C12.3195 16.042 11.6666 15.3891 11.6666 14.5837C11.6666 11.362 14.2783 8.75032 17.5 8.75032Z" fill="#212325"/>
</svg>
