<svg width="35" height="35" viewBox="0 0 35 35" fill="none" xmlns="http://www.w3.org/2000/svg">
<path d="M6.924 11.149L6.44096 16.4623C6.36942 17.2492 6.33335 17.646 6.39884 18.0226C6.45735 18.3592 6.57421 18.683 6.74469 18.979C6.93623 19.3115 7.21933 19.5946 7.78231 20.1576L15.3299 27.7052C16.4777 28.853 17.0519 29.4271 17.7157 29.6428C18.3015 29.8332 18.9336 29.8336 19.5193 29.6433C20.1853 29.4269 20.764 28.8489 21.919 27.6938L27.6938 21.9191C28.8488 20.7641 29.4254 20.1868 29.6418 19.5209C29.8321 18.9351 29.831 18.3037 29.6406 17.7179C29.4242 17.052 28.8485 16.4748 27.6935 15.3198L20.1645 7.79082C19.5964 7.2227 19.3122 6.93861 18.9782 6.7462C18.6822 6.57572 18.3584 6.45836 18.0219 6.39985C17.6421 6.33381 17.2418 6.37012 16.4417 6.44286L11.1482 6.92408C9.7704 7.04933 9.08108 7.11224 8.54197 7.41202C8.06666 7.67634 7.67483 8.06817 7.41052 8.54348C7.11222 9.0799 7.05 9.76433 6.926 11.1284L6.924 11.149Z" stroke="#FAFAFA" stroke-width="2" stroke-linecap="round" stroke-linejoin="round"/>
<path d="M14.1641 14.1647C14.7337 13.5952 14.7337 12.6718 14.1641 12.1023C13.5946 11.5328 12.6706 11.5328 12.1011 12.1023C11.5316 12.6718 11.531 13.595 12.1005 14.1645C12.6701 14.734 13.5946 14.7342 14.1641 14.1647Z" stroke="#FAFAFA" stroke-width="2" stroke-linecap="round" stroke-linejoin="round"/>
</svg>
