<svg width="35" height="35" viewBox="0 0 35 35" fill="none" xmlns="http://www.w3.org/2000/svg">
<path fill-rule="evenodd" clip-rule="evenodd" d="M17.5 2.91699C21.4211 2.91699 24.6194 6.01202 24.785 9.89236L24.7917 10.2087V14.5837C27.208 14.5837 29.1667 16.5424 29.1667 18.9587V27.7087C29.1667 30.1249 27.208 32.0837 24.7917 32.0837H10.2084C7.79213 32.0837 5.83337 30.1249 5.83337 27.7087V18.9587C5.83337 16.5424 7.79213 14.5837 10.2084 14.5837H21.875V10.2087C21.875 7.87871 20.0537 5.97415 17.7571 5.84109L17.5 5.83366C15.0838 5.83366 13.125 7.79241 13.125 10.2087C13.125 11.0141 12.4721 11.667 11.6667 11.667C10.8613 11.667 10.2084 11.0141 10.2084 10.2087C10.2084 6.18158 13.473 2.91699 17.5 2.91699ZM24.7917 17.5003H10.2084C9.40296 17.5003 8.75004 18.1532 8.75004 18.9587V27.7087C8.75004 28.5141 9.40296 29.167 10.2084 29.167H24.7917C25.5971 29.167 26.25 28.5141 26.25 27.7087V18.9587C26.25 18.1532 25.5971 17.5003 24.7917 17.5003Z" fill="#212325"/>
</svg>
